<?xml version="1.0" encoding="UTF-8"?>
<!DOCTYPE svg PUBLIC "-//W3C//DTD SVG 1.1//EN" "http://www.w3.org/Graphics/SVG/1.1/DTD/svg11.dtd">
<svg version="1.1" xmlns="http://www.w3.org/2000/svg" xmlns:xlink="http://www.w3.org/1999/xlink" width="223" height="266"  xml:space="preserve" id="ca3">
    <!-- Generated by PaintCode - http://www.paintcodeapp.com -->

    <!-- This code was generated by Trial version of PaintCode, therefore cannot be used for commercial purposes. -->

    <g id="ca3-group3">
        <path id="ca3-bezier1020" fill-rule="evenodd" stroke="none" fill="rgb(0, 0, 0)" d="M 190.35,10.16 C 191.17,10.1 191.51,9.55 192.51,9.68 193.6,10.03 194.71,10.37 195.39,11.12 195.35,12.59 196.73,14.15 195.63,15.2 194.8,16.65 192.49,16.34 190.83,16.4 188.04,16.08 188.07,11.07 190.35,10.16 Z M 190.35,10.16" />
        <path id="ca3-bezier1021" fill-rule="evenodd" stroke="none" fill="rgb(0, 0, 0)" d="M 179.79,12.8 C 179.71,15.37 176.29,15.83 174.75,16.16 175.38,13.98 177.97,13.78 179.79,12.8 Z M 179.79,12.8" />
        <path id="ca3-bezier1022" fill-rule="evenodd" stroke="none" fill="rgb(0, 0, 0)" d="M 187.23,17.12 C 187.64,16.41 187.59,15.23 188.67,15.2 189.24,15.28 189.21,15.94 189.63,16.16 189.81,16.89 189.22,16.87 189.39,17.6 188.86,18.47 187.17,18.65 187.23,17.12 Z M 187.23,17.12" />
        <path id="ca3-bezier1023" fill-rule="evenodd" stroke="none" fill="rgb(192, 192, 192)" d="M 177.39,17.12 C 178.44,17.56 176.82,18.54 175.95,18.56 176.1,17.75 177.28,17.97 177.39,17.12 Z M 177.39,17.12" />
        <path id="ca3-bezier1024" fill-rule="evenodd" stroke="none" fill="rgb(0, 0, 0)" d="M 196.35,18.08 C 197,17.93 196.95,17.08 197.79,17.12 197.78,17.43 197.49,17.45 197.55,17.84 197.54,18.15 197.25,18.17 197.31,18.56 195.84,20.53 190.99,20.85 189.63,18.56 189.65,18.25 189.94,18.23 189.87,17.84 191.63,17.1 193.51,18.16 194.67,18.8 195.21,18.54 195.88,18.4 196.35,18.08 Z M 196.35,18.08" />
        <path id="ca3-bezier1025" fill-rule="evenodd" stroke="none" fill="rgb(192, 192, 192)" d="M 220.11,21.92 C 220.3,22.99 219.79,23.36 219.87,24.32 219.24,24.15 219.64,22.95 218.91,22.88 218.94,22.26 219.85,22.54 219.87,21.92 L 220.11,21.92 Z M 220.11,21.92" />
        <path id="ca3-bezier1026" fill-rule="evenodd" stroke="none" fill="rgb(0, 0, 0)" d="M 150.99,31.04 L 150.03,31.04 C 149.98,30.77 149.77,30.67 149.55,30.56 150.51,26.72 153.69,25.1 156.75,23.36 156.8,26.94 152.9,28.62 150.99,31.04 Z M 150.99,31.04" />
        <path id="ca3-bezier1027" fill-rule="evenodd" stroke="none" fill="rgb(255, 255, 255)" d="M 186.03,26.96 C 185.15,29.12 183.15,30.16 181.23,31.28 180.12,31.61 180.38,33.31 178.59,32.96 178.49,32.75 178.38,32.53 178.11,32.48 179.2,30.29 183,24.25 186.03,26.96 Z M 186.03,26.96" />
        <path id="ca3-bezier1028" fill-rule="evenodd" stroke="none" fill="rgb(255, 255, 255)" d="M 188.91,30.08 C 189.49,33.9 185.65,35.27 183.15,36.8 182.03,37.42 181.41,39.05 179.79,38.48 179.17,36.41 181.97,33.82 183.63,32.24 184.93,31.01 186.94,29.34 188.91,30.08 Z M 188.91,30.08" />
        <path id="ca3-bezier1029" fill-rule="evenodd" stroke="none" fill="rgb(0, 0, 0)" d="M 141.39,38.24 C 142.49,36.94 143.58,35.63 144.75,34.4 144.44,33.91 143.59,33.96 143.79,32.96 144.27,31.35 146.45,31.45 148.11,31.04 L 148.11,32 C 148.3,31.95 148.59,31.99 148.59,31.76 149.6,31.71 150.6,31.67 150.75,32.48 150.5,33.91 149.37,34.46 148.35,35.12 148.7,35.68 149.78,34.97 150.27,34.88 150.89,34.62 151.16,34.01 151.95,33.92 151.79,34.48 151.16,34.56 150.99,35.12 152.3,35.11 151.86,32.67 153.87,32.48 153.93,32.67 153.88,32.95 154.11,32.96 154.2,34 153.53,34.3 153.39,35.12 152.5,35.67 151.47,37.35 151.71,38.24 154.45,39.55 150.3,39.67 150.03,40.88 149.13,41.33 149.36,42.93 147.87,42.8 147.76,42.25 147.4,41.57 147.87,41.12 148.01,40.62 148.47,40.43 148.35,39.68 149.42,39.06 149.99,37.96 150.51,36.8 150.35,36.27 149.72,37.26 149.55,37.52 149.03,37.48 148.79,37.72 148.83,38.24 147.33,39.54 146.1,41.11 144.51,42.32 143.99,42.28 144,41.72 144.03,41.12 144.14,40.66 144.72,40.68 144.51,39.92 145.37,39.09 145.8,37.85 146.67,37.04 145.45,37.26 144.37,39.69 142.59,40.16 142.17,40.37 141.98,40.83 141.15,40.64 141.1,40.37 140.89,40.27 140.67,40.16 140.5,39.11 141.37,39.09 141.39,38.24 Z M 141.39,38.24" />
        <path id="ca3-bezier1030" fill-rule="evenodd" stroke="none" fill="rgb(192, 192, 192)" d="M 210.51,38 C 211.02,38.86 212,40.51 211.23,41.84 210.47,41.08 210.42,39.61 210.51,38 Z M 210.51,38" />
        <path id="ca3-bezier1031" fill-rule="evenodd" stroke="none" fill="rgb(0, 0, 0)" d="M 180.51,38.96 C 179.42,40.27 179.12,42.37 177.87,43.52 178.01,42.32 178.28,38.06 180.51,38.96 Z M 180.51,38.96" />
        <path id="ca3-bezier1032" fill-rule="evenodd" stroke="none" fill="rgb(0, 0, 0)" d="M 182.91,42.8 C 183.23,44.66 181.21,45.98 180.27,47.36 179.85,48.22 179.97,49.62 178.59,49.52 179.07,46.47 179.75,42.38 182.91,42.8 Z M 182.91,42.8" />
        <path id="ca3-bezier1033" fill-rule="evenodd" stroke="none" fill="rgb(0, 0, 0)" d="M 186.27,44.72 C 186.83,46.55 185.45,46.64 184.59,47.6 183.36,48.98 182.2,52 180.51,51.44 181.07,49.08 181.96,41.79 186.27,44.72 Z M 186.27,44.72" />
        <path id="ca3-bezier1034" fill-rule="evenodd" stroke="none" fill="rgb(0, 0, 0)" d="M 187.95,47.12 C 189.12,49.61 186.38,52.01 184.35,52.88 184.23,50.58 185.43,47.58 187.95,47.12 Z M 187.95,47.12" />
        <path id="ca3-bezier1035" fill-rule="evenodd" stroke="none" fill="rgb(255, 255, 255)" d="M 167.79,50.72 C 167.64,52.98 165.55,55.34 162.99,56 163.56,53.35 165.67,51.02 167.79,50.72 Z M 167.79,50.72" />
        <path id="ca3-bezier1036" fill-rule="evenodd" stroke="none" fill="rgb(0, 0, 0)" d="M 180.27,52.88 C 179.73,56.98 176.91,58.8 174.03,60.56 174.94,56.99 177.57,55.14 179.55,52.64 179.94,52.57 179.97,52.87 180.27,52.88 Z M 180.27,52.88" />
        <path id="ca3-bezier1037" fill-rule="evenodd" stroke="none" fill="rgb(0, 0, 0)" d="M 174.75,54.56 C 174.13,58.09 171.71,59.84 169.47,61.76 169.19,58.74 171.9,56.68 173.07,54.32 173.71,54.32 174.44,54.23 174.75,54.56 Z M 174.75,54.56" />
        <path id="ca3-bezier1038" fill-rule="evenodd" stroke="none" fill="rgb(0, 0, 0)" d="M 164.19,58.16 C 162.58,60.3 162.38,63.86 159.15,64.4 158.31,65.24 158.81,67.42 156.75,67.04 156.24,65.98 157.11,65.06 157.47,64.16 157.21,63.46 156.79,62.92 156.99,61.76 159.47,60.85 161.18,54.79 164.19,58.16 Z M 164.19,58.16" />
        <path id="ca3-bezier1039" fill-rule="evenodd" stroke="none" fill="rgb(0, 0, 0)" d="M 120.51,62.96 C 121.55,61.83 122.32,60.44 124.35,60.32 125.12,61.33 124.06,62.16 123.63,62.72 123.51,62.91 123.38,63.11 123.39,63.44 122.72,64.53 122.07,65.64 120.99,66.32 L 119.07,66.32 C 118.97,66.11 118.86,65.89 118.59,65.84 118.67,64.32 120.22,64.27 120.51,62.96 Z M 120.51,62.96" />
        <path id="ca3-bezier1040" fill-rule="evenodd" stroke="none" fill="rgb(0, 0, 0)" d="M 127.71,62 C 128.41,61.82 128.34,60.86 129.39,61.04 129.91,62.95 127.77,64.19 126.99,65.6 L 126.75,65.6 C 126.43,65.94 125.39,65.94 125.07,65.6 L 125.07,64.88 C 125.64,63.61 127.28,63.4 127.71,62 Z M 127.71,62" />
        <path id="ca3-bezier1041" fill-rule="evenodd" stroke="none" fill="rgb(0, 0, 0)" d="M 130.59,66.56 C 130.25,66.43 130.01,66.19 129.87,65.84 130.63,64.18 131.66,61.58 133.95,62.24 133.79,64.24 132.38,64.99 131.79,66.56 L 130.59,66.56 Z M 130.59,66.56" />
        <path id="ca3-bezier1042" fill-rule="evenodd" stroke="none" fill="rgb(0, 0, 0)" d="M 136.83,63.92 C 136.94,65.47 136.29,66.26 134.91,66.32 134.81,64.78 135.16,63.69 136.83,63.92 Z M 136.83,63.92" />
        <path id="ca3-bezier1043" fill-rule="evenodd" stroke="none" fill="rgb(0, 0, 0)" d="M 169.71,64.4 C 169.93,64.51 170.14,64.61 170.19,64.88 169.95,67.16 168.08,69.48 166.59,71.36 165.47,72.77 162.65,76.48 161.31,72.56 164.65,70.38 166.11,66.32 169.71,64.4 Z M 169.71,64.4" />
        <path id="ca3-bezier1044" fill-rule="evenodd" stroke="none" fill="rgb(0, 0, 0)" d="M 167.55,72.08 C 169.42,69.53 170.89,65.72 174.75,64.64 174.31,67.93 171.23,74.89 167.55,72.08 Z M 167.55,72.08" />
        <path id="ca3-bezier1045" fill-rule="evenodd" stroke="none" fill="rgb(255, 255, 255)" d="M 134.91,74 C 134.63,74.2 134.27,74.32 133.71,74.24 132.15,72.13 134.88,66.17 137.31,66.08 138.69,66.03 139.42,66.88 139.47,68 139.49,68.47 137.61,71.55 136.83,72.32 136.26,72.89 134.68,72.44 134.91,73.76 L 134.91,74 Z M 134.91,74" />
        <path id="ca3-bezier1046" fill-rule="evenodd" stroke="none" fill="rgb(0, 0, 0)" d="M 113.55,71.6 C 114.11,71.52 114.47,71.64 114.75,71.84 L 114.75,72.8 C 113.87,73.36 113.25,74.17 112.83,75.2 112.71,75.39 112.58,75.59 112.59,75.92 111.92,76.69 111.2,77.41 110.43,78.08 109.72,78.82 109.02,80.27 107.79,79.76 107.24,79.21 108.24,78.99 108.03,78.08 109.79,75.83 111.62,73.67 113.55,71.6 Z M 113.55,71.6" />
        <path id="ca3-bezier1047" fill-rule="evenodd" stroke="none" fill="rgb(0, 0, 0)" d="M 127.71,72.08 C 127.73,71.93 127.75,71.8 127.95,71.84 L 128.91,71.84 C 128.94,72.43 128.95,73 128.67,73.28 L 128.67,73.52 C 127.94,74.95 127.41,76.58 126.51,77.84 128.73,75.98 129.66,72.83 132.75,71.84 133.68,72.57 131.65,76.3 130.35,78.32 129.41,79.79 127.13,81 126.03,79.52 L 126.03,79.28 C 125.96,78.72 126.07,78.36 126.27,78.08 124.8,79.01 124.46,81.06 122.19,81.2 121.87,81.12 121.73,80.86 121.23,80.96 121.18,80.69 120.97,80.59 120.75,80.48 121.52,76.12 125.46,74.94 127.71,72.08 Z M 127.71,72.08" />
        <path id="ca3-bezier1048" fill-rule="evenodd" stroke="none" fill="rgb(0, 0, 0)" d="M 108.27,72.56 C 108.98,72.62 109.01,72.02 109.71,72.08 L 109.71,73.04 C 108.46,74.11 107.49,75.46 106.35,76.64 105.87,77.36 105.87,78.56 104.43,78.32 103.8,77.45 105.22,76.98 105.15,75.92 106.41,75.02 107.31,73.76 108.27,72.56 Z M 108.27,72.56" />
        <path id="ca3-bezier1049" fill-rule="evenodd" stroke="none" fill="rgb(0, 0, 0)" d="M 134.91,73.76 C 135.64,73.53 135.4,72.33 136.59,72.56 136.6,75.31 134.36,79.11 131.31,78.8 131.67,77.29 133.83,75.57 134.91,74 L 134.91,73.76 Z M 134.91,73.76" />
        <path id="ca3-bezier1050" fill-rule="evenodd" stroke="none" fill="rgb(0, 0, 0)" d="M 120.75,73.76 C 121.78,73.53 122.41,72.37 123.63,73.04 123.61,73.46 123.69,73.79 123.87,74 122.47,76.4 117.79,84.17 115.23,80.48 L 115.23,80 C 116.94,77.79 118.92,75.85 120.75,73.76 Z M 120.75,73.76" />
        <path id="ca3-bezier1051" fill-rule="evenodd" stroke="none" fill="rgb(0, 0, 0)" d="M 140.67,74.24 C 140.93,73.7 141.65,72.89 142.35,73.52 142.47,74.6 141.5,74.59 141.39,75.44 139.78,76.26 138.65,79.47 136.59,78.32 137.81,76.82 139.54,75.82 140.67,74.24 Z M 140.67,74.24" />
        <path id="ca3-bezier1052" fill-rule="evenodd" stroke="none" fill="rgb(0, 0, 0)" d="M 117.15,74.24 C 117.51,74.28 118.04,74.15 118.11,74.48 118.03,76.8 116.64,77.81 115.47,79.04 L 115.23,79.04 C 114.15,79.89 111.74,82.27 110.43,80 L 110.43,79.76 C 110.72,79.17 111.25,78.82 111.87,78.56 113.59,77.08 115.47,75.76 117.15,74.24 Z M 117.15,74.24" />
        <path id="ca3-bezier1053" fill-rule="evenodd" stroke="none" fill="rgb(255, 255, 255)" d="M 129.87,85.04 L 129.63,85.04 C 128.61,85.14 128.45,86.1 127.47,86.24 127.57,84.1 128.3,82.59 130.59,82.64 130.7,83.78 130.56,84.68 129.87,85.04 Z M 129.87,85.04" />
        <path id="ca3-bezier1054" fill-rule="evenodd" stroke="none" fill="rgb(192, 192, 192)" d="M 161.55,87.2 C 161.68,91.02 158.99,94.07 156.03,95.6 156.5,93.01 158.91,90.33 159.87,87.44 160.32,87.41 160.67,87.28 160.83,86.96 161.22,86.89 161.25,87.19 161.55,87.2 Z M 161.55,87.2" />
        <path id="ca3-bezier1055" fill-rule="evenodd" stroke="none" fill="rgb(192, 192, 192)" d="M 155.79,87.92 C 155,91.85 152.76,94.33 149.79,96.08 150.7,92.67 152.64,90.29 154.35,87.68 154.94,87.65 155.51,87.64 155.79,87.92 Z M 155.79,87.92" />
        <path id="ca3-bezier1056" fill-rule="evenodd" stroke="none" fill="rgb(0, 0, 0)" d="M 138.03,93.92 C 138.17,95.09 137.1,95.07 136.59,95.6 135.11,99.33 131.66,101.68 128.67,104.24 127.88,104.92 126.86,106.61 125.55,105.92 128.61,101.37 133.18,98.34 135.87,93.44 136.83,93.36 137.65,93.43 138.03,93.92 Z M 138.03,93.92" />
        <path id="ca3-bezier1057" fill-rule="evenodd" stroke="none" fill="rgb(192, 192, 192)" d="M 150.03,97.76 C 150.35,97.85 150.41,98.18 150.75,98.24 150.61,101.08 148.15,102.81 146.19,103.04 147.05,101.79 148.44,99.07 150.03,97.76 Z M 150.03,97.76" />
        <path id="ca3-bezier1058" fill-rule="evenodd" stroke="none" fill="rgb(192, 192, 192)" d="M 146.19,98.24 C 145.98,101.17 143.11,103.47 140.43,104.72 139.86,103.57 141.37,103.25 142.11,102.32 143.26,100.87 143.79,98.73 145.47,98 145.86,97.93 145.88,98.23 146.19,98.24 Z M 146.19,98.24" />
        <path id="ca3-bezier1059" fill-rule="evenodd" stroke="none" fill="rgb(255, 255, 255)" d="M 93.87,105.44 C 94.19,105.88 94.56,106.89 94.11,107.36 93.73,106.69 93.14,105.96 93.87,105.44 Z M 93.87,105.44" />
        <path id="ca3-bezier1060" fill-rule="evenodd" stroke="none" fill="rgb(192, 192, 192)" d="M 88.83,105.92 C 88.99,107.33 86.46,108 86.19,109.76 85.75,109 85.69,107.87 85.23,107.12 86.66,107.83 87.51,106.09 88.83,105.92 Z M 88.83,105.92" />
        <path id="ca3-bezier1061" fill-rule="evenodd" stroke="none" fill="rgb(192, 192, 192)" d="M 140.67,108.32 C 140.22,111.01 136.36,113.58 133.95,114.32 134.47,111.78 138.39,110.6 139.95,108.32 L 140.67,108.32 Z M 140.67,108.32" />
        <path id="ca3-bezier1062" fill-rule="evenodd" stroke="none" fill="rgb(192, 192, 192)" d="M 111.87,109.76 C 112.75,109.76 112.23,111.17 113.31,110.96 112.4,111.88 110.84,112.17 109.71,112.88 109.36,110.77 111.31,110.96 111.87,109.76 Z M 111.87,109.76" />
        <path id="ca3-bezier1063" fill-rule="evenodd" stroke="none" fill="rgb(192, 192, 192)" d="M 105.39,128 C 105.3,129.24 103.23,130.6 102.27,129.44 102.75,128.4 103.98,128.1 105.39,128 Z M 105.39,128" />
        <path id="ca3-bezier1064" fill-rule="evenodd" stroke="none" fill="rgb(192, 192, 192)" d="M 85.47,128.24 C 85.76,129.38 83.57,130.47 82.35,131.6 80.03,133.75 77.99,136.3 74.91,137.84 75.48,135.79 77.92,134.78 79.71,133.28 81.52,131.77 83.13,129.96 84.51,128.24 L 85.47,128.24 Z M 85.47,128.24" />
        <path id="ca3-bezier1065" fill-rule="evenodd" stroke="none" fill="rgb(192, 192, 192)" d="M 95.79,133.28 C 94.72,134.85 93.46,136.23 90.75,136.16 89.95,133.74 93.91,133 95.79,133.28 Z M 95.79,133.28" />
        <path id="ca3-bezier1066" fill-rule="evenodd" stroke="none" fill="rgb(192, 192, 192)" d="M 97.71,135.92 C 96.65,137.68 94.86,140.93 92.19,139.52 93.9,138.32 95.66,135.97 97.71,135.92 Z M 97.71,135.92" />
        <path id="ca3-bezier1067" fill-rule="evenodd" stroke="none" fill="rgb(192, 192, 192)" d="M 100.11,135.92 C 100.43,136 100.49,136.34 100.83,136.4 99.97,137.78 98.36,141.58 96.51,139.04 97.32,137.61 99.23,137.28 100.11,135.92 Z M 100.11,135.92" />
        <path id="ca3-bezier1068" fill-rule="evenodd" stroke="none" fill="rgb(0, 0, 0)" d="M 43.23,228.32 C 42.16,230.12 42.67,233.55 40.35,233.6 36.1,233.69 39.94,226.86 43.23,228.32 Z M 43.23,228.32" />
        <path id="ca3-bezier1069" fill-rule="evenodd" stroke="none" fill="rgb(0, 0, 0)" d="M 38.19,231.68 C 38.33,233.18 37.41,233.62 36.99,234.56 32.36,235.07 35.96,229.61 38.19,231.68 Z M 38.19,231.68" />
        <path id="ca3-bezier1070" fill-rule="evenodd" stroke="none" fill="rgb(192, 192, 192)" d="M 26.19,200.48 C 27.85,197.66 29,194.33 30.99,191.84 29.84,195.09 28.38,198.03 26.43,200.48 L 26.19,200.48 Z M 26.19,200.48" />
        <path id="ca3-bezier1071" fill-rule="evenodd" stroke="none" fill="rgb(192, 192, 192)" d="M 23.31,222.32 C 24.6,220.89 25.68,219.25 27.15,218 26,219.56 25.11,221.39 23.31,222.32 Z M 23.31,222.32" />
        <path id="ca3-bezier1072" fill-rule="evenodd" stroke="none" fill="rgb(192, 192, 192)" d="M 35.07,207.68 C 37.77,203.5 40.17,199.02 42.27,194.24 49.04,188.53 54.56,181.57 59.79,174.32 59.62,175.51 58.68,178 57.63,179.12 57.86,178.63 58.12,178.17 58.35,177.68 57.58,178.25 55.59,180.96 56.67,181.04 50.22,189.71 42.93,197.54 36.51,206.24 35.86,206.55 35.82,207.47 35.07,207.68 Z M 35.07,207.68" />
        <path id="ca3-bezier1073" fill-rule="evenodd" stroke="none" fill="rgb(0, 0, 0)" d="M 54.51,198.32 C 55.94,195.03 58.71,193.08 59.55,189.2 56.87,189.87 56.45,192.81 54.27,194 50.24,202.44 44.67,209.36 39.63,216.8 38.92,217.36 38.29,218.02 38.19,219.2 44.48,213.08 50.08,206.29 54.51,198.32 Z M 69.39,172.88 C 69.83,171.24 72.59,169.61 71.31,167.84 69.11,169.4 68.81,172.85 67.23,175.04 68.46,175.23 68.62,174.35 68.91,173.6 69.19,173.64 69.17,173.98 69.15,174.32 66.95,178.19 63.12,180.45 61.71,185.12 62.24,185.16 62.48,184.92 62.43,184.4 63.15,183.6 63.92,182.85 64.59,182 64.94,181.87 65.18,181.63 65.31,181.28 66.72,180.29 67.71,178.87 68.43,177.2 68.84,176.48 69.38,175.91 69.63,175.04 70.79,174.06 68.63,173.51 69.39,172.88 Z M 112.83,155.84 C 113.24,155.37 114.04,155.29 113.79,154.16 113.34,153.97 112.91,153.76 112.35,153.68 112.46,154.46 112.04,155.76 112.83,155.84 Z M 112.11,151.28 C 112.2,150.64 113.34,151.06 113.55,150.56 113,150.24 112.19,150.16 111.63,149.84 111.64,150.48 111.5,151.25 112.11,151.28 Z M 65.07,150.32 C 63.58,152.68 62.32,155.3 60.75,157.76 56.24,164.86 50.63,172.09 46.11,178.64 51.59,172.51 55.62,164.94 61.95,159.68 62.41,159.86 62.12,160.4 62.67,159.92 64.03,157.6 65.63,155.51 67.47,153.68 68.75,152.16 68.16,152.69 66.99,153.68 65.48,155.05 63.96,157.68 62.67,158.48 64.04,154.89 66.11,150.72 67.71,148.16 66.74,148.75 65.58,149.51 65.07,150.32 Z M 84.03,148.64 C 84.51,147.68 84.99,146.72 85.47,145.76 84.68,145.47 83.47,146.57 83.31,147.68 82.44,148.33 82.24,149.65 81.63,150.56 79.9,153.14 78.24,155.81 76.59,158.48 76.12,158.67 75.73,159.32 76.11,159.68 77.67,158.76 78.38,156.99 79.71,155.84 80.58,154.47 81.68,153.33 82.35,151.76 83.2,151 83.59,149.8 84.03,148.64 Z M 85.95,152.96 C 86.71,152.46 87.62,150.72 88.35,149.12 88.96,147.81 90.4,145.13 88.83,145.76 84.57,150.05 81.98,156.03 79.23,161.84 82.38,159.79 84,156.2 85.95,152.96 Z M 75.39,158.96 C 77.86,154.31 80.5,149.83 82.59,144.8 80.36,144.22 79.98,147.1 79.23,148.64 78.37,150.43 77.35,152.29 76.83,153.92 76.33,155.47 73.48,158.06 75.15,159.44 75.15,159.2 75.35,159.16 75.39,158.96 Z M 47.79,144.32 C 48.17,143.74 50.22,142.53 49.71,142.64 49.06,143.03 47.46,143.74 47.79,144.32 Z M 96.51,139.04 C 98.36,141.58 99.97,137.78 100.83,136.4 100.49,136.34 100.43,136 100.11,135.92 99.24,137.28 97.32,137.61 96.51,139.04 Z M 92.19,139.52 C 94.86,140.93 96.65,137.68 97.71,135.92 95.66,135.97 93.9,138.32 92.19,139.52 Z M 90.75,136.16 C 93.46,136.23 94.72,134.85 95.79,133.28 93.91,133 89.95,133.74 90.75,136.16 Z M 84.51,128.24 C 83.13,129.96 81.52,131.77 79.71,133.28 77.92,134.78 75.48,135.79 74.91,137.84 77.99,136.3 80.03,133.75 82.35,131.6 83.57,130.47 85.76,129.38 85.47,128.24 L 84.51,128.24 Z M 102.27,129.44 C 103.23,130.6 105.3,129.24 105.39,128 103.98,128.1 102.75,128.4 102.27,129.44 Z M 100.83,120.08 C 99.8,122.1 97.13,123.71 96.75,125.6 98.44,125.54 100.09,124.48 101.55,123.68 105.16,121.7 108.62,119.85 110.19,116.96 108.23,119.26 104.83,121.2 100.83,120.08 Z M 96.99,120.32 C 98.15,120 97.61,119.46 97.95,118.4 98.63,118.36 98.95,117.96 99.63,117.92 100.34,116.69 101.24,115.44 102.27,114.32 103.22,113.29 105.22,112.5 104.91,110.96 101.88,113.52 97.61,116.14 96.99,120.32 Z M 78.75,113.84 C 79.93,113.14 82.19,111.08 81.39,110 80.63,111.39 79.57,112.49 78.75,113.84 Z M 109.71,112.88 C 110.84,112.17 112.4,111.88 113.31,110.96 112.23,111.17 112.75,109.76 111.87,109.76 111.31,110.96 109.37,110.77 109.71,112.88 Z M 97.23,110.72 C 94.3,112.66 90.92,114.17 87.39,115.52 87.39,115.28 87.2,115.23 87.15,115.04 88.19,112.39 90.87,111.4 92.19,109.04 87.3,111.59 82.63,115.64 80.67,120.32 82.32,119.57 83.06,117.9 85.23,117.68 85.86,118.03 85.11,119.58 85.47,119.6 87.69,117.66 90.37,116.17 92.67,114.32 92.73,114.66 93.07,114.72 93.15,115.04 92.07,116.44 91.21,118.06 90.51,119.84 91.54,119.75 91.69,118.78 92.67,118.64 92.68,118.07 92.26,117.93 92.43,117.2 95.27,115.87 97.01,112.18 98.67,110.48 97.94,110.31 97.8,110.72 97.23,110.72 Z M 139.95,108.32 C 138.39,110.6 134.47,111.78 133.95,114.32 136.36,113.58 140.22,111.01 140.67,108.32 L 139.95,108.32 Z M 85.23,107.12 C 85.69,107.87 85.75,109 86.19,109.76 86.46,108 88.99,107.33 88.83,105.92 87.51,106.09 86.66,107.83 85.23,107.12 Z M 97.47,106.88 C 98.83,106.64 100.02,104.95 100.11,104.24 99.51,105.39 97.81,105.45 97.47,106.88 Z M 145.47,98 C 143.79,98.73 143.26,100.88 142.11,102.32 141.37,103.25 139.86,103.57 140.43,104.72 143.11,103.47 145.98,101.17 146.19,98.24 145.89,98.23 145.86,97.93 145.47,98 Z M 146.19,103.04 C 148.15,102.81 150.61,101.08 150.75,98.24 150.41,98.18 150.35,97.84 150.03,97.76 148.44,99.07 147.05,101.79 146.19,103.04 Z M 115.23,98.96 C 114.4,100.93 112.3,102.9 111.63,104.24 113.2,102.42 115.33,100.37 117.39,98.96 118.16,98.44 119.71,98.18 119.55,97.04 118.58,98.15 116.79,98.44 115.23,98.96 Z M 107.55,97.04 C 108.55,96.75 107.36,96.02 106.83,95.84 106.87,96.44 106.46,96.58 106.35,97.04 L 106.35,97.28 C 105.96,97.39 105.18,98.31 105.63,98.48 106.09,97.9 106.92,97.68 107.31,97.04 L 107.55,97.04 Z M 115.47,94.16 C 116.12,93.69 116.62,93.07 116.91,92.24 116.47,92.27 116.11,92.4 115.95,92.72 L 115.71,92.72 C 113.37,93.89 111.36,95.41 110.43,98 110.36,98.15 109.84,98.92 110.43,98.96 111.03,98.12 112.15,97.8 113.07,97.28 114.17,96.62 114.75,95.44 115.47,94.4 L 115.47,94.16 Z M 92.19,92.72 C 91.97,92.14 91.75,91.56 91.47,91.04 91.1,92.11 89.87,93.59 90.03,94.4 90.74,93.82 91.51,93.31 92.19,92.72 Z M 154.35,87.68 C 152.64,90.29 150.7,92.67 149.79,96.08 152.76,94.33 155,91.85 155.79,87.92 155.51,87.64 154.94,87.65 154.35,87.68 Z M 160.83,86.96 C 160.67,87.28 160.32,87.41 159.87,87.44 158.91,90.33 156.5,93.01 156.03,95.6 158.99,94.07 161.68,91.02 161.55,87.2 161.25,87.19 161.22,86.89 160.83,86.96 Z M 92.67,151.52 C 92.2,153.55 90.09,155.12 89.07,157.28 88.61,158.27 88.61,159.58 88.11,160.64 87.7,161.51 86.79,162.14 86.43,163.04 86.09,163.91 86.27,164.86 85.95,165.68 84.84,168.55 82.98,171.41 81.63,174.56 80.37,177.52 78.24,179.95 76.59,182.72 74.96,185.48 73.67,188.62 71.79,191.12 70.81,192.43 69.64,193.47 68.67,194.72 67.68,195.99 67.17,197.45 66.27,198.8 65.77,199.56 64.85,199.98 64.35,200.72 63.79,201.56 63.69,202.72 63.15,203.6 61.9,205.66 60.25,207.74 58.83,209.84 57.37,212 56.16,214.38 54.75,216.32 53.26,218.38 50.87,219.66 49.47,221.6 48.6,222.82 48.51,224.27 47.31,224.24 45.25,224.18 46.06,221.15 46.83,219.92 48.03,218 51.55,215.91 52.11,214.4 55.99,209.85 57.97,204.36 60.99,199.28 61.52,198.4 62.6,197.77 63.15,196.88 63.62,196.14 63.66,195.19 64.11,194.48 65.21,192.78 66.75,191.62 67.95,190.16 70.31,187.31 71.66,183 73.71,179.6 74.71,177.95 76.37,176.69 77.31,175.04 78.7,172.61 79.14,169.7 80.67,167.36 77.34,169.65 76.74,174.63 73.95,177.68 73.2,178.5 71.99,178.73 71.31,179.6 70.12,181.14 69.12,183.29 67.95,185.12 66.85,186.84 65.65,188.66 64.59,190.4 61.03,196.27 58.35,202.83 54.27,208.16 53.61,209.03 52.56,209.47 51.87,210.32 50.37,212.19 49.14,214.28 47.55,216.08 45.06,218.89 42.49,220.96 40.83,224.72 39.11,227.16 37.38,229.59 35.07,231.44 33.58,230.31 31.12,233.64 29.31,235.52 27.52,237.38 25.82,238.38 24.51,239.6 20.54,243.3 18.31,248.77 14.43,252.8 9.81,257.6 2.63,259.25 0.51,266 -0.97,264.83 1.14,261.54 1.95,260.24 3.34,258.02 5.2,255.94 6.75,253.76 11.29,247.39 13.54,238.6 18.51,232.4 21.95,228.11 24.54,223.74 27.39,219.2 30.25,214.64 34.23,211.01 36.51,206.24 42.93,197.54 50.22,189.71 56.67,181.04 57.03,180.43 57.52,179.97 57.63,179.12 58.68,178 59.62,175.51 59.79,174.32 54.56,181.57 49.04,188.53 42.27,194.24 40.17,199.02 37.77,203.5 35.07,207.68 32.32,211.01 29.73,214.49 27.15,218 25.68,219.25 24.6,220.89 23.31,222.32 23.13,222.94 21.97,223.3 21.39,222.8 19.44,225.08 18.62,228.51 15.15,229.28 13.93,226.65 16.1,223.6 17.31,221.84 18.72,220.85 19.5,219.23 21.39,218.72 22.07,218.76 22.41,219.14 22.35,219.92 26.85,213.75 33.38,206.28 37.71,198.56 38.7,196.81 39.03,194.61 40.11,193.04 41.43,191.12 45.7,190.28 43.95,187.76 46.26,186.54 46.53,183.3 48.27,181.52 40.03,190 34.86,203.63 24.75,211.04 31.54,202.79 35.87,192.08 42.27,183.44 40.41,185.66 38.83,188.04 37.23,190.4 35.53,192.91 34.51,195.63 32.91,198.08 29.65,203.09 24.16,206.32 21.63,211.76 19.69,212.7 19.54,215.43 17.55,216.32 20,210.61 23.29,205.74 26.19,200.48 L 26.43,200.48 C 28.38,198.03 29.84,195.09 30.99,191.84 38.52,177.6 48.88,166.21 58.35,153.92 55.24,157.1 50.18,159.78 46.35,163.04 44.91,164.27 43.63,166.67 42.03,166.64 37.55,166.55 41.17,160.72 42.75,158.96 44.91,156 47.86,153.82 50.91,151.76 53.21,151.17 54.6,149.69 56.43,148.64 57.49,147.78 58.45,146.82 59.31,145.76 L 59.55,145.76 C 61.81,143.46 64.74,141.82 66.99,139.52 L 67.23,139.52 C 71.68,135.25 77.23,132.08 81.87,128 80.27,128 78.47,128.2 77.79,127.28 76.1,128.51 72.57,129.31 72.27,127.04 71.96,124.64 76.23,124.25 77.31,122.48 75.33,123.5 71.52,124.15 70.83,121.52 69.25,122.18 70.81,122.55 70.35,123.68 69.15,123.47 68.14,124.35 67.23,123.68 L 67.23,122.96 C 66.45,122.9 66.08,123.25 66.03,123.92 66.23,123.97 66.27,124.16 66.51,124.16 67.4,127.63 64.48,129.1 63.15,131.12 65.29,129.96 67.45,127.6 70.35,128 71.08,130.21 68.16,130.74 67.23,132.08 66.19,132.4 65.73,133.29 64.83,133.76 61.82,135.71 59.55,138.4 56.67,140.48 55.12,141.09 54.08,142.21 52.83,143.12 51.76,144.13 50.3,144.74 49.71,146.24 49.51,146.2 49.49,146.33 49.47,146.48 48.33,147.42 47.29,148.46 46.35,149.6 L 46.11,149.6 C 44.73,150.85 43.36,152.13 42.03,153.44 42.82,153.35 43.23,152.88 43.71,152.48 44.79,152.28 45.61,151.82 46.35,151.28 49.45,148.86 51.79,145.68 55.23,143.6 56.22,143.22 57.04,142.69 57.87,142.16 59.44,140.93 61.27,139.96 62.67,138.56 L 62.91,138.56 C 64.51,137.6 66.01,136.53 67.23,135.2 67.99,135.31 67.87,134.55 68.43,134.48 69.89,133.22 71.25,131.86 72.51,130.4 73.15,130.47 73.13,129.9 73.23,129.44 73.98,129 75.11,128.33 75.87,129.2 75.68,131.72 73.51,133.79 71.79,135.44 69.3,137.84 65.76,139.6 63.15,141.68 59.78,143.59 56.24,145.33 52.83,147.2 51.69,148.14 50.65,149.18 49.71,150.32 48.57,150.37 48.68,151.69 47.79,152 45.93,153.58 43.92,155.01 42.27,156.8 40.74,157.75 38.85,158.33 37.71,159.68 35.19,160.52 33.99,164.3 31.23,164.24 30.05,164.22 29.27,163.44 29.07,162.56 28.76,161.14 29.85,160.84 30.27,159.44 30.88,157.44 30.66,155.56 31.23,154.64 32.59,151.76 35.31,150.23 36.99,147.68 37.38,147.29 36.78,146.68 36.99,145.76 45.87,136.32 56.36,127.24 65.55,117.92 66.86,116.6 67.67,114.79 68.91,113.6 69.66,112.88 70.89,112.53 71.55,111.68 72.68,110.25 72.68,108.03 74.19,106.88 76.21,99.3 81.63,95.12 84.51,88.4 85,84.6 86.73,83.28 88.83,80 91.74,75.45 95.64,71.66 99.15,67.76 101.19,65.5 102.9,63.33 104.67,60.56 106.73,57.34 108.57,55.15 112.59,53.84 113.55,53.76 114.37,53.83 114.75,54.32 114.79,57.67 111.18,58.29 109.47,60.08 108.78,60.8 108.23,62.17 107.55,63.2 106.32,65.08 104.93,66.38 103.95,68.24 L 103.95,68.48 C 102.08,70.29 101.05,72.93 99.15,74.72 L 99.15,74.96 C 98.16,76.13 96.87,77 96.27,78.56 96.17,79.02 95.76,79.16 95.79,79.76 94.85,80.26 96.03,81.88 95.31,82.88 L 95.31,83.12 C 94.67,83.83 94.38,84.91 93.87,85.76 93.1,87.31 92.27,88.8 91.71,90.56 95.33,88.74 97.7,83.59 103.71,83.36 107.39,85.85 102.57,87.38 100.59,88.4 L 100.35,88.4 C 99.5,88.91 98.43,89.19 97.71,89.84 96.68,89.85 95.89,90.1 95.31,90.56 94.66,90.71 94.72,91.56 93.87,91.52 95.22,92.97 93.18,94.26 92.67,95.36 92.24,96.05 91.77,96.7 91.23,97.28 91.77,97.49 92.84,96.18 93.87,96.08 95.02,95.82 95.33,96.39 95.79,96.8 96.58,96.22 95.87,95.61 96.03,94.4 96.5,93.99 97.23,93.84 97.47,93.2 L 97.71,93.2 C 99.98,92.1 104.34,85.29 108.03,85.76 109.67,85.97 110.76,88 109.23,89.12 L 108.99,89.12 C 101.44,92.44 100.22,102.1 93.15,105.92 93.35,106.44 93.77,106.74 93.63,107.6 94.95,107.51 94.42,106.5 94.35,105.44 99.08,102.16 102.19,97.27 106.35,93.44 107.07,93.09 107.82,94.28 107.79,93.2 108.82,91.99 110.05,90.98 111.15,89.84 112.45,89.22 113.57,88.41 114.99,87.92 116.89,87.54 118.71,87.83 118.59,90.08 120.31,88.67 123.53,85.32 126.27,87.92 127.43,87 128.35,85.84 129.63,85.04 L 129.87,85.04 C 130.51,85.04 131.24,84.95 131.55,85.28 130.07,90.6 127.06,94.39 121.95,96.08 121.63,98.47 120.74,100.31 119.79,102.08 121.66,101.46 122.12,99.45 123.87,98.72 124.82,98.81 125.26,99.42 125.55,100.16 126.35,99.36 127.09,97.91 128.43,98.96 128.63,101.04 126.89,103.05 125.79,104.72 124.63,106.47 123.21,108.35 121.23,109.04 118.54,106.98 117.38,110.71 114.51,111.2 114.59,113.91 112.67,114.64 111.39,116 111.46,116.5 112.46,116.06 112.35,116.72 112.01,118.21 110.78,118.82 110.67,120.56 112.12,120.89 111.41,119.05 111.87,118.4 116.08,113.83 122.37,112.52 126.75,108.56 131.95,103.87 136.39,98.36 140.43,92.72 134.84,91.15 139.61,87.67 141.63,85.28 142.8,83.9 145.33,80.42 145.47,79.52 146.3,74.32 148.62,67.43 149.07,61.52 149.36,57.72 149.75,57.05 150.99,54.32 148.71,53.76 148.01,50.64 149.55,48.8 149.14,48.26 148.1,48.34 147.87,47.6 147.64,45.37 148.92,44.65 149.79,43.52 151.42,43.28 153.02,42.79 153.87,43.04 156.21,42.72 156.31,45.18 155.55,46.64 L 155.55,46.88 C 155.01,47.65 153.24,49.27 154.83,50 L 154.83,50.24 C 155.84,53.32 153.48,54.92 152.43,56.72 153.74,60.01 154.17,68.42 153.15,73.28 154.39,72.68 153.68,70.13 156.03,70.64 156.67,72.31 155.23,73.56 155.07,75.2 155.94,75.5 157.1,74.03 157.71,73.28 157.71,72.41 156.46,72.77 156.75,71.6 158.56,67.81 161.62,65.27 164.91,62.96 165.56,61.93 165.67,60.36 167.55,60.56 167.36,62.33 166.21,65.05 164.91,67.04 163.62,69.02 161.56,70.54 160.11,72.08 159.3,77.43 155.71,80 153.63,84.08 155.82,84.34 157.16,82.34 158.67,80.96 160.94,78.89 163.67,77.21 165.87,74.96 164.91,78.42 161,80.13 160.83,83.6 165.81,81.14 167.85,75.74 171.39,71.84 L 172.83,71.84 C 174.72,68.85 176.33,65.58 179.79,64.16 179.65,66.26 178.76,67.61 177.63,68.72 180.36,67.72 180.69,63.71 182.43,61.04 183.54,59.34 185.44,58.74 186.03,56.96 185.51,56.68 184.76,58.24 183.63,58.16 183.95,55.83 185.78,55.03 187.47,54.08 188.66,51.1 190.69,48.97 192.51,46.64 193.41,45.61 194.05,44.34 194.19,42.56 194.78,39.79 196.42,38.07 197.55,35.84 195.69,32.33 197.79,26.74 200.91,25.28 201.31,24.23 201.67,23.15 201.87,21.92 203.83,20.92 205.57,19.7 208.35,19.52 208.57,19.63 208.78,19.73 208.83,20 207.05,22.95 211.02,23.89 212.19,26 212.23,26.93 213.17,26.95 213.39,27.68 215.51,30.26 216.76,35.24 215.55,39.68 215.65,41.3 215.41,42.57 214.83,43.52 216.33,41.74 217.01,39.14 216.99,35.84 217.81,31.71 215.83,26.96 215.79,22.16 216.19,21.12 217.22,20.71 217.95,20 218.16,18.51 217.58,17.81 217.23,16.88 215.74,17.24 214.61,17.5 213.39,16.64 L 213.39,16.4 C 212.69,15.1 211.98,13.82 210.75,13.04 208.99,11.53 207.96,9.28 204.99,8.96 203.95,8.4 203.27,7.48 202.35,6.8 200.51,6 198.92,4.96 196.35,4.88 194,4.37 192.31,6.6 189.63,6.56 L 189.39,6.56 C 187.54,7.03 184.69,6.5 183.15,7.28 L 182.43,7.28 C 181.2,7.32 180.41,7.82 179.79,8.48 178.86,8.42 178.55,9 177.87,9.2 177.38,9.27 177.4,9.85 176.91,9.92 177.49,9.91 179.37,10.38 178.35,11.84 176.56,12.52 175.63,14.08 174.03,14.96 L 173.31,14.96 C 172.77,14.44 173.51,14.14 173.31,13.28 173.44,13.09 173.56,12.89 173.55,12.56 173.77,12.45 173.98,12.35 174.03,12.08 172.37,12.82 171.01,13.86 169.47,14.72 168.74,14.55 168.77,15.13 168.03,14.96 166.88,15.31 167.81,13.58 166.83,13.76 165.89,14.19 166.84,15.04 166.59,16.16 165.71,17.75 163.57,18.1 163.47,20.48 163.52,20.68 163.38,20.71 163.23,20.72 161.49,19.69 160.23,22.24 157.95,22.16 156.92,21.81 158.62,20.35 158.91,19.76 154,21.25 152.11,25.76 147.87,27.92 145.26,30.11 142.33,31.97 139.47,33.92 138.81,34.38 138.25,34.94 137.79,35.6 139.32,35.62 139.97,34.43 141.15,35.36 L 141.15,36.8 141.15,37.04 C 139.59,38.08 136.3,43.06 134.91,38.48 133.02,39.86 130.92,43.35 127.95,42.08 L 127.95,40.88 C 131.27,38.57 133.26,33.41 138.03,31.76 138.78,31.5 139.7,31.61 140.43,31.28 142.7,30.27 143.61,27.74 145.47,26.48 146.16,26.01 147.18,25.95 147.87,25.52 150.21,24.08 152.13,21.21 153.87,19.04 154.74,17.96 156.05,17.48 157.23,16.4 158.84,14.93 159.81,12.92 161.31,11.6 164.04,9.2 168.4,8.05 171.87,6.08 173.97,4.89 175.28,3.67 177.39,2.96 180.19,2.02 182.89,1.65 186.99,1.28 189.36,1.06 192.19,-0.08 194.43,0.32 195.49,0.51 196.52,1.7 197.55,2 200.59,2.87 204.6,2.07 207.39,3.68 207.96,4 208.16,4.8 208.59,5.12 209.73,5.98 211.52,5.97 212.19,7.52 213.37,7.42 215.03,7.93 216.03,8.72 219.54,11.49 223.03,18.55 220.11,21.92 L 219.87,21.92 C 219.85,22.54 218.94,22.26 218.91,22.88 219.64,22.95 219.24,24.15 219.87,24.32 220.52,26.88 220.69,29.9 222.03,31.76 223.05,38.31 219.17,41.12 216.51,44.96 215.39,46.58 213.28,50.69 211.71,50.72 208.26,50.79 210.11,43.91 211.23,41.84 212,40.51 211.02,38.86 210.51,38 210.63,36.6 210.44,35.51 210.03,34.64 208.25,37.42 206.66,40.39 202.35,40.64 200.4,43.17 199.4,46.65 194.91,46.64 192.61,50.5 191.35,57.08 188.43,60.8 187.82,61.59 186.66,61.94 186.03,62.72 183.93,65.33 183.88,69.45 180.99,71.6 179.69,77.76 175.55,82.16 173.55,87.68 172.85,89.62 172.2,91.52 170.67,93.2 169.81,94.15 168.37,94.82 167.55,96.08 166.04,98.4 165.23,100.73 163.47,102.08 161.64,103.49 159.32,104.23 157.47,105.68 154.19,108.25 151.83,110.07 149.07,113.36 148.12,114.5 146.7,115.49 145.95,116.48 145.43,117.18 145.38,118.03 144.75,118.64 143.74,119.62 141.92,120.32 140.43,121.52 139.24,122.49 138.26,123.75 136.83,124.88 135.86,125.65 132.8,127 132.75,127.52 132.59,129.2 138.67,129.91 137.07,132.56 139.47,132.4 140.46,133.66 141.63,134.72 141.96,134.19 140.85,132.57 141.87,131.84 145.14,130.62 147.49,134.19 150.03,135.2 152.66,136.25 155.14,136.38 156.27,139.04 156.86,140.4 156.84,142.17 156.99,144.32 153.6,145.03 152.94,141.05 150.27,140.24 153.03,142.34 155.74,152.57 150.27,154.4 150.27,154.17 149.98,154.21 149.79,154.16 148.73,153.22 149.77,152.04 149.55,151.04 148.64,146.83 144.56,144.47 142.83,140.96 140.82,140.65 139.1,140.06 137.79,139.04 135.48,140.46 134.72,145.15 131.79,145.28 130.27,145.35 128.53,143.5 128.19,142.4 127.18,139.14 130.22,135.47 132.51,134.24 131.14,132.26 129.75,130.77 126.99,130.64 124.66,130.53 122.13,131.89 121.23,129.2 117.73,131.54 112.81,132.46 110.43,135.92 111.55,138.16 109.59,139.56 109.47,141.92 108.69,142.06 108.36,141.76 107.79,141.68 109.39,145.2 113.01,146.7 115.23,149.6 115.51,150.35 114.86,150.18 114.75,150.56 118.27,152.55 123,150.7 126.03,153.44 126.38,152.79 123.58,152.14 124.59,150.8 127.23,150.44 130.19,153.01 129.15,156.32 127.92,157.27 127.94,154.87 126.99,155.6 126.87,157.78 129.29,159.86 128.91,163.52 128.77,164.91 126.9,170.19 125.79,170.24 123.88,170.33 124.42,166.86 123.87,165.2 123.25,163.28 122.35,162.83 121.95,161.36 120.32,160.11 119.21,158.34 117.15,157.52 115.57,158.15 116.35,160.24 115.47,161.6 114.41,163.25 112.15,163.89 110.19,162.56 109.79,159.56 109.74,156.63 109.47,153.68 108.59,152.56 107.38,151.78 106.59,150.56 101.72,150.47 100.87,146.36 97.71,144.56 97.51,144.37 97.57,143.9 97.23,143.84 95.57,146.26 94.35,149.12 92.67,151.52 Z M 92.67,151.52" />
        <path id="ca3-bezier1074" fill-rule="evenodd" stroke="none" fill="rgb(192, 192, 192)" d="M 97.71,144.56 C 96.08,146.93 94.56,149.41 92.67,151.52 94.35,149.12 95.57,146.26 97.23,143.84 97.57,143.9 97.51,144.37 97.71,144.56 Z M 97.71,144.56" />
        <path id="ca3-bezier1075" fill-rule="evenodd" stroke="none" fill="rgb(192, 192, 192)" d="M 40.83,224.72 C 42.49,220.96 45.06,218.89 47.55,216.08 49.14,214.28 50.37,212.19 51.87,210.32 52.56,209.47 53.61,209.03 54.27,208.16 58.35,202.83 61.03,196.27 64.59,190.4 65.65,188.66 66.85,186.84 67.95,185.12 69.12,183.29 70.12,181.14 71.31,179.6 71.99,178.73 73.2,178.5 73.95,177.68 76.74,174.63 77.34,169.65 80.67,167.36 79.14,169.7 78.7,172.62 77.31,175.04 76.36,176.69 74.71,177.95 73.71,179.6 71.66,183 70.31,187.31 67.95,190.16 66.75,191.62 65.21,192.78 64.11,194.48 63.66,195.19 63.61,196.14 63.15,196.88 62.6,197.77 61.52,198.4 60.99,199.28 57.97,204.36 55.99,209.85 52.11,214.4 47.9,217.38 45.08,221.77 40.83,224.72 Z M 40.83,224.72" />
        <path id="ca3-bezier1076" fill-rule="evenodd" stroke="none" fill="rgb(192, 192, 192)" d="M 21.63,211.76 C 24.16,206.32 29.65,203.09 32.91,198.08 34.51,195.63 35.53,192.91 37.23,190.4 38.83,188.04 40.41,185.66 42.27,183.44 35.87,192.08 31.54,202.79 24.75,211.04 34.86,203.63 40.03,190 48.27,181.52 46.53,183.3 46.26,186.54 43.95,187.76 45.7,190.28 41.43,191.12 40.11,193.04 39.03,194.61 38.7,196.81 37.71,198.56 33.38,206.28 26.85,213.75 22.35,219.92 22.41,219.14 22.07,218.77 21.39,218.72 19.5,219.23 18.72,220.85 17.31,221.84 16,217.55 20.94,215.62 21.63,211.76 Z M 21.63,211.76" />
        <path id="ca3-bezier1077" fill-rule="evenodd" stroke="none" fill="rgb(192, 192, 192)" d="M 50.91,151.76 C 47.85,153.82 44.91,156 42.75,158.96 44.65,155.74 47.63,153.6 50.91,151.76 Z M 50.91,151.76" />
        <path id="ca3-bezier1078" fill-rule="evenodd" stroke="none" fill="rgb(192, 192, 192)" d="M 56.43,148.64 C 57.29,147.58 58.25,146.62 59.31,145.76 58.45,146.82 57.49,147.78 56.43,148.64 Z M 56.43,148.64" />
        <path id="ca3-bezier1079" fill-rule="evenodd" stroke="none" fill="rgb(192, 192, 192)" d="M 59.55,145.76 C 61.57,143.22 64.51,141.6 66.99,139.52 64.74,141.82 61.81,143.46 59.55,145.76 Z M 59.55,145.76" />
        <path id="ca3-bezier1080" fill-rule="evenodd" stroke="none" fill="rgb(192, 192, 192)" d="M 67.23,139.52 C 67.37,139.17 67.61,138.93 67.95,138.8 66.71,139.16 64.96,141.09 63.15,141.68 65.76,139.6 69.3,137.84 71.79,135.44 73.51,133.79 75.68,131.72 75.87,129.2 75.11,128.33 73.98,129 73.23,129.44 73.34,129.15 73.54,128.95 73.95,128.96 71.4,127.93 69.42,131.19 67.23,132.08 68.16,130.74 71.08,130.21 70.35,128 67.45,127.6 65.29,129.96 63.15,131.12 64.48,129.1 67.4,127.63 66.51,124.16 66.83,124.08 66.89,123.74 67.23,123.68 68.14,124.35 69.15,123.47 70.35,123.68 70.81,122.55 69.25,122.18 70.83,121.52 71.52,124.15 75.33,123.5 77.31,122.48 76.23,124.25 71.96,124.64 72.27,127.04 72.57,129.31 76.1,128.51 77.79,127.28 78.47,128.2 80.27,128 81.87,128 77.23,132.08 71.68,135.25 67.23,139.52 Z M 67.23,139.52" />
        <path id="ca3-bezier1081" fill-rule="evenodd" stroke="none" fill="rgb(255, 255, 255)" d="M 64.83,133.76 C 65.73,133.29 66.19,132.4 67.23,132.08 69.42,131.19 71.4,127.93 73.95,128.96 73.54,128.95 73.34,129.15 73.23,129.44 73.13,129.9 73.15,130.47 72.51,130.4 71.05,131.66 69.69,133.02 68.43,134.48 67.87,134.55 67.99,135.31 67.23,135.2 65.75,136.28 64.28,137.36 62.91,138.56 L 62.67,138.56 C 60.98,139.67 59.25,140.74 57.87,142.16 57.04,142.69 56.22,143.22 55.23,143.6 51.53,145.42 49.26,148.67 46.35,151.28 45.61,151.82 44.79,152.28 43.71,152.48 43.66,151.62 45.57,150.66 46.11,149.6 L 46.35,149.6 C 47.49,148.66 48.53,147.62 49.47,146.48 49.49,146.33 49.51,146.2 49.71,146.24 50.57,145.01 51.94,144.3 52.83,143.12 54.08,142.21 55.12,141.09 56.67,140.48 59.77,138.62 62.03,135.92 64.83,133.76 Z M 64.83,133.76" />
        <path id="ca3-bezier1082" fill-rule="evenodd" stroke="none" fill="rgb(192, 192, 192)" d="M 56.67,140.48 C 59.55,138.4 61.82,135.71 64.83,133.76 62.03,135.92 59.77,138.62 56.67,140.48 Z M 56.67,140.48" />
        <path id="ca3-bezier1083" fill-rule="evenodd" stroke="none" fill="rgb(192, 192, 192)" d="M 49.71,146.24 C 50.3,144.74 51.76,144.13 52.83,143.12 51.94,144.3 50.57,145.01 49.71,146.24 Z M 49.71,146.24" />
        <path id="ca3-bezier1084" fill-rule="evenodd" stroke="none" fill="rgb(192, 192, 192)" d="M 46.35,149.6 C 47.29,148.46 48.33,147.42 49.47,146.48 48.53,147.62 47.49,148.66 46.35,149.6 Z M 46.35,149.6" />
        <path id="ca3-bezier1085" fill-rule="evenodd" stroke="none" fill="rgb(192, 192, 192)" d="M 43.71,152.48 C 43.23,152.88 42.82,153.35 42.03,153.44 43.36,152.13 44.73,150.85 46.11,149.6 45.57,150.66 43.66,151.62 43.71,152.48 Z M 43.71,152.48" />
        <path id="ca3-bezier1086" fill-rule="evenodd" stroke="none" fill="rgb(192, 192, 192)" d="M 46.35,151.28 C 49.26,148.67 51.53,145.42 55.23,143.6 51.79,145.68 49.45,148.86 46.35,151.28 Z M 46.35,151.28" />
        <path id="ca3-bezier1087" fill-rule="evenodd" stroke="none" fill="rgb(192, 192, 192)" d="M 57.87,142.16 C 59.25,140.74 60.98,139.67 62.67,138.56 61.27,139.96 59.44,140.93 57.87,142.16 Z M 57.87,142.16" />
        <path id="ca3-bezier1088" fill-rule="evenodd" stroke="none" fill="rgb(192, 192, 192)" d="M 62.91,138.56 C 64.28,137.37 65.75,136.28 67.23,135.2 66.01,136.53 64.51,137.6 62.91,138.56 Z M 62.91,138.56" />
        <path id="ca3-bezier1089" fill-rule="evenodd" stroke="none" fill="rgb(192, 192, 192)" d="M 68.43,134.48 C 69.69,133.02 71.05,131.66 72.51,130.4 71.25,131.86 69.89,133.22 68.43,134.48 Z M 68.43,134.48" />
        <path id="ca3-bezier1090" fill-rule="evenodd" stroke="none" fill="rgb(192, 192, 192)" d="M 49.71,150.32 C 50.65,149.18 51.69,148.14 52.83,147.2 51.89,148.34 50.85,149.38 49.71,150.32 Z M 49.71,150.32" />
        <path id="ca3-bezier1091" fill-rule="evenodd" stroke="none" fill="rgb(192, 192, 192)" d="M 42.27,156.8 C 43.92,155.01 45.93,153.58 47.79,152 46.14,153.79 44.15,155.23 42.27,156.8 Z M 42.27,156.8" />
        <path id="ca3-bezier1092" fill-rule="evenodd" stroke="none" fill="rgb(192, 192, 192)" d="M 124.11,49.04 C 121.56,52.41 116.73,54.26 113.55,57.44 111.32,59.67 110.14,62.89 108.03,64.64 106.56,65.86 104.68,66.31 103.95,68.24 104.93,66.38 106.31,65.08 107.55,63.2 108.23,62.18 108.78,60.81 109.47,60.08 111.18,58.29 114.79,57.67 114.75,54.32 114.37,53.83 113.55,53.76 112.59,53.84 112.97,53.26 113.45,52.78 114.03,52.4 113.92,53.15 114.33,53.38 114.75,53.6 118.07,52.2 120.34,49.74 124.11,48.8 L 124.11,49.04 Z M 124.11,49.04" />
        <path id="ca3-bezier1093" fill-rule="evenodd" stroke="none" fill="rgb(192, 192, 192)" d="M 99.15,74.72 C 101.05,72.93 102.08,70.29 103.95,68.48 102.36,70.57 101.28,73.17 99.15,74.72 Z M 99.15,74.72" />
        <path id="ca3-bezier1094" fill-rule="evenodd" stroke="none" fill="rgb(192, 192, 192)" d="M 96.27,78.56 C 96.87,77 98.16,76.13 99.15,74.96 98.36,76.33 97.1,77.23 96.27,78.56 Z M 96.27,78.56" />
        <path id="ca3-bezier1095" fill-rule="evenodd" stroke="none" fill="rgb(192, 192, 192)" d="M 95.79,79.76 C 95.31,80.52 96.36,82.27 95.31,82.88 96.03,81.88 94.85,80.26 95.79,79.76 Z M 95.79,79.76" />
        <path id="ca3-bezier1096" fill-rule="evenodd" stroke="none" fill="rgb(192, 192, 192)" d="M 95.31,83.12 C 94.95,84.12 94.63,85.16 93.87,85.76 94.38,84.91 94.67,83.83 95.31,83.12 Z M 95.31,83.12" />
        <path id="ca3-bezier1097" fill-rule="evenodd" stroke="none" fill="rgb(192, 192, 192)" d="M 97.71,89.84 C 98.43,89.19 99.5,88.91 100.35,88.4 99.75,89.16 98.71,89.48 97.71,89.84 Z M 97.71,89.84" />
        <path id="ca3-bezier1098" fill-rule="evenodd" stroke="none" fill="rgb(192, 192, 192)" d="M 92.67,95.36 C 93.18,94.27 95.22,92.97 93.87,91.52 94.72,91.56 94.66,90.71 95.31,90.56 95.1,90.98 94.78,91.3 94.35,91.52 95.07,93.27 93.62,94.51 92.67,95.36 Z M 92.67,95.36" />
        <path id="ca3-bezier1099" fill-rule="evenodd" stroke="none" fill="rgb(192, 192, 192)" d="M 93.87,96.08 C 94.13,95.61 95.86,95.67 95.55,96.56 96.56,96.26 95.53,95.58 95.55,94.88 96.04,94.17 96.7,93.63 97.47,93.2 97.23,93.84 96.5,93.99 96.03,94.4 95.87,95.61 96.58,96.22 95.79,96.8 95.33,96.39 95.02,95.82 93.87,96.08 Z M 93.87,96.08" />
        <path id="ca3-bezier1100" fill-rule="evenodd" stroke="none" fill="rgb(192, 192, 192)" d="M 97.71,93.2 C 99.08,92.17 100.64,90.05 100.59,88.4 102.57,87.38 107.39,85.85 103.71,83.36 104.71,83.48 104.92,84.39 105.39,85.04 107.68,84.14 110.97,82.18 110.43,80 110.16,79.95 110.3,79.76 110.43,79.76 L 110.43,80 C 111.74,82.27 114.15,79.89 115.23,79.04 113.57,80.81 111.08,81.76 111.15,85.28 110.08,86.12 110.67,88.64 109.23,89.12 110.76,88 109.67,85.97 108.03,85.76 104.34,85.29 99.98,92.1 97.71,93.2 Z M 97.71,93.2" />
        <path id="ca3-bezier1101" fill-rule="evenodd" stroke="none" fill="rgb(192, 192, 192)" d="M 94.11,107.36 C 94.56,106.89 94.19,105.88 93.87,105.44 93.14,105.96 93.73,106.69 94.11,107.36 Z M 95.55,104.24 C 95.37,104.43 94.99,104.43 94.83,104.96 96.94,103.83 97.37,102.36 95.55,104.24 Z M 98.43,101.12 C 95.7,104.14 99.58,100.96 99.63,100.16 99,100.7 98.8,100.72 98.43,101.12 Z M 106.35,93.44 C 102.18,97.27 99.07,102.16 94.35,105.44 94.42,106.5 94.95,107.51 93.63,107.6 93.77,106.74 93.35,106.44 93.15,105.92 100.22,102.1 101.44,92.45 108.99,89.12 107.38,89.99 106.73,91.82 105.87,93.44 105.92,93.71 106.11,93.57 106.11,93.44 L 106.35,93.44 Z M 106.35,93.44" />
        <path id="ca3-bezier1102" fill-rule="evenodd" stroke="none" fill="rgb(192, 192, 192)" d="M 111.15,89.84 C 110.05,90.98 108.82,91.99 107.79,93.2 108.54,91.71 109.88,90.81 111.15,89.84 Z M 111.15,89.84" />
        <path id="ca3-bezier1103" fill-rule="evenodd" stroke="none" fill="rgb(255, 255, 255)" d="M 114.99,87.92 C 113.57,88.41 112.45,89.22 111.15,89.84 109.88,90.81 108.54,91.71 107.79,93.2 107.81,94.28 107.07,93.1 106.35,93.44 L 106.11,93.44 C 106.11,93.57 105.92,93.71 105.87,93.44 106.73,91.82 107.38,89.99 108.99,89.12 L 109.23,89.12 C 110.67,88.64 110.08,86.12 111.15,85.28 111.08,81.76 113.57,80.82 115.23,79.04 L 115.47,79.04 C 116.18,79.25 114.92,79.4 115.23,80 L 115.23,80.48 115.23,80.96 C 115.77,82.44 118.11,81.88 118.59,80.72 118.39,82.2 115.85,83.41 114.99,85.04 115.66,85.57 116.16,86.27 115.95,87.68 115.59,87.72 115.07,87.59 114.99,87.92 Z M 114.99,87.92" />
        <path id="ca3-bezier1104" fill-rule="evenodd" stroke="none" fill="rgb(192, 192, 192)" d="M 153.87,43.04 C 154.51,42.27 155.41,43.24 155.79,43.52 157.24,42.81 159.72,40.65 161.07,42.08 159.05,43.42 156.76,44.49 155.55,46.64 156.31,45.18 156.21,42.72 153.87,43.04 Z M 153.87,43.04" />
        <path id="ca3-bezier1105" fill-rule="evenodd" stroke="none" fill="rgb(192, 192, 192)" d="M 155.55,46.88 C 155.35,47.71 154.8,48.21 154.35,48.8 154.32,49.4 154.73,49.54 154.83,50 153.24,49.27 155.01,47.65 155.55,46.88 Z M 155.55,46.88" />
        <path id="ca3-bezier1106" fill-rule="evenodd" stroke="none" fill="rgb(192, 192, 192)" d="M 161.31,72.56 C 162.65,76.48 165.47,72.77 166.59,71.36 168.08,69.48 169.95,67.16 170.19,64.88 170.14,64.61 169.93,64.51 169.71,64.4 166.11,66.32 164.65,70.38 161.31,72.56 Z M 156.99,61.76 C 156.79,62.92 157.22,63.46 157.47,64.16 157.12,65.06 156.25,65.98 156.75,67.04 158.81,67.42 158.31,65.24 159.15,64.4 162.38,63.86 162.58,60.3 164.19,58.16 161.19,54.79 159.47,60.85 156.99,61.76 Z M 173.07,54.32 C 171.9,56.68 169.19,58.74 169.47,61.76 171.71,59.84 174.13,58.09 174.75,54.56 174.44,54.23 173.71,54.32 173.07,54.32 Z M 179.55,52.64 C 177.57,55.14 174.94,56.99 174.03,60.56 176.91,58.8 179.73,56.98 180.27,52.88 179.97,52.87 179.94,52.57 179.55,52.64 Z M 162.99,56 C 165.55,55.34 167.64,52.98 167.79,50.72 165.67,51.02 163.56,53.35 162.99,56 Z M 184.35,52.88 C 186.38,52.01 189.12,49.61 187.95,47.12 185.43,47.58 184.23,50.58 184.35,52.88 Z M 180.51,51.44 C 182.2,52 183.36,48.98 184.59,47.6 185.45,46.64 186.83,46.55 186.27,44.72 181.96,41.79 181.07,49.08 180.51,51.44 Z M 178.59,49.52 C 179.97,49.62 179.85,48.22 180.27,47.36 181.21,45.98 183.23,44.66 182.91,42.8 179.75,42.38 179.07,46.47 178.59,49.52 Z M 177.87,43.52 C 179.12,42.37 179.42,40.27 180.51,38.96 178.28,38.07 178.01,42.32 177.87,43.52 Z M 183.63,32.24 C 181.97,33.82 179.17,36.41 179.79,38.48 181.41,39.05 182.03,37.42 183.15,36.8 185.65,35.27 189.49,33.9 188.91,30.08 186.94,29.34 184.93,31.01 183.63,32.24 Z M 178.11,32.48 C 178.38,32.53 178.49,32.75 178.59,32.96 180.38,33.31 180.12,31.61 181.23,31.28 183.15,30.16 185.15,29.12 186.03,26.96 183,24.25 179.2,30.29 178.11,32.48 Z M 174.75,64.64 C 170.89,65.72 169.42,69.53 167.55,72.08 171.23,74.89 174.31,67.93 174.75,64.64 Z M 154.83,50.24 C 155.65,51.08 158.13,50.02 158.91,49.28 159.05,50.06 157.82,51.54 157.47,52.64 157.56,53.35 157.89,53.82 158.43,54.08 162.59,53.28 168.23,49.93 166.11,45.92 166.52,44.64 168.01,44.46 168.51,43.28 168.69,44.64 166.54,47.81 168.99,48.32 170.72,48.68 177.63,40.4 173.79,39.44 172.31,39.07 171.9,40.73 170.43,41.36 170.79,40.68 172.86,36.06 169.23,36.56 170.66,34.95 169.75,31.43 167.07,32.72 167.01,31.85 169.03,31 169.47,29.84 169.69,29.18 168.98,27.59 169.95,27.68 170.75,27.01 170.21,29.2 171.15,29.12 172.78,28.83 174.07,28.19 175.47,27.68 175.06,29.11 173.44,29.33 172.83,30.56 172.94,31.42 173.44,31.88 174.03,32.24 175.9,31.45 186.75,25.79 182.19,23.12 184.4,21.88 184.66,18.7 186.03,16.64 186.82,16.52 186.54,17.83 187.23,17.12 187.17,18.65 188.86,18.47 189.39,17.6 189.26,17.95 189.02,18.19 188.67,18.32 188.57,18.71 189.57,19.13 189.63,18.56 190.99,20.86 195.84,20.54 197.31,18.56 197.23,18.87 196.89,18.94 196.83,19.28 198.67,17.91 200.6,16.64 201.63,14.48 203.45,16.58 206.06,17.89 208.35,19.52 205.57,19.7 203.83,20.92 201.87,21.92 201.67,23.16 201.31,24.23 200.91,25.28 197.79,26.74 195.69,32.33 197.55,35.84 196.42,38.07 194.78,39.79 194.19,42.56 L 193.95,42.56 C 193.58,44.03 192.75,45.04 192.51,46.64 190.69,48.97 188.66,51.1 187.47,54.08 185.78,55.03 183.95,55.83 183.63,58.16 184.76,58.24 185.51,56.68 186.03,56.96 185.44,58.74 183.54,59.34 182.43,61.04 180.69,63.71 180.36,67.72 177.63,68.72 178.76,67.61 179.65,66.26 179.79,64.16 176.33,65.58 174.72,68.85 172.83,71.84 L 171.39,71.84 C 167.85,75.74 165.81,81.14 160.83,83.6 161,80.13 164.91,78.42 165.87,74.96 163.67,77.21 160.94,78.89 158.67,80.96 157.16,82.34 155.82,84.34 153.63,84.08 155.71,80 159.3,77.43 160.11,72.08 161.56,70.54 163.62,69.03 164.91,67.04 166.21,65.05 167.36,62.33 167.55,60.56 165.67,60.36 165.56,61.93 164.91,62.96 161.62,65.27 158.56,67.81 156.75,71.6 156.46,72.77 157.71,72.41 157.71,73.28 157.1,74.03 155.94,75.5 155.07,75.2 155.23,73.57 156.67,72.31 156.03,70.64 153.68,70.13 154.39,72.68 153.15,73.28 154.17,68.43 153.74,60.01 152.43,56.72 153.48,54.92 155.84,53.32 154.83,50.24 Z M 154.83,50.24" />
        <path id="ca3-bezier1107" fill-rule="evenodd" stroke="none" fill="rgb(192, 192, 192)" d="M 208.83,20 C 210.48,21.47 210.67,24.4 212.19,26 211.02,23.89 207.05,22.95 208.83,20 Z M 208.83,20" />
        <path id="ca3-bezier1108" fill-rule="evenodd" stroke="none" fill="rgb(192, 192, 192)" d="M 213.39,27.68 C 218,27.6 214.91,18.66 213.39,16.64 214.61,17.5 215.74,17.24 217.23,16.88 217.58,17.81 218.16,18.51 217.95,20 217.22,20.71 216.19,21.12 215.79,22.16 215.83,26.96 217.81,31.71 216.99,35.84 216.43,37.03 216.49,38.86 215.55,39.68 216.76,35.24 215.51,30.26 213.39,27.68 Z M 213.39,27.68" />
        <path id="ca3-bezier1109" fill-rule="evenodd" stroke="none" fill="rgb(192, 192, 192)" d="M 210.75,13.04 C 211.98,13.82 212.69,15.1 213.39,16.4 212.4,15.39 211.81,13.98 210.75,13.04 Z M 210.75,13.04" />
        <path id="ca3-bezier1110" fill-rule="evenodd" stroke="none" fill="rgb(192, 192, 192)" d="M 202.35,6.8 C 203.27,7.48 203.95,8.4 204.99,8.96 203.67,8.68 203.12,7.63 202.35,6.8 Z M 202.35,6.8" />
        <path id="ca3-bezier1111" fill-rule="evenodd" stroke="none" fill="rgb(192, 192, 192)" d="M 189.63,6.56 C 192.31,6.6 194,4.37 196.35,4.88 193.59,4.91 192.77,6.9 189.63,6.56 Z M 189.63,6.56" />
        <path id="ca3-bezier1112" fill-rule="evenodd" stroke="none" fill="rgb(192, 192, 192)" d="M 183.15,7.28 C 184.69,6.5 187.54,7.03 189.39,6.56 187.91,7.4 185.06,6.87 183.15,7.28 Z M 183.15,7.28" />
        <path id="ca3-bezier1113" fill-rule="evenodd" stroke="none" fill="rgb(192, 192, 192)" d="M 179.79,8.48 C 180.41,7.82 181.2,7.33 182.43,7.28 181.55,7.67 180.76,8.17 179.79,8.48 Z M 179.79,8.48" />
        <path id="ca3-bezier1114" fill-rule="evenodd" stroke="none" fill="rgb(192, 192, 192)" d="M 178.35,11.84 C 179.37,10.38 177.49,9.91 176.91,9.92 177.4,9.85 177.38,9.27 177.87,9.2 177.83,9.4 177.63,9.44 177.63,9.68 177.93,10.03 178.55,10.04 178.83,10.4 178.83,11.04 178.97,11.81 178.35,11.84 Z M 178.35,11.84" />
        <path id="ca3-bezier1115" fill-rule="evenodd" stroke="none" fill="rgb(192, 192, 192)" d="M 173.31,13.28 C 173.51,14.14 172.77,14.44 173.31,14.96 L 174.03,14.96 C 173.74,15.69 173.12,14.79 172.83,14.72 173.05,14.3 172.92,13.52 173.31,13.28 Z M 173.31,13.28" />
        <path id="ca3-bezier1116" fill-rule="evenodd" stroke="none" fill="rgb(192, 192, 192)" d="M 173.55,12.56 C 172.07,13.16 171.15,14.32 169.47,14.72 171.01,13.86 172.37,12.82 174.03,12.08 173.98,12.35 173.77,12.45 173.55,12.56 Z M 173.55,12.56" />
        <path id="ca3-bezier1117" fill-rule="evenodd" stroke="none" fill="rgb(192, 192, 192)" d="M 168.03,14.96 C 166.48,16.77 164.48,18.13 163.47,20.48 163.57,18.1 165.71,17.75 166.59,16.16 166.84,15.04 165.89,14.19 166.83,13.76 167.81,13.58 166.88,15.31 168.03,14.96 Z M 168.03,14.96" />
        <path id="ca3-bezier1118" fill-rule="evenodd" stroke="none" fill="rgb(192, 192, 192)" d="M 197.55,17.84 C 197.49,17.45 197.78,17.43 197.79,17.12 196.95,17.08 197,17.93 196.35,18.08 196.6,17.45 197.3,17.27 197.55,16.64 198.28,16.71 198,17.65 197.55,17.84 Z M 197.55,17.84" />
        <path id="ca3-bezier1119" fill-rule="evenodd" stroke="none" fill="rgb(192, 192, 192)" d="M 195.63,15.2 C 196.73,14.15 195.35,12.59 195.39,11.12 194.7,10.37 193.6,10.03 192.51,9.68 195.57,9.37 196.78,13.11 195.87,15.2 L 195.63,15.2 Z M 195.63,15.2" />
        <path id="ca3-bezier1120" fill-rule="evenodd" stroke="none" fill="rgb(192, 192, 192)" d="M 188.67,15.2 C 187.99,13.12 188.63,10.6 190.35,10.16 188.07,11.07 188.04,16.08 190.83,16.4 190.27,16.6 189.8,15.56 189.63,16.16 189.21,15.94 189.24,15.28 188.67,15.2 Z M 188.67,15.2" />
        <path id="ca3-bezier1121" fill-rule="evenodd" stroke="none" fill="rgb(255, 255, 255)" d="M 175.95,18.56 C 176.82,18.54 178.44,17.56 177.39,17.12 177.28,17.97 176.1,17.75 175.95,18.56 Z M 174.75,16.16 C 176.29,15.83 179.71,15.37 179.79,12.8 177.97,13.78 175.38,13.98 174.75,16.16 Z M 188.67,15.2 C 187.59,15.24 187.64,16.41 187.23,17.12 186.54,17.83 186.82,16.52 186.03,16.64 184.66,18.7 184.4,21.88 182.19,23.12 186.75,25.79 175.89,31.45 174.03,32.24 173.43,31.88 172.93,31.42 172.83,30.56 173.44,29.33 175.06,29.11 175.47,27.68 174.06,28.19 172.78,28.83 171.15,29.12 170.21,29.2 170.75,27.01 169.95,27.68 168.98,27.59 169.69,29.18 169.47,29.84 169.03,31 167.01,31.85 167.07,32.72 169.75,31.43 170.65,34.95 169.23,36.56 172.86,36.06 170.79,40.68 170.43,41.36 171.9,40.73 172.31,39.07 173.79,39.44 177.63,40.4 170.72,48.68 168.99,48.32 166.54,47.81 168.69,44.64 168.51,43.28 168.01,44.46 166.52,44.64 166.11,45.92 168.23,49.93 162.59,53.28 158.43,54.08 157.89,53.82 157.56,53.35 157.47,52.64 157.82,51.54 159.05,50.06 158.91,49.28 158.13,50.02 155.65,51.08 154.83,50.24 L 154.83,50 C 154.73,49.54 154.32,49.4 154.35,48.8 154.8,48.21 155.35,47.71 155.55,46.88 L 155.55,46.64 C 156.76,44.49 159.05,43.42 161.07,42.08 159.72,40.65 157.24,42.81 155.79,43.52 155.41,43.24 154.51,42.27 153.87,43.04 153.02,42.79 151.42,43.28 149.79,43.52 149.15,42.87 149.85,41.51 150.03,40.88 150.3,39.67 154.45,39.55 151.71,38.24 152.07,36.99 152.68,36.01 153.39,35.12 153.53,34.3 154.2,34 154.11,32.96 154.18,32.57 153.89,32.55 153.87,32.24 152.38,32.82 151.36,33.89 150.27,34.88 149.78,34.97 148.7,35.68 148.35,35.12 149.37,34.46 150.5,33.91 150.75,32.48 150.6,31.67 149.6,31.71 148.59,31.76 148.25,31.71 148.51,31.04 148.11,31.04 148.32,30.54 149.78,30.79 150.03,31.04 L 150.99,31.04 C 152.07,30.68 152.55,29.71 154.11,29.84 156.54,26.18 160.61,24.18 163.23,20.72 163.38,20.71 163.52,20.68 163.47,20.48 164.48,18.13 166.48,16.77 168.03,14.96 168.77,15.13 168.74,14.55 169.47,14.72 171.15,14.32 172.07,13.16 173.55,12.56 173.56,12.89 173.44,13.09 173.31,13.28 172.91,13.52 173.05,14.3 172.83,14.72 173.12,14.79 173.74,15.69 174.03,14.96 175.63,14.08 176.56,12.52 178.35,11.84 178.97,11.81 178.83,11.04 178.83,10.4 178.55,10.04 177.93,10.03 177.63,9.68 177.63,9.44 177.83,9.4 177.87,9.2 178.55,9 178.86,8.42 179.79,8.48 180.76,8.16 181.55,7.67 182.43,7.28 L 183.15,7.28 C 185.06,6.87 187.91,7.4 189.39,6.56 L 189.63,6.56 C 192.77,6.9 193.59,4.91 196.35,4.88 198.92,4.96 200.51,6 202.35,6.8 203.12,7.63 203.67,8.68 204.99,8.96 207.96,9.28 208.98,11.53 210.75,13.04 211.81,13.99 212.4,15.39 213.39,16.4 L 213.39,16.64 C 214.91,18.66 217.99,27.6 213.39,27.68 213.17,26.95 212.22,26.93 212.19,26 210.67,24.4 210.48,21.47 208.83,20 208.78,19.73 208.57,19.63 208.35,19.52 206.06,17.89 203.45,16.58 201.63,14.48 200.6,16.64 198.67,17.91 196.83,19.28 196.89,18.94 197.23,18.87 197.31,18.56 197.24,18.17 197.54,18.15 197.55,17.84 198,17.65 198.28,16.71 197.55,16.64 197.3,17.27 196.6,17.45 196.35,18.08 195.88,18.4 195.21,18.54 194.67,18.8 193.51,18.16 191.63,17.1 189.87,17.84 189.94,18.23 189.65,18.25 189.63,18.56 189.57,19.13 188.57,18.71 188.67,18.32 189.02,18.19 189.26,17.95 189.39,17.6 189.22,16.87 189.81,16.89 189.63,16.16 189.8,15.56 190.27,16.61 190.83,16.4 192.49,16.34 194.8,16.65 195.63,15.2 L 195.87,15.2 C 196.78,13.11 195.57,9.37 192.51,9.68 191.51,9.55 191.17,10.1 190.35,10.16 188.63,10.6 187.99,13.12 188.67,15.2 Z M 188.67,15.2" />
        <path id="ca3-bezier1122" fill-rule="evenodd" stroke="none" fill="rgb(192, 192, 192)" d="M 153.39,35.12 C 152.68,36.01 152.07,36.99 151.71,38.24 151.47,37.35 152.5,35.67 153.39,35.12 Z M 153.39,35.12" />
        <path id="ca3-bezier1123" fill-rule="evenodd" stroke="none" fill="rgb(192, 192, 192)" d="M 150.27,34.88 C 151.37,33.89 152.38,32.82 153.87,32.24 153.89,32.55 154.18,32.57 154.11,32.96 153.88,32.95 153.93,32.67 153.87,32.48 151.86,32.67 152.3,35.11 150.99,35.12 151.16,34.56 151.79,34.48 151.95,33.92 151.17,34.01 150.89,34.62 150.27,34.88 Z M 150.27,34.88" />
        <path id="ca3-bezier1124" fill-rule="evenodd" stroke="none" fill="rgb(192, 192, 192)" d="M 148.35,39.68 C 148.74,39.19 150.64,37.18 149.55,37.52 149.72,37.26 150.35,36.28 150.51,36.8 149.99,37.96 149.42,39.06 148.35,39.68 Z M 148.35,39.68" />
        <path id="ca3-bezier1125" fill-rule="evenodd" stroke="none" fill="rgb(192, 192, 192)" d="M 135.87,93.44 C 133.18,98.34 128.61,101.37 125.55,105.92 126.86,106.61 127.88,104.92 128.67,104.24 131.66,101.68 135.11,99.34 136.59,95.6 137.1,95.07 138.17,95.09 138.03,93.92 137.65,93.43 136.83,93.36 135.87,93.44 Z M 140.67,74.24 C 139.54,75.82 137.81,76.82 136.59,78.32 138.65,79.47 139.78,76.26 141.39,75.44 141.32,76.01 140.56,75.89 140.67,76.64 142.41,76.69 142.93,75.53 143.31,74.24 144.49,72.83 146.79,71.8 146.67,69.68 146.58,67.91 144.76,66.77 142.83,67.76 141.01,68.7 140.45,73.32 139.47,74.96 139.77,75.55 140.17,74.24 140.67,74.24 Z M 134.91,66.32 C 136.29,66.26 136.94,65.47 136.83,63.92 135.16,63.69 134.81,64.78 134.91,66.32 Z M 134.91,73.76 C 134.68,72.44 136.26,72.89 136.83,72.32 137.61,71.55 139.49,68.47 139.47,68 139.42,66.88 138.69,66.03 137.31,66.08 134.88,66.17 132.15,72.13 133.71,74.24 134.27,74.32 134.63,74.2 134.91,74 133.83,75.57 131.67,77.29 131.31,78.8 134.36,79.11 136.6,75.31 136.59,72.56 135.4,72.33 135.64,73.53 134.91,73.76 Z M 144.03,41.12 C 144,41.72 143.99,42.29 144.51,42.32 146.1,41.11 147.33,39.54 148.83,38.24 147.63,39.6 146.55,41.08 144.99,42.08 145.93,42.69 147.39,41.77 147.87,41.12 147.4,41.57 147.76,42.25 147.87,42.8 149.36,42.93 149.13,41.33 150.03,40.88 149.85,41.51 149.15,42.87 149.79,43.52 148.92,44.65 147.64,45.37 147.87,47.6 148.1,48.34 149.14,48.26 149.55,48.8 148.01,50.64 148.71,53.76 150.99,54.32 149.75,57.05 149.36,57.72 149.07,61.52 148.62,67.43 146.3,74.32 145.47,79.52 145.33,80.42 142.8,83.9 141.63,85.28 139.61,87.67 134.84,91.15 140.43,92.72 136.39,98.36 131.95,103.87 126.75,108.56 122.37,112.52 116.08,113.83 111.87,118.4 111.4,119.05 112.12,120.89 110.67,120.56 110.77,118.82 112.01,118.21 112.35,116.72 112.46,116.06 111.46,116.5 111.39,116 112.67,114.64 114.59,113.91 114.51,111.2 117.38,110.71 118.54,106.99 121.23,109.04 123.21,108.36 124.63,106.48 125.79,104.72 126.89,103.05 128.63,101.04 128.43,98.96 127.09,97.91 126.35,99.36 125.55,100.16 125.26,99.42 124.82,98.81 123.87,98.72 122.12,99.45 121.65,101.46 119.79,102.08 120.74,100.31 121.63,98.47 121.95,96.08 127.06,94.39 130.07,90.6 131.55,85.28 131.24,84.95 130.51,85.04 129.87,85.04 130.56,84.68 130.7,83.78 130.59,82.64 128.3,82.59 127.57,84.1 127.47,86.24 128.45,86.1 128.61,85.14 129.63,85.04 128.35,85.84 127.43,87 126.27,87.92 123.53,85.32 120.31,88.67 118.59,90.08 118.71,87.83 116.89,87.54 114.99,87.92 115.07,87.59 115.59,87.72 115.95,87.68 116.16,86.27 115.66,85.57 114.99,85.04 115.85,83.42 118.39,82.2 118.59,80.72 118.11,81.88 115.77,82.44 115.23,80.96 L 115.23,80.48 C 117.79,84.17 122.47,76.4 123.87,74 123.91,74.99 123.33,75.38 122.91,75.92 124.2,75.29 126.12,73.21 127.71,72.08 125.46,74.95 121.52,76.12 120.75,80.48 120.97,80.59 121.18,80.69 121.23,80.96 120.06,80.71 119.11,85.66 120.51,86.48 122.36,85.61 128.62,81.43 126.03,79.52 127.13,81 129.41,79.79 130.35,78.32 131.64,76.3 133.68,72.57 132.75,71.84 129.66,72.83 128.73,75.98 126.51,77.84 127.41,76.58 127.94,74.95 128.67,73.52 128.82,74.12 133.28,68.99 131.55,66.8 131.17,66.78 130.64,66.92 130.59,66.56 L 131.79,66.56 C 132.38,64.99 133.79,64.24 133.95,62.24 131.66,61.58 130.63,64.18 129.87,65.84 130.01,63.44 127.96,64 126.99,65.6 127.77,64.19 129.91,62.95 129.39,61.04 128.34,60.86 128.41,61.82 127.71,62 129.15,60.79 130.53,58.26 132.03,57.92 131.62,59.44 131.21,61.16 132.75,61.76 133.77,61.82 134.65,61.74 134.91,61.04 135.29,61.46 135.23,62.32 135.39,62.96 135.59,63.89 137.1,63.5 137.31,64.4 140.87,64.45 142.01,61.49 144.03,58.64 145.75,56.22 148.24,54.87 147.63,51.92 147.36,50.59 145.95,49.78 144.51,49.52 143.63,46.8 141.34,45.5 138.03,45.2 141.29,44.38 140.45,40.39 136.59,40.64 133.24,40.86 129.17,45.38 127.23,45.92 127.16,46.65 127.5,47.79 126.75,47.84 127.11,47 127.03,45.71 127.23,44.72 124,42.6 121.85,46.11 119.55,47.12 121.85,44.54 124.46,42.27 127.95,40.88 L 127.95,42.08 C 130.92,43.35 133.02,39.86 134.91,38.48 136.3,43.06 139.59,38.08 141.15,37.04 138.99,39.17 139.91,43.89 143.79,42.56 144.36,42.3 143.28,41.46 144.03,41.12 Z M 144.03,41.12" />
        <path id="ca3-bezier1126" fill-rule="evenodd" stroke="none" fill="rgb(192, 192, 192)" d="M 142.59,40.16 C 144.37,39.69 145.45,37.26 146.67,37.04 145.8,37.85 145.37,39.09 144.51,39.92 144.64,39.56 144.87,39.31 144.99,38.96 143.91,39.08 143.95,40.32 142.59,40.16 Z M 142.59,40.16" />
        <path id="ca3-bezier1127" fill-rule="evenodd" stroke="none" fill="rgb(255, 255, 255)" d="M 141.39,38.24 C 141.37,39.09 140.5,39.11 140.67,40.16 140.89,40.27 141.1,40.37 141.15,40.64 141.98,40.83 142.17,40.37 142.59,40.16 143.95,40.32 143.91,39.08 144.99,38.96 144.87,39.31 144.64,39.56 144.51,39.92 144.72,40.68 144.14,40.66 144.03,41.12 143.28,41.45 144.36,42.3 143.79,42.56 139.91,43.89 138.99,39.17 141.15,37.04 L 141.15,36.8 C 141.44,35.25 142.75,34.72 143.31,33.44 143.87,33.6 143.96,34.24 144.51,34.4 143.44,35.65 142.15,36.68 141.39,38.24 Z M 141.39,38.24" />
        <path id="ca3-bezier1128" fill-rule="evenodd" stroke="none" fill="rgb(192, 192, 192)" d="M 141.39,38.24 C 142.15,36.68 143.44,35.65 144.51,34.4 143.96,34.24 143.87,33.6 143.31,33.44 142.75,34.72 141.44,35.25 141.15,36.8 L 141.15,35.36 C 139.97,34.43 139.32,35.62 137.79,35.6 138.25,34.94 138.81,34.38 139.47,33.92 142.13,31.77 146.93,31.77 147.87,27.92 152.11,25.76 154,21.25 158.91,19.76 158.62,20.35 156.92,21.81 157.95,22.16 160.23,22.24 161.5,19.69 163.23,20.72 160.61,24.18 156.54,26.18 154.11,29.84 152.55,29.71 152.07,30.68 150.99,31.04 152.9,28.62 156.8,26.94 156.75,23.36 153.69,25.09 150.51,26.72 149.55,30.56 149.77,30.67 149.98,30.77 150.03,31.04 149.78,30.79 148.32,30.54 148.11,31.04 148.51,31.04 148.25,31.71 148.59,31.76 148.59,31.99 148.3,31.95 148.11,32 L 148.11,31.04 C 146.45,31.45 144.27,31.35 143.79,32.96 143.59,33.96 144.44,33.91 144.75,34.4 143.58,35.63 142.49,36.94 141.39,38.24 Z M 141.39,38.24" />
        <path id="ca3-bezier1129" fill-rule="evenodd" stroke="none" fill="rgb(255, 255, 255)" d="M 149.55,37.52 C 150.64,37.18 148.74,39.19 148.35,39.68 148.47,40.44 148.01,40.62 147.87,41.12 147.39,41.77 145.93,42.69 144.99,42.08 146.55,41.08 147.63,39.6 148.83,38.24 148.79,37.72 149.03,37.48 149.55,37.52 Z M 149.55,37.52" />
        <path id="ca3-bezier1130" fill-rule="evenodd" stroke="none" fill="rgb(255, 255, 255)" d="M 109.71,73.04 L 109.71,72.08 C 109.01,72.02 108.98,72.62 108.27,72.56 107.08,73.53 106.22,74.83 105.15,75.92 105.22,76.98 103.8,77.45 104.43,78.32 105.87,78.56 105.87,77.36 106.35,76.64 107.68,75.65 108.69,74.34 109.71,73.04 Z M 114.75,72.8 L 114.75,71.84 C 114.47,71.64 114.11,71.52 113.55,71.6 112.53,72.68 111.17,73.79 109.95,74 109.95,74.24 109.76,74.29 109.71,74.48 110.07,74.52 110.6,74.39 110.67,74.72 109.92,75.97 108.4,76.45 108.03,78.08 108.24,78.99 107.24,79.21 107.79,79.76 109.02,80.27 109.72,78.81 110.43,78.08 111.42,77.63 112.14,76.91 112.59,75.92 112.58,75.59 112.71,75.39 112.83,75.2 113.29,75.15 113.36,75.47 113.79,75.44 113.56,74.01 114.24,73.48 114.75,72.8 Z M 124.35,60.32 C 122.32,60.44 121.55,61.83 120.51,62.96 119.98,63.94 117.27,65.24 119.07,66.32 L 120.99,66.32 C 122.24,65.81 123.02,64.82 123.39,63.44 123.38,63.11 123.51,62.91 123.63,62.72 124.35,62.49 125.54,60.95 124.35,60.32 Z M 127.71,62 C 127.28,63.4 125.64,63.61 125.07,64.88 124.87,64.84 124.85,64.97 124.83,65.12 124.66,65.77 125.31,65.6 125.31,66.08 125.95,66.08 126.73,66.21 126.75,65.6 L 126.99,65.6 C 127.96,63.99 130.01,63.44 129.87,65.84 130.01,66.19 130.25,66.43 130.59,66.56 130.64,66.92 131.17,66.78 131.55,66.8 133.28,68.99 128.82,74.12 128.67,73.52 L 128.67,73.28 C 129.37,73.28 129.24,71.92 128.91,71.6 128.53,71.62 128,71.48 127.95,71.84 127.75,71.8 127.73,71.93 127.71,72.08 126.12,73.21 124.2,75.29 122.91,75.92 123.33,75.37 123.91,74.99 123.87,74 123.69,73.79 123.61,73.46 123.63,73.04 122.41,72.37 121.78,73.53 120.75,73.76 119.75,74.91 119.48,73.16 118.59,74.96 118.33,74.9 118.43,74.48 118.11,74.48 118.04,74.15 117.51,74.28 117.15,74.24 115.25,75.54 113.37,76.86 111.87,78.56 111.25,78.82 110.72,79.17 110.43,79.76 110.3,79.76 110.16,79.95 110.43,80 110.97,82.18 107.68,84.14 105.39,85.04 104.92,84.39 104.71,83.48 103.71,83.36 97.7,83.59 95.33,88.74 91.71,90.56 92.27,88.8 93.1,87.31 93.87,85.76 94.63,85.16 94.95,84.12 95.31,83.12 L 95.31,82.88 C 96.36,82.27 95.31,80.52 95.79,79.76 95.76,79.16 96.17,79.02 96.27,78.56 97.1,77.23 98.36,76.33 99.15,74.96 L 99.15,74.72 C 101.28,73.17 102.36,70.57 103.95,68.48 L 103.95,68.24 C 104.69,66.31 106.56,65.86 108.03,64.64 110.14,62.89 111.32,59.67 113.55,57.44 116.73,54.26 121.56,52.41 124.11,49.04 125.4,49.04 126.19,48.55 126.75,47.84 127.5,47.79 127.16,46.65 127.23,45.92 129.17,45.38 133.24,40.86 136.59,40.64 140.45,40.39 141.29,44.38 138.03,45.2 141.34,45.5 143.63,46.8 144.51,49.52 145.95,49.78 147.36,50.59 147.63,51.92 148.24,54.87 145.75,56.22 144.03,58.64 142.01,61.49 140.87,64.45 137.31,64.4 137.1,63.5 135.59,63.89 135.39,62.96 135.23,62.32 135.29,61.46 134.91,61.04 134.65,61.74 133.77,61.82 132.75,61.76 131.21,61.16 131.62,59.44 132.03,57.92 130.53,58.26 129.15,60.79 127.71,62 Z M 127.71,62" />
        <path id="ca3-bezier1131" fill-rule="evenodd" stroke="none" fill="rgb(192, 192, 192)" d="M 125.07,64.88 L 125.07,65.6 C 125.39,65.94 126.43,65.94 126.75,65.6 126.73,66.21 125.95,66.08 125.31,66.08 125.31,65.6 124.66,65.78 124.83,65.12 124.85,64.97 124.87,64.84 125.07,64.88 Z M 125.07,64.88" />
        <path id="ca3-bezier1132" fill-rule="evenodd" stroke="none" fill="rgb(192, 192, 192)" d="M 127.95,71.84 C 128,71.49 128.53,71.62 128.91,71.6 129.24,71.92 129.37,73.28 128.67,73.28 128.95,73 128.94,72.43 128.91,71.84 L 127.95,71.84 Z M 127.95,71.84" />
        <path id="ca3-bezier1133" fill-rule="evenodd" stroke="none" fill="rgb(192, 192, 192)" d="M 111.87,78.56 C 113.37,76.86 115.25,75.54 117.15,74.24 115.47,75.76 113.59,77.08 111.87,78.56 Z M 111.87,78.56" />
        <path id="ca3-bezier1134" fill-rule="evenodd" stroke="none" fill="rgb(192, 192, 192)" d="M 119.07,66.32 C 117.27,65.24 119.98,63.94 120.51,62.96 120.22,64.27 118.67,64.32 118.59,65.84 118.86,65.89 118.97,66.11 119.07,66.32 Z M 119.07,66.32" />
        <path id="ca3-bezier1135" fill-rule="evenodd" stroke="none" fill="rgb(192, 192, 192)" d="M 120.99,66.32 C 122.07,65.64 122.72,64.53 123.39,63.44 123.01,64.82 122.24,65.8 120.99,66.32 Z M 120.99,66.32" />
        <path id="ca3-bezier1136" fill-rule="evenodd" stroke="none" fill="rgb(192, 192, 192)" d="M 123.63,62.72 C 124.06,62.16 125.12,61.33 124.35,60.32 125.54,60.95 124.35,62.49 123.63,62.72 Z M 123.63,62.72" />
        <path id="ca3-bezier1137" fill-rule="evenodd" stroke="none" fill="rgb(255, 255, 255)" d="M 141.39,75.44 C 141.5,74.59 142.47,74.6 142.35,73.52 141.65,72.89 140.93,73.7 140.67,74.24 140.17,74.24 139.77,75.55 139.47,74.96 140.45,73.32 141.01,68.7 142.83,67.76 144.76,66.77 146.58,67.91 146.67,69.68 146.79,71.8 144.49,72.83 143.31,74.24 142.93,75.53 142.41,76.69 140.67,76.64 140.56,75.89 141.32,76.01 141.39,75.44 Z M 141.39,75.44" />
        <path id="ca3-bezier1138" fill-rule="evenodd" stroke="none" fill="rgb(192, 192, 192)" d="M 108.03,78.08 C 108.4,76.45 109.92,75.97 110.67,74.72 110.6,74.39 110.07,74.52 109.71,74.48 109.76,74.29 109.95,74.24 109.95,74 111.17,73.79 112.53,72.68 113.55,71.6 111.62,73.67 109.79,75.83 108.03,78.08 Z M 108.03,78.08" />
        <path id="ca3-bezier1139" fill-rule="evenodd" stroke="none" fill="rgb(192, 192, 192)" d="M 110.43,78.08 C 111.2,77.41 111.92,76.69 112.59,75.92 112.14,76.91 111.42,77.63 110.43,78.08 Z M 110.43,78.08" />
        <path id="ca3-bezier1140" fill-rule="evenodd" stroke="none" fill="rgb(192, 192, 192)" d="M 112.83,75.2 C 113.25,74.17 113.87,73.36 114.75,72.8 114.24,73.48 113.56,74.01 113.79,75.44 113.36,75.47 113.29,75.15 112.83,75.2 Z M 112.83,75.2" />
        <path id="ca3-bezier1141" fill-rule="evenodd" stroke="none" fill="rgb(192, 192, 192)" d="M 122.19,81.2 C 124.46,81.06 124.8,79.01 126.27,78.08 126.07,78.36 125.96,78.72 126.03,79.28 124.79,78.88 123.88,82.04 122.19,81.2 Z M 122.19,81.2" />
        <path id="ca3-bezier1142" fill-rule="evenodd" stroke="none" fill="rgb(192, 192, 192)" d="M 105.15,75.92 C 106.22,74.83 107.08,73.53 108.27,72.56 107.31,73.76 106.41,75.02 105.15,75.92 Z M 105.15,75.92" />
        <path id="ca3-bezier1143" fill-rule="evenodd" stroke="none" fill="rgb(192, 192, 192)" d="M 106.35,76.64 C 107.49,75.46 108.46,74.11 109.71,73.04 108.69,74.34 107.68,75.65 106.35,76.64 Z M 106.35,76.64" />
        <path id="ca3-bezier1144" fill-rule="evenodd" stroke="none" fill="rgb(192, 192, 192)" d="M 115.23,80 C 114.92,79.4 116.18,79.25 115.47,79.04 116.64,77.81 118.03,76.8 118.11,74.48 118.43,74.48 118.33,74.9 118.59,74.96 119.48,73.16 119.75,74.91 120.75,73.76 118.92,75.85 116.95,77.79 115.23,80 Z M 115.23,80" />
        <path id="ca3-bezier1145" fill-rule="evenodd" stroke="none" fill="rgb(255, 255, 255)" d="M 100.35,88.4 L 100.59,88.4 C 100.64,90.05 99.08,92.17 97.71,93.2 L 97.47,93.2 C 96.7,93.63 96.04,94.17 95.55,94.88 95.53,95.58 96.56,96.26 95.55,96.56 95.86,95.67 94.13,95.61 93.87,96.08 92.84,96.18 91.77,97.49 91.23,97.28 91.77,96.7 92.24,96.05 92.67,95.36 93.62,94.51 95.07,93.27 94.35,91.52 94.78,91.3 95.1,90.98 95.31,90.56 95.89,90.1 96.68,89.85 97.71,89.84 98.71,89.48 99.75,89.16 100.35,88.4 Z M 100.35,88.4" />
        <path id="ca3-bezier1146" fill-rule="evenodd" stroke="none" fill="rgb(255, 255, 255)" d="M 99.63,100.16 C 99.58,100.96 95.7,104.14 98.43,101.12 98.8,100.72 99,100.7 99.63,100.16 Z M 99.63,100.16" />
        <path id="ca3-bezier1147" fill-rule="evenodd" stroke="none" fill="rgb(192, 192, 192)" d="M 90.03,94.4 C 89.87,93.59 91.1,92.11 91.47,91.04 91.75,91.56 91.97,92.14 92.19,92.72 91.51,93.32 90.74,93.83 90.03,94.4 Z M 90.03,94.4" />
        <path id="ca3-bezier1148" fill-rule="evenodd" stroke="none" fill="rgb(192, 192, 192)" d="M 110.43,98 C 111.36,95.41 113.37,93.89 115.71,92.72 113.64,94.17 111.59,95.64 110.43,98 Z M 110.43,98" />
        <path id="ca3-bezier1149" fill-rule="evenodd" stroke="none" fill="rgb(255, 255, 255)" d="M 113.07,97.28 C 112.15,97.8 111.03,98.12 110.43,98.96 109.84,98.93 110.36,98.15 110.43,98 111.59,95.64 113.64,94.17 115.71,92.72 L 115.95,92.72 C 116.14,92.67 116.43,92.71 116.43,92.48 116.82,92.81 115.61,93.56 115.47,94.16 L 115.47,94.4 C 114.49,95.17 113.99,96.43 113.07,97.28 Z M 113.07,97.28" />
        <path id="ca3-bezier1150" fill-rule="evenodd" stroke="none" fill="rgb(192, 192, 192)" d="M 113.07,97.28 C 113.99,96.43 114.49,95.17 115.47,94.4 114.75,95.44 114.17,96.62 113.07,97.28 Z M 113.07,97.28" />
        <path id="ca3-bezier1151" fill-rule="evenodd" stroke="none" fill="rgb(192, 192, 192)" d="M 115.47,94.16 C 115.61,93.56 116.82,92.81 116.43,92.48 116.43,92.71 116.14,92.67 115.95,92.72 116.11,92.4 116.47,92.27 116.91,92.24 116.62,93.07 116.12,93.69 115.47,94.16 Z M 115.47,94.16" />
        <path id="ca3-bezier1152" fill-rule="evenodd" stroke="none" fill="rgb(192, 192, 192)" d="M 107.55,97.04 C 108.04,96.1 106.61,96.36 106.35,97.04 106.46,96.58 106.87,96.44 106.83,95.84 107.36,96.02 108.55,96.75 107.55,97.04 Z M 107.55,97.04" />
        <path id="ca3-bezier1153" fill-rule="evenodd" stroke="none" fill="rgb(192, 192, 192)" d="M 107.31,97.04 C 106.92,97.68 106.09,97.9 105.63,98.48 105.18,98.31 105.96,97.39 106.35,97.28 106.35,97.52 106.16,97.57 106.11,97.76 106.54,97.54 106.81,97.18 107.31,97.04 Z M 107.31,97.04" />
        <path id="ca3-bezier1154" fill-rule="evenodd" stroke="none" fill="rgb(255, 255, 255)" d="M 106.35,97.04 C 106.61,96.36 108.04,96.1 107.55,97.04 L 107.31,97.04 C 106.81,97.18 106.54,97.54 106.11,97.76 106.16,97.57 106.35,97.52 106.35,97.28 L 106.35,97.04 Z M 106.35,97.04" />
        <path id="ca3-bezier1155" fill-rule="evenodd" stroke="none" fill="rgb(192, 192, 192)" d="M 119.55,97.04 C 119.71,98.18 118.16,98.44 117.39,98.96 115.33,100.37 113.2,102.42 111.63,104.24 112.3,102.9 114.4,100.93 115.23,98.96 116.79,98.44 118.58,98.15 119.55,97.04 Z M 119.55,97.04" />
        <path id="ca3-bezier1156" fill-rule="evenodd" stroke="none" fill="rgb(255, 255, 255)" d="M 94.83,104.96 C 94.99,104.43 95.37,104.43 95.55,104.24 97.37,102.36 96.94,103.83 94.83,104.96 Z M 94.83,104.96" />
        <path id="ca3-bezier1157" fill-rule="evenodd" stroke="none" fill="rgb(192, 192, 192)" d="M 100.11,104.24 C 100.01,104.95 98.83,106.64 97.47,106.88 97.81,105.45 99.51,105.39 100.11,104.24 Z M 100.11,104.24" />
        <path id="ca3-bezier1158" fill-rule="evenodd" stroke="none" fill="rgb(192, 192, 192)" d="M 97.23,110.72 C 96.39,111.25 97.25,111.03 97.47,111.68 98.03,111.52 98.12,110.88 98.67,110.72 L 98.67,110.48 C 97.01,112.18 95.27,115.87 92.43,117.2 92.26,117.93 92.68,118.07 92.67,118.64 91.69,118.78 91.54,119.74 90.51,119.84 91.21,118.06 92.07,116.44 93.15,115.04 93.07,114.73 92.73,114.66 92.67,114.32 90.37,116.17 87.69,117.66 85.47,119.6 85.11,119.58 85.86,118.03 85.23,117.68 83.06,117.9 82.32,119.57 80.67,120.32 82.63,115.64 87.3,111.59 92.19,109.04 90.87,111.4 88.19,112.39 87.15,115.04 87.2,115.23 87.39,115.28 87.39,115.52 90.92,114.17 94.3,112.66 97.23,110.72 Z M 97.23,110.72" />
        <path id="ca3-bezier1159" fill-rule="evenodd" stroke="none" fill="rgb(255, 255, 255)" d="M 97.23,110.72 C 97.8,110.73 97.94,110.31 98.67,110.48 L 98.67,110.72 C 98.12,110.88 98.03,111.52 97.47,111.68 97.25,111.03 96.39,111.25 97.23,110.72 Z M 97.23,110.72" />
        <path id="ca3-bezier1160" fill-rule="evenodd" stroke="none" fill="rgb(192, 192, 192)" d="M 104.91,110.96 C 105.22,112.5 103.22,113.29 102.27,114.32 101.24,115.44 100.34,116.69 99.63,117.92 98.95,117.96 98.63,118.36 97.95,118.4 97.61,119.46 98.15,119.99 96.99,120.32 97.61,116.14 101.88,113.52 104.91,110.96 Z M 104.91,110.96" />
        <path id="ca3-bezier1161" fill-rule="evenodd" stroke="none" fill="rgb(192, 192, 192)" d="M 110.19,116.96 C 108.62,119.85 105.16,121.7 101.55,123.68 100.09,124.48 98.44,125.54 96.75,125.6 97.13,123.71 99.8,122.1 100.83,120.08 104.83,121.2 108.23,119.26 110.19,116.96 Z M 110.19,116.96" />
        <path id="ca3-bezier1162" fill-rule="evenodd" stroke="none" fill="rgb(255, 255, 255)" d="M 63.15,141.68 C 64.96,141.09 66.71,139.16 67.95,138.8 67.61,138.93 67.37,139.17 67.23,139.52 L 66.99,139.52 C 64.51,141.6 61.57,143.22 59.55,145.76 L 59.31,145.76 C 58.25,146.62 57.29,147.58 56.43,148.64 54.6,149.69 53.21,151.17 50.91,151.76 47.63,153.6 44.65,155.74 42.75,158.96 41.17,159.32 39.4,160.14 37.71,159.68 38.85,158.33 40.74,157.75 42.27,156.8 44.14,155.23 46.14,153.79 47.79,152 48.68,151.69 48.57,150.37 49.71,150.32 50.85,149.38 51.89,148.34 52.83,147.2 56.24,145.33 59.78,143.59 63.15,141.68 Z M 63.15,141.68" />
        <path id="ca3-bezier1163" fill-rule="evenodd" stroke="none" fill="rgb(192, 192, 192)" d="M 49.71,142.64 C 50.22,142.53 48.17,143.74 47.79,144.32 47.46,143.74 49.06,143.03 49.71,142.64 Z M 49.71,142.64" />
        <path id="ca3-bezier1164" fill-rule="evenodd" stroke="none" fill="rgb(192, 192, 192)" d="M 76.83,153.92 C 76.5,155.83 74.45,157.3 74.91,159.2 75.15,159.2 75.2,159.01 75.39,158.96 75.35,159.15 75.15,159.2 75.15,159.44 73.48,158.06 76.33,155.47 76.83,153.92 Z M 76.83,153.92" />
        <path id="ca3-bezier1165" fill-rule="evenodd" stroke="none" fill="rgb(255, 255, 255)" d="M 76.83,153.92 C 77.35,152.29 78.37,150.43 79.23,148.64 79.98,147.1 80.36,144.23 82.59,144.8 80.5,149.83 77.86,154.31 75.39,158.96 75.2,159.01 75.15,159.2 74.91,159.2 74.45,157.3 76.5,155.83 76.83,153.92 Z M 76.83,153.92" />
        <path id="ca3-bezier1166" fill-rule="evenodd" stroke="none" fill="rgb(255, 255, 255)" d="M 85.95,152.96 C 84,156.2 82.38,159.79 79.23,161.84 81.98,156.03 84.56,150.05 88.83,145.76 88.98,145.75 89.11,145.73 89.07,145.52 89.43,147.3 86.82,151.04 85.95,152.96 Z M 85.95,152.96" />
        <path id="ca3-bezier1167" fill-rule="evenodd" stroke="none" fill="rgb(192, 192, 192)" d="M 88.83,145.76 C 90.4,145.13 88.96,147.81 88.35,149.12 87.62,150.72 86.71,152.46 85.95,152.96 86.82,151.04 89.43,147.3 89.07,145.52 89.11,145.73 88.98,145.75 88.83,145.76 Z M 88.83,145.76" />
        <path id="ca3-bezier1168" fill-rule="evenodd" stroke="none" fill="rgb(192, 192, 192)" d="M 81.63,150.56 C 82.24,149.65 82.44,148.33 83.31,147.68 82.83,148.64 82.35,149.6 81.87,150.56 L 81.63,150.56 Z M 81.63,150.56" />
        <path id="ca3-bezier1169" fill-rule="evenodd" stroke="none" fill="rgb(255, 255, 255)" d="M 76.59,158.48 C 78.24,155.81 79.9,153.14 81.63,150.56 L 81.87,150.56 C 82.35,149.6 82.83,148.64 83.31,147.68 83.47,146.57 84.68,145.47 85.47,145.76 84.99,146.72 84.51,147.68 84.03,148.64 83.31,149.52 82.94,150.75 82.35,151.76 81.68,153.33 80.58,154.47 79.71,155.84 78.18,156.7 77.62,158.55 76.11,159.44 76.24,159.08 76.47,158.84 76.59,158.48 Z M 76.59,158.48" />
        <path id="ca3-bezier1170" fill-rule="evenodd" stroke="none" fill="rgb(192, 192, 192)" d="M 79.71,155.84 C 78.38,156.99 77.67,158.76 76.11,159.68 75.73,159.32 76.12,158.67 76.59,158.48 76.47,158.84 76.24,159.08 76.11,159.44 77.62,158.55 78.18,156.7 79.71,155.84 Z M 79.71,155.84" />
        <path id="ca3-bezier1171" fill-rule="evenodd" stroke="none" fill="rgb(192, 192, 192)" d="M 84.03,148.64 C 83.59,149.8 83.2,151 82.35,151.76 82.94,150.75 83.31,149.52 84.03,148.64 Z M 84.03,148.64" />
        <path id="ca3-bezier1172" fill-rule="evenodd" stroke="none" fill="rgb(192, 192, 192)" d="M 67.71,148.16 C 66.11,150.72 64.04,154.89 62.67,158.48 63.96,157.68 65.48,155.05 66.99,153.68 68.16,152.69 68.75,152.16 67.47,153.68 65.63,155.51 64.03,157.6 62.67,159.92 62.12,160.4 62.41,159.86 61.95,159.68 55.62,164.94 51.59,172.51 46.11,178.64 50.63,172.09 56.24,164.86 60.75,157.76 62.32,155.3 63.58,152.68 65.07,150.32 65.58,149.51 66.74,148.75 67.71,148.16 Z M 67.71,148.16" />
        <path id="ca3-bezier1173" fill-rule="evenodd" stroke="none" fill="rgb(192, 192, 192)" d="M 69.39,172.88 C 68.63,173.51 70.79,174.06 69.63,175.04 69.67,174.13 69.64,173.52 69.15,174.32 69.17,173.98 69.19,173.64 68.91,173.6 68.9,173.19 69.1,172.98 69.39,172.88 Z M 69.39,172.88" />
        <path id="ca3-bezier1174" fill-rule="evenodd" stroke="none" fill="rgb(255, 255, 255)" d="M 62.43,184.4 C 62.48,184.92 62.24,185.16 61.71,185.12 63.12,180.45 66.95,178.19 69.15,174.32 69.64,173.52 69.67,174.13 69.63,175.04 69.38,175.91 68.84,176.48 68.43,177.2 67.4,178.57 66.57,180.13 65.31,181.28 65.18,181.63 64.94,181.87 64.59,182 63.75,182.68 62.9,183.35 62.43,184.4 Z M 62.43,184.4" />
        <path id="ca3-bezier1175" fill-rule="evenodd" stroke="none" fill="rgb(192, 192, 192)" d="M 64.59,182 C 63.92,182.85 63.15,183.6 62.43,184.4 62.9,183.35 63.75,182.68 64.59,182 Z M 64.59,182" />
        <path id="ca3-bezier1176" fill-rule="evenodd" stroke="none" fill="rgb(192, 192, 192)" d="M 65.31,181.28 C 66.57,180.13 67.4,178.57 68.43,177.2 67.71,178.87 66.72,180.29 65.31,181.28 Z M 65.31,181.28" />
        <path id="ca3-bezier1177" fill-rule="evenodd" stroke="none" fill="rgb(255, 255, 255)" d="M 68.91,173.6 C 68.62,174.35 68.46,175.23 67.23,175.04 68.81,172.85 69.11,169.4 71.31,167.84 72.59,169.62 69.82,171.24 69.39,172.88 69.1,172.99 68.9,173.19 68.91,173.6 Z M 68.91,173.6" />
        <path id="ca3-bezier1178" fill-rule="evenodd" stroke="none" fill="rgb(255, 255, 255)" d="M 56.67,181.04 C 55.59,180.96 57.58,178.25 58.35,177.68 58.12,178.17 57.86,178.63 57.63,179.12 57.52,179.97 57.03,180.43 56.67,181.04 Z M 56.67,181.04" />
        <path id="ca3-bezier1179" fill-rule="evenodd" stroke="none" fill="rgb(255, 255, 255)" d="M 39.63,216.8 C 44.67,209.36 50.24,202.44 54.27,194 56.45,192.81 56.87,189.87 59.55,189.2 58.71,193.08 55.94,195.03 54.51,198.32 48.26,203.03 45.37,212.38 39.63,216.8 Z M 39.63,216.8" />
        <path id="ca3-bezier1180" fill-rule="evenodd" stroke="none" fill="rgb(192, 192, 192)" d="M 39.63,216.8 C 45.37,212.38 48.26,203.03 54.51,198.32 50.08,206.29 44.48,213.08 38.19,219.2 38.29,218.02 38.92,217.36 39.63,216.8 Z M 39.63,216.8" />
        <path id="ca3-bezier1181" fill-rule="evenodd" stroke="none" fill="rgb(0, 0, 0)" d="M 114.03,52.4 C 115.03,49.8 117.37,48.54 119.55,47.12 121.85,46.11 124,42.6 127.23,44.72 127.03,45.71 127.11,47 126.75,47.84 126.19,48.55 125.4,49.05 124.11,49.04 L 124.11,48.8 C 120.34,49.74 118.07,52.2 114.75,53.6 114.33,53.38 113.92,53.15 114.03,52.4 Z M 114.03,52.4" />
        <path id="ca3-bezier1182" fill-rule="evenodd" stroke="none" fill="rgb(255, 255, 255)" d="M 121.23,80.96 C 121.73,80.86 121.87,81.12 122.19,81.2 123.88,82.04 124.79,78.88 126.03,79.28 L 126.03,79.52 C 128.62,81.43 122.36,85.61 120.51,86.48 119.11,85.66 120.06,80.71 121.23,80.96 Z M 121.23,80.96" />
        <path id="ca3-bezier1183" fill-rule="evenodd" stroke="none" fill="rgb(192, 192, 192)" d="M 81.39,110 C 82.19,111.08 79.93,113.14 78.75,113.84 79.57,112.49 80.63,111.39 81.39,110 Z M 81.39,110" />
    </g>
</svg>
