<?xml version="1.0" encoding="UTF-8"?>
<!DOCTYPE svg PUBLIC "-//W3C//DTD SVG 1.1//EN" "http://www.w3.org/Graphics/SVG/1.1/DTD/svg11.dtd">
<svg version="1.1" xmlns="http://www.w3.org/2000/svg" xmlns:xlink="http://www.w3.org/1999/xlink" width="221" height="237"  xml:space="preserve" id="skull21">
    <!-- Generated by PaintCode - http://www.paintcodeapp.com -->

    <!-- This code was generated by Trial version of PaintCode, therefore cannot be used for commercial purposes. -->

    <g id="skull21-skullgroup2">
        <path id="skull21-skullbezier121" fill-rule="evenodd" stroke="none" fill="rgb(255, 255, 255)" d="M 57.33,46.69 C 53.05,41.94 52.47,32.81 57.33,28.21 58.35,27.26 59.76,26.64 61.17,26.05 62.25,23.34 64.38,22.33 66.45,20.53 67.86,19.31 69.05,17.52 70.53,16.69 71.48,16.17 72.68,16 73.65,15.49 74.85,14.88 75.77,13.84 77.01,13.33 77.96,12.95 79.22,13 80.37,12.61 81.58,12.21 82.64,11.27 83.73,10.93 84.76,10.62 85.95,10.74 87.09,10.45 94.54,8.57 104.02,5.35 109.65,11.41 121.96,11.19 124.88,27.8 116.13,33.49 114.97,34.25 113.4,34.51 112.05,35.17 104.26,39.02 95.48,44.42 88.05,48.13 88.43,50.53 85.9,49.97 85.41,51.97 85.03,53.56 85.23,54.98 86.85,55.33 88.22,55.63 89.69,53.77 91.41,52.69 95.19,50.33 100.51,48.9 103.89,46.69 105.89,46.93 106.65,45.93 108.69,46.21 105.78,48.39 102.55,49.4 99.33,51.25 98.19,51.91 97.31,53.04 96.21,53.89 95.06,54.79 93.73,55.26 92.61,56.05 91.23,57.05 90.33,58.53 89.01,59.41 88.25,59.93 87.17,60.1 86.37,60.61 84.66,61.72 81.9,64.36 79.17,64.21 76.34,64.06 73.67,58.49 71.49,56.77 66.52,52.85 60.71,50.79 57.57,46.69 L 57.33,46.69 Z M 57.33,46.69" />
        <path id="skull21-skullbezier122" fill-rule="evenodd" stroke="none" fill="rgb(255, 255, 255)" d="M 141.33,15.49 C 144.96,14.92 149.73,18.17 149.73,22.21 149.73,26.93 142.61,26.34 139.41,24.37 135.42,21.92 137.35,16.12 141.33,15.49 Z M 141.33,15.49" />
        <path id="skull21-skullbezier123" fill-rule="evenodd" stroke="none" fill="rgb(255, 255, 255)" d="M 131.73,46.45 C 129.72,49.44 125.31,50.42 121.89,51.97 120.75,52.49 119.69,53.93 118.29,53.17 119.26,49.82 123.01,49.25 124.77,46.69 127.06,46.11 129.85,44.16 131.73,46.45 Z M 131.73,46.45" />
        <path id="skull21-skullbezier124" fill-rule="evenodd" stroke="none" fill="rgb(192, 192, 192)" d="M 50.85,53.41 C 51.41,53.9 50.94,55.41 51.09,56.29 50.54,55.81 51.01,54.3 50.85,53.41 Z M 50.85,53.41" />
        <path id="skull21-skullbezier125" fill-rule="evenodd" stroke="none" fill="rgb(0, 0, 0)" d="M 165.33,59.89 C 166.22,59.29 166.66,57.14 167.97,57.73 169.35,60.06 168.06,64.48 166.77,66.37 166.27,66.59 166.04,67.08 166.05,67.81 165.92,66.67 165.92,65.62 164.85,64.93 164.52,62.97 164.98,61.71 165.33,59.89 Z M 165.33,59.89" />
        <path id="skull21-skullbezier126" fill-rule="evenodd" stroke="none" fill="rgb(192, 192, 192)" d="M 166.29,70.45 C 166.84,70.79 166.38,72.12 166.53,72.85 165.99,72.52 166.44,71.18 166.29,70.45 Z M 166.29,70.45" />
        <path id="skull21-skullbezier127" fill-rule="evenodd" stroke="none" fill="rgb(0, 0, 0)" d="M 122.61,75.25 C 124.03,74.51 125,73.32 127.17,73.33 127.17,73.73 126.51,73.47 126.45,73.81 125.38,74.02 124.63,74.55 123.81,75.01 122.85,75.73 122.24,76.8 121.41,77.65 119.61,80.25 117.9,82.94 114.93,84.37 115,83.99 114.71,83.96 114.69,83.65 115.21,82.98 115.72,82.28 115.89,81.25 116.28,80.36 117.39,80.19 117.57,79.09 118.36,78.28 119.16,77.48 119.97,76.69 120.97,76.33 121.9,75.9 122.61,75.25 Z M 122.61,75.25" />
        <path id="skull21-skullbezier128" fill-rule="evenodd" stroke="none" fill="rgb(0, 0, 0)" d="M 134.37,73.57 C 135.4,73.26 137.69,73.14 138.69,73.57 L 138.69,73.81 C 137.41,77.46 133.24,77.58 129.81,79.81 127.11,81.58 124.72,86.7 122.61,83.17 122.44,82.44 122.86,82.3 122.85,81.73 125.32,78.12 129,75.72 133.17,73.81 133.73,73.89 134.1,73.78 134.37,73.57 Z M 134.37,73.57" />
        <path id="skull21-skullbezier129" fill-rule="evenodd" stroke="none" fill="rgb(255, 255, 255)" d="M 93.81,90.61 C 91.02,89.63 82.03,85.73 81.57,81.97 81.46,80.99 81.62,79.66 83.01,79.33 86.92,82.79 92.93,84.13 93.81,90.61 Z M 93.81,90.61" />
        <path id="skull21-skullbezier130" fill-rule="evenodd" stroke="none" fill="rgb(255, 255, 255)" d="M 83.97,97.81 C 81.48,97.17 80.38,95.31 77.97,93.97 74.2,91.88 69.01,91.09 68.37,87.73 67.04,80.72 75.92,82.32 79.65,84.13 81.77,85.16 84.35,86.76 86.13,88.21 87.34,89.19 87.8,90.68 88.77,91.81 90.27,93.54 92.86,94.79 93.57,96.61 94.33,98.52 94.03,101.15 93.33,102.37 90.6,103.83 89.8,101.32 88.05,100.45 L 87.81,100.45 C 86.72,99.47 85.46,98.65 84.21,97.81 L 83.97,97.81 Z M 83.97,97.81" />
        <path id="skull21-skullbezier131" fill-rule="evenodd" stroke="none" fill="rgb(192, 192, 192)" d="M 125.01,97.09 C 123.29,96.76 121.74,96.9 119.97,97.09 119.22,96.32 117.62,95.13 117.81,94.21 118.64,94.74 119.97,94.07 120.93,93.97 122.48,94.75 122.74,96.81 125.01,96.85 L 125.01,97.09 Z M 125.01,97.09" />
        <path id="skull21-skullbezier132" fill-rule="evenodd" stroke="none" fill="rgb(0, 0, 0)" d="M 72.21,147.01 C 69.32,146.14 65.98,145.73 65.73,142.21 68.72,138.83 73.95,142.74 77.73,142.45 78.79,142.37 80.81,141.36 82.05,140.77 85.28,139.25 86.39,136.94 88.53,134.77 85.35,133.82 84.44,135.95 82.77,137.17 80.57,138.8 76.6,140.84 72.69,140.29 64.9,139.2 62.48,131.4 57.09,126.37 56.53,132.24 64,134.18 64.77,140.29 62.9,139.21 61.71,137.44 58.53,137.65 54.7,135.06 51.95,132.02 51.33,126.61 50.74,121.48 52.45,117.53 53.97,114.13 55.56,110.6 57.7,107.7 60.21,105.97 64.1,106.26 64.94,103.5 67.65,102.61 69.72,104.15 73.46,104.01 75.09,105.97 76.88,101.36 70.17,101.16 67.65,99.25 71.32,96.29 79.21,95.01 83.97,97.81 L 84.21,97.81 C 85.17,98.94 86.51,99.68 87.81,100.45 L 88.05,100.45 C 90.54,102.58 92.49,107.08 96.69,105.97 98.04,107.35 99.34,108.77 101.97,108.85 102.19,109.44 102.53,109.9 102.45,110.77 100.18,111.86 99.66,114.46 96.93,114.61 93.19,114.83 90.35,111.27 86.61,109.81 86.01,109.58 85.52,109.95 84.93,109.81 83.43,109.46 82.25,107.85 80.61,108.13 81.23,110.24 83.81,110.38 85.41,111.49 88.17,115.39 92.82,118.63 99.09,118.21 102.54,125.81 96.51,132.62 91.89,135.97 L 89.73,135.97 C 86.71,139.67 81.6,141.28 78.45,144.85 77.24,145 76.35,145.47 75.33,145.81 74.43,146.2 73.65,146.69 72.69,147.01 L 72.21,147.01 Z M 72.21,147.01" />
        <path id="skull21-skullbezier133" fill-rule="evenodd" stroke="none" fill="rgb(255, 255, 255)" d="M 61.41,102.37 C 59.23,105.07 57.42,108.14 54.69,110.29 52.94,108.66 52.71,106.99 53.25,104.77 53.49,103.79 56.33,98.63 57.81,97.57 60.45,95.7 65.62,96.29 65.73,99.25 65.82,101.58 63.63,101.87 61.41,102.37 Z M 61.41,102.37" />
        <path id="skull21-skullbezier134" fill-rule="evenodd" stroke="none" fill="rgb(192, 192, 192)" d="M 132.93,136.69 C 121.89,134.06 122.68,119.59 120.69,107.89 121.12,107.68 121.13,107.05 121.41,106.69 L 122.13,106.69 C 121.45,109.6 122.95,112.27 123.57,115.09 124.66,120 125.26,126.45 127.65,129.97 129.47,132.65 132.84,133.26 132.93,136.69 Z M 132.93,136.69" />
        <path id="skull21-skullbezier135" fill-rule="evenodd" stroke="none" fill="rgb(0, 0, 0)" d="M 99.33,118.45 C 99.47,117.87 100.24,117.92 100.77,117.73 100.98,118.73 101.53,119.38 101.73,120.37 100.39,120.28 99.78,119.44 99.33,118.45 Z M 99.33,118.45" />
        <path id="skull21-skullbezier136" fill-rule="evenodd" stroke="none" fill="rgb(255, 255, 255)" d="M 118.05,129.97 C 115.82,129.02 111.33,131.86 110.61,129.25 110,127.04 112.73,126.02 114.69,126.61 116.24,127.08 117.64,128.87 118.05,129.97 Z M 118.05,129.97" />
        <path id="skull21-skullbezier137" fill-rule="evenodd" stroke="none" fill="rgb(0, 0, 0)" d="M 102.21,127.09 C 102.87,128.4 101.7,129.72 100.29,129.73 100.91,128.83 100.72,127.12 102.21,127.09 Z M 102.21,127.09" />
        <path id="skull21-skullbezier138" fill-rule="evenodd" stroke="none" fill="rgb(0, 0, 0)" d="M 131.73,164.29 C 131.55,164.83 131.23,165.23 131.25,165.97 129.25,167.66 128.39,170.47 124.53,170.29 123.59,169.59 122.5,169.97 121.17,170.05 118.07,168.52 116.27,165.67 115.41,161.89 114.15,159.71 111.98,158.45 111.09,155.89 103.67,156.71 107.89,169.18 100.77,170.29 L 100.53,170.29 C 99.61,170.34 98.76,170.3 98.13,170.05 L 97.89,170.05 C 96.65,168.82 94.52,168.47 93.81,166.69 93.8,165.67 93.49,164.94 93.33,164.05 93.69,158.17 95.02,153.26 96.93,148.93 97.2,142.56 100.19,138.91 101.25,133.33 101.45,132.73 101.91,132.39 101.97,131.65 102.97,130.25 105.72,128.68 108.21,129.49 108.91,129.72 109.53,130.77 110.37,131.17 111.74,131.83 113.7,131.66 114.69,132.13 116.08,132.79 118.83,135.5 119.25,136.69 119.93,138.58 119.14,141.58 119.49,143.89 120.04,147.45 122.84,150.82 124.05,154.21 124.34,155.01 124.26,156.05 124.53,156.85 125.63,160.1 128.28,162.61 125.49,165.49 128.53,165.33 129.21,162.81 131.01,161.41 131.88,161.75 131.64,163.19 131.73,164.29 Z M 131.73,164.29" />
        <path id="skull21-skullbezier139" fill-rule="evenodd" stroke="none" fill="rgb(0, 0, 0)" d="M 90.69,142.93 C 89.29,143.05 89.23,144.51 87.57,144.37 87.61,144.02 87.49,143.49 87.81,143.41 88.85,142.61 89.77,141.69 90.45,140.53 L 90.45,140.29 C 92.46,138.71 93.24,135.88 96.45,135.49 98.09,134.59 98.48,131.36 100.77,131.89 99.48,137.64 95.34,140.54 90.69,142.93 Z M 90.69,142.93" />
        <path id="skull21-skullbezier140" fill-rule="evenodd" stroke="none" fill="rgb(192, 192, 192)" d="M 137.49,138.61 C 136.61,140.31 134.05,138.7 133.89,137.41 134.63,135.22 136.99,137.61 137.49,138.61 Z M 137.49,138.61" />
        <path id="skull21-skullbezier141" fill-rule="evenodd" stroke="none" fill="rgb(192, 192, 192)" d="M 142.53,138.85 C 144.16,138.91 145.56,139.19 147.09,139.33 146.39,140.79 142.76,140.52 142.53,138.85 Z M 142.53,138.85" />
        <path id="skull21-skullbezier142" fill-rule="evenodd" stroke="none" fill="rgb(0, 0, 0)" d="M 125.97,149.41 C 130.47,150.68 131.7,155.21 132.93,159.73 130.74,161.79 130.37,158.52 129.33,156.61 128.66,155.37 126.82,154.42 127.41,151.81 127.26,150.69 125.99,150.68 125.97,149.41 Z M 125.97,149.41" />
        <path id="skull21-skullbezier143" fill-rule="evenodd" stroke="none" fill="rgb(192, 192, 192)" d="M 164.37,153.73 C 164.27,154.27 163.19,153.83 162.69,153.97 163.9,154.62 165.92,154 166.77,153.49 166.83,153.95 166.5,154.02 166.53,154.45 164.32,157.31 159.4,156.92 154.53,156.61 158.57,156.44 160.91,153.46 164.37,153.49 L 164.37,153.73 Z M 164.37,153.73" />
        <path id="skull21-skullbezier144" fill-rule="evenodd" stroke="none" fill="rgb(0, 0, 0)" d="M 81.57,167.89 C 76.5,168.65 78.12,159.99 81.57,163.09 82.41,163.84 82.73,166.96 81.57,167.89 Z M 81.57,167.89" />
        <path id="skull21-skullbezier145" fill-rule="evenodd" stroke="none" fill="rgb(0, 0, 0)" d="M 156.45,173.89 C 157.32,173.75 157.61,174.17 158.13,174.37 158.47,175.42 157.99,175.84 157.89,177.01 157.28,177.84 157.99,179.99 157.41,180.85 L 157.41,182.05 C 157.51,186.39 156.49,189.61 154.05,191.41 152.95,191.67 152.36,192.44 152.13,193.57 151.68,193.52 151.6,193.85 151.17,193.81 150.58,193.32 150.84,192.83 151.17,192.13 151.19,191.83 151.48,191.8 151.41,191.41 151.89,190.85 151.98,189.9 152.13,189.01 152.79,186.39 153.72,184.04 153.81,180.85 154.23,179.75 154.7,178.7 154.53,177.01 154.57,176.25 155.08,175.96 155.01,175.09 155.56,174.76 155.94,174.26 156.45,173.89 Z M 156.45,173.89" />
        <path id="skull21-skullbezier146" fill-rule="evenodd" stroke="none" fill="rgb(192, 192, 192)" d="M 130.05,181.81 C 130.6,182.15 130.14,183.48 130.29,184.21 129.75,183.88 130.2,182.54 130.05,181.81 Z M 130.05,181.81" />
        <path id="skull21-skullbezier147" fill-rule="evenodd" stroke="none" fill="rgb(192, 192, 192)" d="M 132.45,184.21 C 132.82,185.67 133.16,187.01 132.21,188.05 L 130.77,188.05 C 130.37,187.66 130.58,186.65 130.53,185.89 130.85,187.23 132.14,185.3 132.21,184.21 L 132.45,184.21 Z M 132.45,184.21" />
        <path id="skull21-skullbezier148" fill-rule="evenodd" stroke="none" fill="rgb(192, 192, 192)" d="M 121.65,186.13 L 121.65,189.25 C 121.26,188.76 121.26,186.63 121.65,186.13 Z M 121.65,186.13" />
        <path id="skull21-skullbezier149" fill-rule="evenodd" stroke="none" fill="rgb(192, 192, 192)" d="M 99.09,186.37 C 98.94,187.34 99.41,188.93 98.85,189.49 99.01,188.53 98.54,186.94 99.09,186.37 Z M 99.09,186.37" />
        <path id="skull21-skullbezier150" fill-rule="evenodd" stroke="none" fill="rgb(192, 192, 192)" d="M 116.13,186.85 L 116.13,189.97 C 115.74,189.48 115.74,187.35 116.13,186.85 Z M 116.13,186.85" />
        <path id="skull21-skullbezier151" fill-rule="evenodd" stroke="none" fill="rgb(192, 192, 192)" d="M 124.29,187.33 L 124.29,190.69 C 123.61,191.13 123.23,191.87 121.89,191.65 121.88,190.86 121.49,190.46 121.65,189.49 123.33,189.57 123.82,188.46 124.29,187.33 Z M 124.29,187.33" />
        <path id="skull21-skullbezier152" fill-rule="evenodd" stroke="none" fill="rgb(192, 192, 192)" d="M 127.17,194.53 C 128.1,196.94 126.81,200.1 128.13,201.97 127.29,203.56 125.28,205.9 122.85,204.37 123.74,200.54 123.66,195.74 127.17,194.53 Z M 127.17,194.53" />
        <path id="skull21-skullbezier153" fill-rule="evenodd" stroke="none" fill="rgb(192, 192, 192)" d="M 96.93,197.65 C 96.97,196.66 95.26,197.4 94.53,197.17 93.67,197.35 94.29,199.01 93.57,199.33 92.32,200.16 91.68,198.59 90.46,198.61 L 90.46,195.73 C 92.3,195.49 93.08,196.3 94.05,196.93 94.96,197.08 97.88,196.46 96.93,197.65 Z M 96.93,197.65" />
        <path id="skull21-skullbezier154" fill-rule="evenodd" stroke="none" fill="rgb(0, 0, 0)" d="M 141.09,208.45 C 137.74,206.19 141.37,201.31 144.69,201.25 147.16,203.94 142.64,206.71 141.09,208.45 Z M 141.09,208.45" />
        <path id="skull21-skullbezier155" fill-rule="evenodd" stroke="none" fill="rgb(255, 255, 255)" d="M 101.49,202.69 C 101.87,202.59 101.7,201.94 102.45,202.21 102.35,202.75 102.03,203.07 101.49,203.17 L 101.49,202.93 101.49,202.69 Z M 101.49,202.69" />
        <path id="skull21-skullbezier156" fill-rule="evenodd" stroke="none" fill="rgb(0, 0, 0)" d="M 128.85,208.21 C 129.35,205.55 134.17,203.58 135.33,207.01 L 135.33,207.25 135.33,207.49 C 135.19,209.51 133.96,210.44 132.21,210.85 131.47,211.47 131.75,213.11 130.53,213.25 129.76,213.79 129.11,212.55 128.61,212.05 128.16,210.54 128.73,209.73 128.85,208.21 Z M 128.85,208.21" />
        <path id="skull21-skullbezier157" fill-rule="evenodd" stroke="none" fill="rgb(255, 255, 255)" d="M 115.65,209.41 C 117.34,208.73 118.44,210.35 118.53,211.57 118.86,216 112.09,217.25 111.81,213.01 111.69,211.02 112.84,209.92 115.41,209.41 L 115.65,209.41 Z M 115.65,209.41" />
        <path id="skull21-skullbezier158" fill-rule="evenodd" stroke="none" fill="rgb(192, 192, 192)" d="M 124.77,46.69 C 123.01,49.25 119.26,49.82 118.3,53.17 119.69,53.93 120.75,52.49 121.89,51.97 125.31,50.42 129.73,49.44 131.73,46.45 129.85,44.15 127.06,46.11 124.77,46.69 Z M 139.41,24.37 C 142.61,26.34 149.73,26.93 149.73,22.21 149.73,18.17 144.96,14.92 141.34,15.49 137.35,16.12 135.42,21.92 139.41,24.37 Z M 57.57,46.69 C 60.71,50.79 66.52,52.85 71.49,56.77 73.67,58.49 76.34,64.06 79.17,64.21 81.9,64.36 84.66,61.72 86.38,60.61 87.17,60.1 88.25,59.93 89.01,59.41 90.33,58.53 91.23,57.05 92.61,56.05 93.73,55.26 95.07,54.79 96.21,53.89 97.31,53.04 98.19,51.91 99.34,51.25 102.55,49.4 105.78,48.39 108.69,46.21 106.65,45.93 105.89,46.93 103.89,46.69 100.51,48.9 95.2,50.33 91.41,52.69 89.7,53.77 88.22,55.63 86.85,55.33 85.23,54.98 85.03,53.56 85.41,51.97 85.9,49.97 88.43,50.53 88.05,48.13 95.49,44.42 104.26,39.02 112.05,35.17 113.4,34.51 114.97,34.25 116.13,33.49 124.88,27.8 121.96,11.19 109.65,11.41 104.03,5.35 94.54,8.57 87.09,10.45 85.96,10.74 84.76,10.62 83.73,10.93 82.64,11.27 81.58,12.21 80.38,12.61 79.22,13 77.96,12.95 77.01,13.33 75.78,13.84 74.85,14.88 73.65,15.49 72.68,16 71.48,16.17 70.53,16.69 69.05,17.52 67.87,19.31 66.46,20.53 64.38,22.33 62.25,23.34 61.17,26.05 59.76,26.64 58.35,27.26 57.34,28.21 52.47,32.81 53.05,41.94 57.34,46.69 54.9,44.01 53.85,39.93 51.57,37.09 54.51,30.82 57.8,25.56 62.85,21.01 66.5,17.74 70.51,16.57 75.34,13.81 81.31,10.4 89.38,6.18 97.89,5.41 104.6,4.81 110.32,5.37 116.61,6.13 124.37,7.07 130.66,9.65 137.97,11.41 145.75,13.29 152.67,16.77 157.41,21.73 158.73,29.54 162.56,34.83 166.77,39.73 167.76,47.87 170.21,54.54 172.53,61.33 170.98,68.42 170.32,76.4 168.69,83.41 166.71,81.48 167.28,76.99 166.53,73.81 167.28,74.47 167.67,72.86 167.97,72.37 169.63,69.73 171.77,64.85 171.09,59.65 170.55,55.44 167.42,51.98 165.81,49.33 166.56,45.85 164.42,43.48 163.41,40.93 162.35,38.24 161.48,35.29 159.57,32.77 157.71,30.31 155.4,26.92 153.57,26.77 150.95,26.57 149.17,29.56 151.65,30.85 149.04,31.83 150.61,35.65 153.09,35.65 149.31,40.9 155.47,46.03 155.73,51.25 155.8,52.63 155.19,53.94 155.25,55.09 155.41,58.06 157.92,59.5 157.89,62.53 155.51,62.71 153.77,63.53 152.13,64.45 149.66,63.15 146.48,62.54 143.49,61.09 140.63,59.71 138.17,57.1 134.38,59.41 132.93,58.86 131.42,58.37 129.34,58.45 129.71,57.56 130.75,56.48 131.73,55.57 132.63,54.76 133.87,53.53 134.85,52.93 135.84,52.34 137.76,52.7 137.73,51.01 136.54,49.77 133.05,50.08 130.77,50.53 121.94,52.29 113.91,58 110.38,65.17 109.34,67.27 109.02,69.09 110.13,71.17 109.44,75.84 110.27,83.06 110.85,87.97 111.02,89.36 112.17,91.7 113.49,92.29 112.87,93.55 108.33,90.35 106.77,88.93 104.74,87.08 103.19,85.12 101.49,83.89 97.85,81.27 93.31,79.24 90.21,76.69 88.73,75.48 87.78,73.22 86.13,71.89 84.54,70.61 82.6,69.96 81.34,68.77 77.55,65.25 75.5,60.34 71.73,57.25 66.91,53.29 61.25,51.67 57.57,46.69 Z M 57.57,46.69" />
        <path id="skull21-skullbezier159" fill-rule="evenodd" stroke="none" fill="rgb(192, 192, 192)" d="M 118.05,87.73 C 117.63,87.52 117.66,86.85 117.09,86.77 115.72,87.88 114.51,89.15 113.97,91.09 L 113.73,91.09 C 114.21,89.32 116.68,84.81 118.05,87.73 Z M 118.05,87.73" />
        <path id="skull21-skullbezier160" fill-rule="evenodd" stroke="none" fill="rgb(192, 192, 192)" d="M 134.37,73.57 C 134.95,72.88 138.15,72.75 138.69,73.57 137.69,73.14 135.4,73.26 134.37,73.57 Z M 134.37,73.57" />
        <path id="skull21-skullbezier161" fill-rule="evenodd" stroke="none" fill="rgb(192, 192, 192)" d="M 122.85,81.73 C 125.11,77.91 128.72,75.44 133.17,73.81 129,75.72 125.32,78.12 122.85,81.73 Z M 122.85,81.73" />
        <path id="skull21-skullbezier162" fill-rule="evenodd" stroke="none" fill="rgb(192, 192, 192)" d="M 122.61,83.17 C 124.72,86.7 127.11,81.58 129.81,79.81 133.24,77.58 137.41,77.46 138.69,73.81 139.05,74.2 139.7,73.81 139.89,73.33 143.03,74.19 145.65,75.58 148.77,76.45 149.69,80.67 155.62,83.75 160.05,80.77 161.48,80.77 162.06,81.07 163.17,80.53 162.4,84.76 165.34,88.12 166.53,92.05 167.23,94.34 167.21,96.28 168.69,97.81 168.65,103.14 170.96,106.11 173.73,108.61 171.89,108.78 171.02,107.97 169.17,108.13 167.39,105.63 163.57,105.57 160.05,104.29 158.61,103.77 157.3,102.68 155.97,102.37 152.25,101.53 148.57,102.21 145.17,100.69 146.93,99.25 150.77,99.89 152.37,98.29 151.43,96.52 148.1,97.12 146.37,96.13 147.25,93.79 144.64,92.12 141.57,92.29 137.51,92.52 133.47,97.49 139.89,96.61 135.47,96.27 132.37,97.25 128.13,97.09 132.95,96.34 136.99,92.37 142.05,91.57 145.79,90.99 148.43,91.2 150.21,88.69 152.2,85.89 150.46,81.43 147.09,80.77 139.77,79.35 132.02,83.52 127.65,85.81 127.87,84.59 129.44,82.64 129.57,80.53 127.9,80.86 126.7,83.74 124.77,84.61 123.45,84.74 122.72,84.27 122.61,83.17 Z M 122.61,83.17" />
        <path id="skull21-skullbezier163" fill-rule="evenodd" stroke="none" fill="rgb(192, 192, 192)" d="M 45.09,46.69 C 46.08,45.52 46.2,43.48 47.73,42.85 48.36,44.07 48.95,45.32 49.41,46.69 48.54,45.81 48.29,44.3 47.73,43.09 46.28,43.72 46.36,45.88 45.09,46.69 Z M 45.09,46.69" />
        <path id="skull21-skullbezier164" fill-rule="evenodd" stroke="none" fill="rgb(192, 192, 192)" d="M 43.89,49.57 C 43.65,50.61 43.41,51.65 42.93,52.45 43.14,51.38 43.25,50.22 43.89,49.57 Z M 43.89,49.57" />
        <path id="skull21-skullbezier165" fill-rule="evenodd" stroke="none" fill="rgb(192, 192, 192)" d="M 42.45,54.37 C 40.62,59.44 40.03,68.92 45.81,70.21 46.01,76.01 45.58,81.19 45.09,86.29 45.61,86.72 46.37,85.34 47.49,85.57 45.88,86.29 44.56,87.28 42.93,87.97 43.53,85.84 41.85,84.09 41.49,81.97 41.22,80.39 41.63,78.47 41.25,76.69 40.97,75.34 40.15,74.15 40.05,72.85 39.9,70.81 40.68,67.54 40.53,64.69 40.47,63.38 39.99,62.11 40.05,61.09 40.08,60.74 40.72,60.22 40.77,59.65 40.98,57.59 41.37,56.15 42.45,54.37 Z M 42.45,54.37" />
        <path id="skull21-skullbezier166" fill-rule="evenodd" stroke="none" fill="rgb(192, 192, 192)" d="M 48.69,83.17 C 48.57,84.17 48.78,85.5 47.73,85.57 48.52,85.24 48.17,83.77 48.69,83.17 Z M 48.69,83.17" />
        <path id="skull21-skullbezier167" fill-rule="evenodd" stroke="none" fill="rgb(192, 192, 192)" d="M 49.41,77.89 C 48.42,78.74 49.38,81.54 48.69,82.69 48.89,81.05 48.16,78.48 49.41,77.89 Z M 49.41,77.89" />
        <path id="skull21-skullbezier168" fill-rule="evenodd" stroke="none" fill="rgb(192, 192, 192)" d="M 51.09,68.77 C 51.69,67.2 51,67.01 51.09,64.93 51.44,66.49 52.06,67.62 51.09,68.77 Z M 51.09,68.77" />
        <path id="skull21-skullbezier169" fill-rule="evenodd" stroke="none" fill="rgb(192, 192, 192)" d="M 51.57,58.93 C 52.11,59.04 51.58,60.21 52.05,60.37 L 52.05,60.61 C 51.14,61.3 51.65,63.41 51.09,64.45 50.9,62.26 51.72,61.08 51.57,58.93 Z M 51.57,58.93" />
        <path id="skull21-skullbezier170" fill-rule="evenodd" stroke="none" fill="rgb(192, 192, 192)" d="M 52.05,73.09 C 52.29,73.1 52.24,73.39 52.29,73.57 52.95,73.75 52.12,72.44 52.77,72.61 L 52.77,74.05 C 52.14,74.13 52.16,73.55 52.05,73.09 Z M 52.05,73.09" />
        <path id="skull21-skullbezier171" fill-rule="evenodd" stroke="none" fill="rgb(192, 192, 192)" d="M 55.41,70.21 C 56.39,71.07 57.26,72.05 57.09,74.05 56.82,72.48 56.27,71.2 55.41,70.21 Z M 55.41,70.21" />
        <path id="skull21-skullbezier172" fill-rule="evenodd" stroke="none" fill="rgb(192, 192, 192)" d="M 57.33,75.73 C 57.5,77.97 58.29,79.58 58.77,81.49 58.06,79.8 57.09,78.38 57.33,75.73 Z M 57.33,75.73" />
        <path id="skull21-skullbezier173" fill-rule="evenodd" stroke="none" fill="rgb(192, 192, 192)" d="M 58.53,87.01 C 58.27,88.43 58.17,90.01 57.81,91.33 57.76,89.6 57.98,88.14 58.53,87.01 Z M 58.53,87.01" />
        <path id="skull21-skullbezier174" fill-rule="evenodd" stroke="none" fill="rgb(192, 192, 192)" d="M 56.13,153.97 C 59.79,154.37 62.84,151.81 66.21,153.49 62.45,152.18 59.49,154.89 56.13,153.97 Z M 56.13,153.97" />
        <path id="skull21-skullbezier175" fill-rule="evenodd" stroke="none" fill="rgb(192, 192, 192)" d="M 68.13,153.97 C 69.17,154.54 71.04,154.27 72.21,154.69 70.55,154.76 68.95,154.75 68.13,153.97 Z M 68.13,153.97" />
        <path id="skull21-skullbezier176" fill-rule="evenodd" stroke="none" fill="rgb(192, 192, 192)" d="M 89.25,184.21 C 89.4,183.32 88.86,181.74 89.73,181.57 89.12,182 89.89,183.81 89.25,184.21 Z M 89.25,184.21" />
        <path id="skull21-skullbezier177" fill-rule="evenodd" stroke="none" fill="rgb(192, 192, 192)" d="M 91.65,174.13 C 91.12,173.87 91,173.18 90.45,172.93 89.23,173.26 89.69,174.06 89.73,175.33 88.22,173.33 91.12,171.67 91.65,174.13 Z M 91.65,174.13" />
        <path id="skull21-skullbezier178" fill-rule="evenodd" stroke="none" fill="rgb(255, 255, 255)" d="M 93.57,176.05 C 93.2,175.15 92.56,174.51 91.65,174.13 91.12,171.67 88.22,173.33 89.73,175.33 89.99,177.17 91.78,180.36 89.73,181.57 88.86,181.74 89.4,183.32 89.25,184.21 L 89.25,184.69 C 84.76,183.89 85.1,174.46 88.05,172.21 90.92,170.99 95.41,172.08 94.77,177.01 93.87,177.2 94.25,176.1 93.57,176.05 Z M 93.57,176.05" />
        <path id="skull21-skullbezier179" fill-rule="evenodd" stroke="none" fill="rgb(192, 192, 192)" d="M 81.57,163.09 C 78.12,159.99 76.5,168.65 81.57,167.89 82.73,166.96 82.41,163.84 81.57,163.09 Z M 127.41,151.81 C 126.82,154.42 128.66,155.37 129.33,156.61 130.37,158.52 130.74,161.78 132.93,159.73 131.7,155.21 130.47,150.68 125.97,149.41 125.99,150.68 127.26,150.69 127.41,151.81 Z M 100.29,129.73 C 101.7,129.72 102.87,128.4 102.21,127.09 100.72,127.12 100.91,128.83 100.29,129.73 Z M 114.69,126.61 C 112.73,126.02 110,127.04 110.61,129.25 111.33,131.86 115.81,129.02 118.05,129.97 117.64,128.87 116.24,127.08 114.69,126.61 Z M 65.73,99.25 C 65.62,96.29 60.45,95.7 57.81,97.57 56.33,98.63 53.49,103.79 53.25,104.77 52.71,106.99 52.94,108.66 54.69,110.29 57.42,108.14 59.23,105.07 61.41,102.37 63.63,101.87 65.82,101.58 65.73,99.25 Z M 101.73,120.37 C 101.53,119.38 100.98,118.73 100.77,117.73 100.24,117.92 99.47,117.87 99.33,118.45 99.78,119.44 100.39,120.28 101.73,120.37 Z M 83.01,79.33 C 81.62,79.66 81.45,80.99 81.57,81.97 82.03,85.73 91.02,89.63 93.81,90.61 92.93,84.13 86.92,82.79 83.01,79.33 Z M 93.57,176.05 C 94.25,176.1 93.87,177.2 94.77,177.01 95.41,172.08 90.92,170.99 88.05,172.21 85.1,174.46 84.76,183.89 89.25,184.69 89.06,185.7 88.6,186.44 88.29,187.33 87.76,186.99 87.14,186.73 86.13,186.85 85.16,185.59 84.84,183.67 83.25,183.01 82.77,180.31 85.69,176.94 85.41,174.85 84.87,170.74 79.09,174.39 79.41,177.97 77.56,176.6 78.43,174.32 77.97,172.21 77.8,171.41 77.06,171.05 76.77,170.29 76.34,169.17 76.51,167.8 76.05,166.69 75.14,164.49 73.54,163.07 72.45,161.41 75.1,162.42 78.97,163.42 79.17,160.45 79.34,158.04 75.35,156.04 73.17,154.93 74.47,154.71 75.04,153.76 75.81,153.01 84.41,154.16 88.01,148.47 90.69,142.93 95.34,140.54 99.48,137.64 100.77,131.89 98.48,131.36 98.09,134.59 96.45,135.49 93.24,135.88 92.47,138.71 90.45,140.29 90.92,139.32 91.79,138.75 92.37,137.89 86.76,139.24 82.27,141.71 78.45,144.85 81.6,141.28 86.71,139.67 89.73,135.97 L 91.89,135.97 C 96.51,132.62 102.54,125.81 99.09,118.21 92.82,118.63 88.17,115.39 85.41,111.49 83.81,110.38 81.23,110.24 80.61,108.13 82.25,107.85 83.43,109.46 84.93,109.81 85.52,109.95 86.01,109.58 86.61,109.81 90.35,111.27 93.19,114.83 96.93,114.61 99.66,114.46 100.18,111.86 102.45,110.77 102.53,109.9 102.19,109.44 101.97,108.85 99.34,108.77 98.04,107.35 96.69,105.97 92.49,107.08 90.54,102.58 88.05,100.45 89.8,101.32 90.6,103.83 93.33,102.37 94.03,101.15 94.33,98.52 93.57,96.61 92.85,94.79 90.27,93.54 88.77,91.81 87.8,90.68 87.34,89.19 86.13,88.21 84.35,86.76 81.77,85.16 79.65,84.13 75.92,82.32 67.04,80.72 68.37,87.73 69.01,91.09 74.2,91.88 77.97,93.97 80.38,95.31 81.48,97.17 83.97,97.81 79.21,95.01 71.32,96.29 67.65,99.25 70.17,101.16 76.88,101.36 75.09,105.97 73.46,104.01 69.72,104.15 67.65,102.61 64.94,103.5 64.1,106.26 60.21,105.97 57.7,107.7 55.55,110.6 53.97,114.13 52.45,117.53 50.74,121.48 51.33,126.61 51.95,132.02 54.7,135.05 58.53,137.65 61.71,137.44 62.9,139.21 64.77,140.29 64,134.18 56.53,132.24 57.09,126.37 62.48,131.4 64.9,139.2 72.69,140.29 76.6,140.84 80.57,138.8 82.77,137.17 84.44,135.95 85.35,133.82 88.53,134.77 86.39,136.94 85.28,139.25 82.05,140.77 80.8,141.36 78.79,142.37 77.73,142.45 73.95,142.74 68.72,138.83 65.73,142.21 65.98,145.73 69.32,146.14 72.21,147.01 69.12,146.59 66.29,145.9 65.73,142.93 63.39,141.6 61.44,139.87 58.29,139.33 57.72,138.21 56.89,137.38 56.37,137.17 51.05,135.09 48.64,140.43 48.45,145.09 48.24,150.29 51.55,153.16 55.89,153.97 54.66,153.52 52.54,153.67 51.57,154.21 48.52,151.66 44.76,149.83 43.41,145.57 43.46,144.74 44.26,144.66 44.37,143.89 43.58,142.63 44.31,141.61 44.61,140.29 45.1,138.16 44.51,136 44.61,133.81 44.69,132.18 45.75,130.59 46.05,128.77 46.4,126.73 46.81,125.75 47.25,124.21 47.67,122.75 47.49,120.56 47.97,119.17 48.15,118.66 48.65,118.39 48.69,117.97 48.88,116.37 47.88,114.87 47.97,113.17 48.15,110.06 50.52,107.13 52.05,105.25 54.81,101.87 57.2,97.22 57.81,91.81 57.46,93.96 58.36,93.45 59.97,92.29 61.85,90.95 64.77,87.43 64.77,84.37 64.77,82.89 64.2,79.55 63.81,77.17 63.26,73.83 62.24,70.09 61.65,66.61 60.89,62.09 59.49,58.04 56.85,57.01 57.42,56.35 58.31,57.4 59.01,56.77 58.38,56.22 55.67,54.56 54.45,53.41 53.44,52.46 54.49,53.79 53.73,54.61 L 53.73,52.45 C 61.67,58.36 70.17,63.7 75.33,72.37 74.02,72.86 71.6,72.22 71.25,73.81 70.75,76.13 76.18,77.41 77.73,77.65 83.22,78.51 85.33,80.77 89.73,83.65 93.95,86.42 96.28,88.51 99.09,92.29 100.16,93.72 101.35,95.14 101.73,96.37 102.44,98.62 101.34,101.64 103.65,102.61 103.57,103.41 102.96,103.68 103.17,104.77 103.35,105.32 103.9,105.49 104.37,105.73 105.52,105.62 105.88,104.19 105.33,103.09 107.62,102.66 107.81,100.13 107.73,97.33 107.79,96.41 109.1,97.92 109.41,98.29 112.02,99.13 114.13,100.46 115.65,102.37 116.12,108.23 116.51,114.16 117.81,119.17 117.37,129.23 121.72,136.51 127.17,141.97 126.12,141.59 126.14,140.13 124.77,140.05 124.11,141.38 125.93,141.77 127.17,142.93 129.08,144.71 129.66,148.14 132.93,146.53 132.95,145.15 131.68,145.07 131.01,144.37 134.42,145.77 137.16,147.83 141.33,148.45 140.37,148.62 139.96,148.22 139.17,148.21 138.41,149.62 139.48,151.05 139.89,152.05 135.32,154.28 134.07,159.83 131.73,164.29 131.64,163.19 131.88,161.75 131.01,161.41 129.21,162.81 128.53,165.33 125.49,165.49 128.28,162.61 125.63,160.1 124.53,156.85 124.26,156.05 124.34,155.01 124.05,154.21 122.84,150.82 120.04,147.45 119.49,143.89 119.14,141.58 119.93,138.58 119.25,136.69 118.83,135.5 116.08,132.79 114.69,132.13 113.7,131.66 111.74,131.83 110.37,131.17 109.53,130.77 108.91,129.72 108.21,129.49 105.72,128.68 102.97,130.26 101.97,131.65 101.74,130.92 101.33,131.93 101.01,131.89 101.15,132.32 100.72,133.3 101.25,133.33 100.19,138.91 97.2,142.56 96.93,148.93 95.02,153.26 93.69,158.17 93.33,164.05 92.08,164 91.77,164.89 91.17,165.49 90.49,172.06 95.76,173.71 99.57,174.37 101.15,174.65 103.6,174.8 105.09,174.37 108.22,173.49 111.41,168.1 111.57,165.25 111.69,163.24 110.53,161.48 109.17,161.41 106.09,161.28 105.71,168.16 103.65,169.57 102.96,170.05 101.91,169.9 100.77,170.29 107.89,169.18 103.67,156.71 111.09,155.89 111.98,158.45 114.15,159.71 115.41,161.89 116.27,165.67 118.07,168.52 121.17,170.05 120.31,170.12 120.29,169.33 119.49,169.33 121.38,171.88 124.89,174.48 129.09,174.13 131.96,173.9 133.98,172 135.81,170.53 137.05,172.1 139.16,172.79 142.05,172.69 142.34,169.7 142.25,166.33 144.69,165.49 142.41,166.65 142.54,170.22 142.29,173.41 140.41,173.4 135.05,171.66 135.81,174.37 133.62,174.35 134.94,176.37 133.65,177.25 L 133.41,177.25 C 133.02,176.21 132.19,175.59 131.01,175.33 130.47,175.99 130.81,177.53 130.05,177.97 130.18,177.07 130.63,176.48 130.53,175.33 129.36,175.36 128.63,175.83 128.37,176.77 L 128.13,176.77 C 128.47,175.19 126.36,178.19 126.21,179.17 127.33,179.88 127.53,177.61 128.13,177.01 127.99,177.91 127.56,178.52 127.41,179.41 L 126.45,179.41 C 126.41,181.61 124.49,181.93 124.29,183.97 124.12,182.12 125.42,181.74 125.97,180.61 125.17,177.51 119.55,177.58 119.49,181.33 119.87,181.85 120.35,180.45 120.93,180.37 120.28,181.24 119.44,181.93 119.01,183.01 118.26,182.35 117.24,180.42 115.89,181.81 117.19,180.52 114.72,179.91 113.01,180.13 112.7,180.74 113.96,180.89 113.25,181.09 112.82,180.33 111.37,180.58 110.61,180.13 109.05,180.51 108.94,181.03 107.73,180.61 106.88,180.32 106.7,179.09 105.81,178.93 102.56,178.36 103.35,182.75 100.29,183.49 103.01,181.68 98.76,177.99 96.21,179.89 96.16,180.65 97.63,181.11 96.45,181.57 96.06,180.1 94.07,178.22 93.57,176.05 Z M 93.57,176.05" />
        <path id="skull21-skullbezier180" fill-rule="evenodd" stroke="none" fill="rgb(192, 192, 192)" d="M 94.29,184.69 C 95.06,185.39 94.81,187.29 94.29,188.05 94.76,189.55 97.37,191.77 98.85,189.97 98.88,190.72 98.56,191.12 98.37,191.65 97.92,191.23 96.79,191.48 95.97,191.41 94.01,189.66 94.36,187.64 94.29,184.69 Z M 94.29,184.69" />
        <path id="skull21-skullbezier181" fill-rule="evenodd" stroke="none" fill="rgb(255, 255, 255)" d="M 100.29,183.49 C 99.3,183.86 99.5,185.42 99.09,186.37 98.54,186.94 99.01,188.53 98.85,189.49 L 98.85,189.97 C 97.37,191.77 94.76,189.55 94.29,188.05 94.81,187.29 95.06,185.39 94.29,184.69 93.55,183.59 94.89,182.82 94.77,181.57 95.45,181.32 95.77,181.32 96.45,181.57 97.63,181.11 96.16,180.65 96.21,179.89 98.76,177.99 103.01,181.68 100.29,183.49 Z M 100.29,183.49" />
        <path id="skull21-skullbezier182" fill-rule="evenodd" stroke="none" fill="rgb(255, 255, 255)" d="M 110.61,191.41 C 109.51,188.31 110.51,186.26 110.61,182.77 111.95,182.67 112.4,181.68 113.25,181.09 113.96,180.89 112.7,180.74 113.01,180.13 114.72,179.91 117.19,180.52 115.89,181.81 L 115.89,182.53 C 115.64,183.91 116.73,183.94 116.85,184.93 116.27,185.15 116.22,185.9 116.13,186.61 L 116.13,186.85 C 115.74,187.35 115.74,189.48 116.13,189.97 116.39,190.6 116.72,191.15 116.61,192.13 116.29,193.41 115.18,193.9 114.93,195.25 111.9,195.56 110.87,193.88 110.61,191.41 Z M 110.61,191.41" />
        <path id="skull21-skullbezier183" fill-rule="evenodd" stroke="none" fill="rgb(192, 192, 192)" d="M 116.61,192.13 C 116.89,193.3 114.95,194.3 114.93,195.97 113.26,196.13 112.26,195.6 111.09,195.25 110.6,194.31 110.56,192.9 110.61,191.41 110.87,193.88 111.9,195.56 114.93,195.25 115.18,193.9 116.29,193.41 116.61,192.13 Z M 116.61,192.13" />
        <path id="skull21-skullbezier184" fill-rule="evenodd" stroke="none" fill="rgb(192, 192, 192)" d="M 115.89,182.53 C 116.15,183.48 116.75,184.08 117.09,184.93 116.52,185.24 116.61,186.21 116.13,186.61 116.22,185.9 116.27,185.15 116.85,184.93 116.73,183.94 115.64,183.91 115.89,182.53 Z M 115.89,182.53" />
        <path id="skull21-skullbezier185" fill-rule="evenodd" stroke="none" fill="rgb(192, 192, 192)" d="M 122.13,179.41 C 122.47,178.71 123.69,178.89 124.05,179.41 123.36,180.33 123.16,181.72 122.37,182.53 122.79,181.51 123.09,180.37 123.81,179.65 123.69,178.83 122.66,179.29 122.13,179.41 Z M 122.13,179.41" />
        <path id="skull21-skullbezier186" fill-rule="evenodd" stroke="none" fill="rgb(192, 192, 192)" d="M 133.17,179.41 C 132.95,180.39 132.79,181.43 132.45,182.29 132.32,180.96 132.69,180.13 133.17,179.41 Z M 133.17,179.41" />
        <path id="skull21-skullbezier187" fill-rule="evenodd" stroke="none" fill="rgb(192, 192, 192)" d="M 136.05,174.37 C 136.67,174.92 136.66,173.39 137.97,173.89 138.69,174.66 138.2,175.31 138.21,176.53 137.5,175.87 138.61,174.87 137.97,174.13 136.66,173.56 136.56,175.58 136.05,174.37 Z M 136.05,174.37" />
        <path id="skull21-skullbezier188" fill-rule="evenodd" stroke="none" fill="rgb(192, 192, 192)" d="M 141.09,177.01 C 140.82,177.7 141.05,178.89 140.61,179.41 140.59,178.43 140.57,177.46 141.09,177.01 Z M 141.09,177.01" />
        <path id="skull21-skullbezier189" fill-rule="evenodd" stroke="none" fill="rgb(192, 192, 192)" d="M 142.29,173.65 C 142.22,174.7 141.69,175.29 141.33,176.05 141.41,175.01 141.94,174.42 142.29,173.65 Z M 142.29,173.65" />
        <path id="skull21-skullbezier190" fill-rule="evenodd" stroke="none" fill="rgb(255, 255, 255)" d="M 147.57,160.69 C 145.56,161.24 144.98,163.22 144.69,165.49 142.25,166.33 142.34,169.7 142.05,172.69 139.16,172.79 137.05,172.1 135.81,170.53 133.98,172 131.96,173.9 129.09,174.13 124.89,174.48 121.38,171.88 119.49,169.33 120.29,169.33 120.31,170.11 121.17,170.05 122.51,169.97 123.59,169.59 124.53,170.29 127.95,170.99 129.72,167.96 131.25,165.97 131.23,165.23 131.55,164.83 131.73,164.29 134.07,159.83 135.32,154.28 139.89,152.05 139.48,151.05 138.41,149.62 139.17,148.21 139.96,148.22 140.37,148.62 141.33,148.45 L 146.37,148.45 C 147.41,148.37 148.89,148.73 149.25,147.97 150.64,147.2 151.94,146.34 153.81,146.05 158.69,144.69 161.76,141.52 163.89,137.41 163.83,137.03 164.12,137 164.13,136.69 165.82,135.18 166.68,132.84 167.97,130.93 171.17,132.46 171.41,136.94 171.33,141.73 173.2,140.96 174.83,137.87 176.13,135.73 175.82,134.45 175.02,133.65 174.45,132.61 172.98,132.07 170.67,132.68 170.85,130.93 171,129.51 176.22,130.02 178.05,131.17 180.48,132.7 179.9,134.65 181.17,135.73 181.58,136.13 181.36,137.14 181.41,137.89 181.21,138.17 181.1,138.54 181.17,139.09 179.68,144.08 175.77,146.65 172.77,150.13 171.71,150.75 170.68,151.4 169.41,151.81 168.1,152.19 166.77,152.53 165.81,153.25 165.37,153.45 164.93,153.66 164.37,153.73 L 164.37,153.49 C 160.91,153.46 158.57,156.44 154.53,156.61 152.82,156.98 151.5,157.74 149.97,158.29 148.93,158.85 148.55,160.07 147.57,160.69 Z M 147.57,160.69" />
        <path id="skull21-skullbezier191" fill-rule="evenodd" stroke="none" fill="rgb(192, 192, 192)" d="M 147.57,160.69 C 148.55,160.07 148.93,158.85 149.97,158.29 149.11,159.03 148.81,160.33 147.57,160.69 Z M 147.57,160.69" />
        <path id="skull21-skullbezier192" fill-rule="evenodd" stroke="none" fill="rgb(192, 192, 192)" d="M 165.81,153.25 C 166.77,152.53 168.11,152.19 169.41,151.81 168.44,152.52 167.03,152.79 165.81,153.25 Z M 165.81,153.25" />
        <path id="skull21-skullbezier193" fill-rule="evenodd" stroke="none" fill="rgb(192, 192, 192)" d="M 181.65,139.33 C 181.34,140.78 180.51,141.71 180.21,143.17 177.02,144.78 176.65,149.21 172.77,150.13 175.77,146.65 179.68,144.08 181.17,139.09 181.37,139.14 181.41,139.33 181.65,139.33 Z M 181.65,139.33" />
        <path id="skull21-skullbezier194" fill-rule="evenodd" stroke="none" fill="rgb(192, 192, 192)" d="M 164.13,136.69 C 166.6,133.32 168.29,129.17 170.37,125.41 L 173.97,125.41 C 175.75,129.48 180.12,130.95 181.17,135.73 179.9,134.65 180.48,132.7 178.05,131.17 176.22,130.02 171,129.51 170.85,130.93 170.67,132.68 172.99,132.07 174.45,132.61 175.02,133.65 175.82,134.45 176.13,135.73 174.83,137.87 173.2,140.96 171.33,141.73 171.41,136.94 171.17,132.46 167.97,130.93 166.68,132.84 165.82,135.18 164.13,136.69 Z M 164.13,136.69" />
        <path id="skull21-skullbezier195" fill-rule="evenodd" stroke="none" fill="rgb(192, 192, 192)" d="M 163.89,137.41 C 161.76,141.52 158.69,144.69 153.81,146.05 158.44,144.44 161.51,141.27 163.89,137.41 Z M 163.89,137.41" />
        <path id="skull21-skullbezier196" fill-rule="evenodd" stroke="none" fill="rgb(192, 192, 192)" d="M 146.37,148.45 C 146.93,147.89 148.63,148.48 149.25,147.97 148.89,148.73 147.41,148.37 146.37,148.45 Z M 146.37,148.45" />
        <path id="skull21-skullbezier197" fill-rule="evenodd" stroke="none" fill="rgb(255, 255, 255)" d="M 129.57,143.89 C 130.33,143.78 130.51,144.24 131.01,144.37 131.68,145.07 132.95,145.15 132.93,146.53 129.66,148.14 129.08,144.71 127.17,142.93 125.93,141.77 124.11,141.38 124.77,140.05 126.14,140.13 126.12,141.59 127.17,141.97 L 127.41,141.97 C 127.91,142.84 128.68,143.43 129.57,143.89 Z M 129.57,143.89" />
        <path id="skull21-skullbezier198" fill-rule="evenodd" stroke="none" fill="rgb(192, 192, 192)" d="M 127.41,141.97 C 128.11,142.64 128.99,143.12 129.57,143.89 128.68,143.43 127.91,142.84 127.41,141.97 Z M 127.41,141.97" />
        <path id="skull21-skullbezier199" fill-rule="evenodd" stroke="none" fill="rgb(192, 192, 192)" d="M 49.65,46.69 C 49.93,47.39 51.14,48.4 50.37,49.33 50.69,47.9 49.53,47.94 49.65,46.69 Z M 49.65,46.69" />
        <path id="skull21-skullbezier200" fill-rule="evenodd" stroke="none" fill="rgb(255, 255, 255)" d="M 128.13,177.01 C 127.53,177.61 127.33,179.88 126.21,179.17 126.36,178.19 128.48,175.19 128.13,176.77 L 128.13,177.01 Z M 128.13,177.01" />
        <path id="skull21-skullbezier201" fill-rule="evenodd" stroke="none" fill="rgb(192, 192, 192)" d="M 165.33,59.89 C 165.75,58.91 167.05,56.67 167.97,57.73 166.66,57.14 166.22,59.29 165.33,59.89 Z M 165.33,59.89" />
        <path id="skull21-skullbezier202" fill-rule="evenodd" stroke="none" fill="rgb(192, 192, 192)" d="M 164.85,64.93 C 165.92,65.62 165.92,66.67 166.05,67.81 166.04,67.08 166.27,66.59 166.77,66.37 166.22,66.86 166.53,68.21 165.57,68.29 165.93,66.47 165.58,66.05 164.85,64.93 Z M 164.85,64.93" />
        <path id="skull21-skullbezier203" fill-rule="evenodd" stroke="none" fill="rgb(192, 192, 192)" d="M 122.61,75.25 C 123.8,74.12 125.1,73.1 127.41,73.09 127.49,73.73 127.08,73.88 126.45,73.81 126.51,73.47 127.17,73.73 127.17,73.33 125,73.32 124.03,74.51 122.61,75.25 Z M 122.61,75.25" />
        <path id="skull21-skullbezier204" fill-rule="evenodd" stroke="none" fill="rgb(192, 192, 192)" d="M 117.57,79.09 C 118.14,78.06 118.93,77.26 119.97,76.69 119.16,77.48 118.36,78.28 117.57,79.09 Z M 117.57,79.09" />
        <path id="skull21-skullbezier205" fill-rule="evenodd" stroke="none" fill="rgb(255, 255, 255)" d="M 167.97,57.73 C 167.05,56.67 165.75,58.9 165.33,59.89 164.98,61.71 164.52,62.97 164.85,64.93 165.58,66.05 165.93,66.47 165.57,68.29 166.53,68.21 166.22,66.86 166.77,66.37 168.06,64.48 169.35,60.06 167.97,57.73 Z M 117.57,79.09 C 117.39,80.19 116.28,80.36 115.89,81.25 115.42,81.98 114.98,82.74 114.69,83.65 114.71,83.96 115,83.99 114.93,84.37 117.9,82.94 119.61,80.25 121.41,77.65 122.43,76.99 123.09,75.97 123.81,75.01 124.63,74.55 125.38,74.02 126.45,73.81 127.08,73.88 127.49,73.73 127.41,73.09 125.1,73.1 123.8,74.12 122.61,75.25 121.9,75.9 120.97,76.33 119.97,76.69 118.94,77.26 118.14,78.06 117.57,79.09 Z M 166.53,73.81 L 166.53,72.85 C 166.38,72.12 166.84,70.79 166.29,70.45 166.17,70.26 166.04,70.06 166.05,69.73 162.79,71.03 164.5,77.3 163.17,80.53 162.06,81.07 161.48,80.77 160.05,80.77 155.62,83.75 149.69,80.67 148.77,76.45 145.65,75.58 143.04,74.19 139.89,73.33 139.7,73.81 139.05,74.2 138.69,73.81 L 138.69,73.57 C 138.15,72.75 134.95,72.88 134.37,73.57 134.1,73.78 133.73,73.89 133.17,73.81 128.72,75.44 125.11,77.91 122.85,81.73 122.86,82.3 122.44,82.44 122.61,83.17 122.72,84.27 123.45,84.74 124.77,84.61 126.7,83.74 127.9,80.86 129.57,80.53 129.44,82.64 127.87,84.59 127.65,85.81 132.02,83.52 139.77,79.35 147.09,80.77 150.46,81.43 152.2,85.89 150.21,88.69 148.44,91.2 145.79,90.98 142.05,91.57 136.99,92.37 132.95,96.34 128.13,97.09 L 125.01,97.09 125.01,96.85 C 122.74,96.81 122.48,94.75 120.93,93.97 119.97,94.07 118.64,94.74 117.81,94.21 118.06,92.07 118.57,89.98 118.05,87.73 116.68,84.81 114.21,89.32 113.73,91.09 113.93,91.77 113.4,91.72 113.49,92.29 112.17,91.7 111.02,89.36 110.85,87.97 110.27,83.06 109.44,75.84 110.13,71.17 109.02,69.09 109.34,67.27 110.37,65.17 113.91,58 121.94,52.29 130.77,50.53 133.04,50.08 136.54,49.77 137.73,51.01 137.76,52.7 135.84,52.34 134.85,52.93 133.87,53.53 132.62,54.76 131.73,55.57 130.75,56.48 129.71,57.56 129.33,58.45 131.42,58.37 132.93,58.86 134.37,59.41 138.16,57.1 140.63,59.71 143.49,61.09 146.48,62.54 149.66,63.15 152.13,64.45 153.77,63.53 155.51,62.71 157.89,62.53 157.92,59.5 155.41,58.06 155.25,55.09 155.19,53.94 155.8,52.63 155.73,51.25 155.47,46.03 149.31,40.9 153.09,35.65 150.61,35.65 149.04,31.83 151.65,30.85 149.17,29.56 150.95,26.57 153.57,26.77 155.4,26.92 157.71,30.31 159.57,32.77 161.48,35.29 162.35,38.24 163.41,40.93 164.42,43.48 166.56,45.85 165.81,49.33 167.42,51.98 170.55,55.44 171.09,59.65 171.77,64.85 169.63,69.73 167.97,72.37 167.67,72.86 167.28,74.47 166.53,73.81 Z M 166.53,73.81" />
        <path id="skull21-skullbezier206" fill-rule="evenodd" stroke="none" fill="rgb(192, 192, 192)" d="M 115.89,81.25 C 115.72,82.28 115.21,82.98 114.69,83.65 114.98,82.74 115.42,81.98 115.89,81.25 Z M 115.89,81.25" />
        <path id="skull21-skullbezier207" fill-rule="evenodd" stroke="none" fill="rgb(192, 192, 192)" d="M 121.41,77.65 C 122.24,76.8 122.85,75.73 123.81,75.01 123.09,75.97 122.43,76.99 121.41,77.65 Z M 121.41,77.65" />
        <path id="skull21-skullbezier208" fill-rule="evenodd" stroke="none" fill="rgb(192, 192, 192)" d="M 84.21,97.81 C 85.46,98.65 86.72,99.47 87.81,100.45 86.51,99.68 85.17,98.94 84.21,97.81 Z M 84.21,97.81" />
        <path id="skull21-skullbezier209" fill-rule="evenodd" stroke="none" fill="rgb(192, 192, 192)" d="M 72.69,147.01 C 73.64,146.69 74.43,146.2 75.33,145.81 74.61,146.37 74.02,147.06 72.69,147.01 Z M 72.69,147.01" />
        <path id="skull21-skullbezier210" fill-rule="evenodd" stroke="none" fill="rgb(192, 192, 192)" d="M 163.65,127.33 C 163.62,126.72 163.3,126.4 162.69,126.37 L 162.45,126.37 C 162.64,124.77 161.69,123.27 162.93,122.53 165.21,122.63 163.6,126.62 163.65,127.33 Z M 163.65,127.33" />
        <path id="skull21-skullbezier211" fill-rule="evenodd" stroke="none" fill="rgb(192, 192, 192)" d="M 131.25,165.97 C 129.72,167.96 127.95,170.99 124.53,170.29 128.39,170.47 129.26,167.66 131.25,165.97 Z M 131.25,165.97" />
        <path id="skull21-skullbezier212" fill-rule="evenodd" stroke="none" fill="rgb(192, 192, 192)" d="M 98.13,170.05 C 98.77,170.3 99.61,170.34 100.53,170.29 100.1,170.79 98.31,170.62 98.13,170.05 Z M 98.13,170.05" />
        <path id="skull21-skullbezier213" fill-rule="evenodd" stroke="none" fill="rgb(192, 192, 192)" d="M 93.81,166.69 C 94.52,168.47 96.65,168.82 97.89,170.05 96.33,169.14 94.33,168.66 93.81,166.69 Z M 93.81,166.69" />
        <path id="skull21-skullbezier214" fill-rule="evenodd" stroke="none" fill="rgb(255, 255, 255)" d="M 101.97,131.65 C 101.91,132.39 101.45,132.73 101.25,133.33 100.72,133.3 101.15,132.32 101.01,131.89 101.33,131.93 101.74,130.92 101.97,131.65 Z M 101.97,131.65" />
        <path id="skull21-skullbezier215" fill-rule="evenodd" stroke="none" fill="rgb(255, 255, 255)" d="M 87.81,143.41 C 87.49,143.49 87.62,144.02 87.57,144.37 89.23,144.51 89.29,143.05 90.69,142.93 88.01,148.47 84.41,154.16 75.81,153.01 75.04,153.76 74.47,154.71 73.17,154.93 72.67,155.04 72.54,154.77 72.21,154.69 71.04,154.27 69.17,154.54 68.13,153.97 67.25,154.05 66.8,153.71 66.21,153.49 62.84,151.81 59.79,154.37 56.13,153.97 L 55.89,153.97 C 51.56,153.16 48.24,150.29 48.46,145.09 48.64,140.44 51.05,135.09 56.38,137.17 56.89,137.38 57.72,138.21 58.29,139.33 61.44,139.87 63.39,141.6 65.73,142.93 66.29,145.9 69.12,146.59 72.21,147.01 L 72.69,147.01 C 74.02,147.06 74.61,146.37 75.34,145.81 76.35,145.47 77.24,145 78.46,144.85 82.27,141.71 86.76,139.24 92.38,137.89 91.79,138.75 90.92,139.32 90.46,140.29 L 90.46,140.53 C 89.52,141.44 88.68,142.44 87.81,143.41 Z M 87.81,143.41" />
        <path id="skull21-skullbezier216" fill-rule="evenodd" stroke="none" fill="rgb(192, 192, 192)" d="M 87.81,143.41 C 88.68,142.44 89.52,141.44 90.46,140.53 89.77,141.69 88.85,142.61 87.81,143.41 Z M 87.81,143.41" />
        <path id="skull21-skullbezier217" fill-rule="evenodd" stroke="none" fill="rgb(192, 192, 192)" d="M 151.65,182.53 C 151.69,180.47 150.63,178.77 150.93,176.77 151.16,175.31 152.57,173.21 152.85,171.25 153.07,169.79 152.59,168.52 154.05,168.13 155.29,168.74 154.66,171.2 155.97,171.73 157.63,170.43 159.61,169.45 159.33,166.21 160.75,166.19 162.38,166.38 163.17,165.73 164.95,168.67 162.09,173.8 164.13,176.77 163.62,179.68 164.4,182.58 162.69,184.45 162.26,184.83 161.23,185.85 161.73,186.37 160.22,191.79 155.11,196 155.97,202.21 155.32,202.36 155.38,203.22 154.53,203.17 154.65,202.26 154.43,201.68 153.81,201.49 148.71,204.15 148.27,211.47 145.89,216.85 144.39,218.23 142.77,219.49 141.81,221.41 139.67,221.12 137.73,222.29 136.53,222.13 135.42,222.19 136.77,221.28 136.05,220.93 134.08,221.57 131.75,222.37 129.57,222.13 128.25,221.99 126.9,220.96 125.49,220.93 124.82,220.92 124.16,221.29 123.57,221.17 122.18,220.91 121.1,219.68 119.73,219.25 112.78,217.07 105.98,218.42 100.53,222.13 97.63,221.04 95.5,223.04 93.33,222.61 91.76,222.3 89.29,219.47 88.05,218.29 86.26,216.6 84.89,214.7 83.25,213.49 83.28,211.95 82.78,210.93 82.53,209.65 85.29,209.36 84.9,212.75 86.37,213.73 88.08,214.88 90.28,213.87 92.85,214.69 93.76,211.61 90.69,210.47 89.97,208.21 91.22,209.29 91.43,211.4 93.81,211.33 93.29,216.86 101.34,220.05 104.61,215.89 109.42,220.33 115.02,209.56 108.45,209.41 109.39,208.91 110.42,208.51 111.09,207.73 112.13,208.7 113.28,209.54 115.41,209.41 112.84,209.92 111.69,211.02 111.81,213.01 112.09,217.25 118.86,216 118.53,211.57 118.44,210.35 117.34,208.73 115.65,209.41 117.08,208.12 119.23,207.55 119.97,205.57 121.99,205.88 122.17,208.02 124.53,207.97 124.1,208.74 123.42,209.26 123.57,210.61 119.87,207.86 116.82,215.82 121.17,216.61 122.7,216.89 124.5,216.04 125.01,213.73 126.45,214.23 128.21,214.41 129.33,213.49 129.24,212.87 128.62,212.77 128.61,212.05 129.11,212.55 129.76,213.79 130.53,213.25 131.75,213.11 131.47,211.47 132.21,210.85 133.96,210.44 135.19,209.51 135.33,207.49 L 135.33,207.25 C 135.62,207.29 135.54,207.69 135.57,207.97 136.16,208.23 137.79,207.48 138.93,207.49 137.53,210.02 140.83,213.82 142.53,210.37 150.06,209.1 148.41,198.65 153.09,194.53 153.13,193.21 153.78,192.5 154.05,191.41 156.49,189.61 157.51,186.39 157.41,182.05 157.67,182.11 157.58,182.53 157.89,182.53 158.34,181.41 158.17,179.83 158.85,178.45 159.37,178.41 158.96,179.31 159.09,179.65 159.88,176.8 161.75,171.48 159.09,169.33 157.92,170.16 157.36,171.6 155.73,171.97 155.92,173.15 154.89,174.62 156.45,173.89 155.94,174.26 155.56,174.76 155.01,175.09 155.1,174.78 155.44,174.72 155.49,174.37 152.89,175.77 152.17,179.05 151.65,182.53 Z M 151.65,182.53" />
        <path id="skull21-skullbezier218" fill-rule="evenodd" stroke="none" fill="rgb(192, 192, 192)" d="M 151.41,183.73 C 151.38,186.18 150.59,187.87 149.73,189.49 149.42,190.76 151.92,190.99 150.69,191.65 148.25,189.47 150.96,186.48 151.41,183.73 Z M 151.41,183.73" />
        <path id="skull21-skullbezier219" fill-rule="evenodd" stroke="none" fill="rgb(192, 192, 192)" d="M 142.77,197.89 C 144.45,197.51 145.11,194.02 144.21,192.61 143.21,193.77 142.41,195.13 140.85,195.73 140.61,193.34 140.04,191.27 138.69,189.97 139.16,188.36 140.81,187.93 142.3,186.61 144.49,184.67 144.02,190.4 148.05,189.49 147.11,191.07 148.95,192.56 150.46,191.65 150.44,192.39 148.89,192.22 148.53,191.89 147.91,195.04 145.05,197.2 142.77,197.89 Z M 142.77,197.89" />
        <path id="skull21-skullbezier220" fill-rule="evenodd" stroke="none" fill="rgb(192, 192, 192)" d="M 135.33,202.21 C 135.81,201.17 137.17,201.01 137.97,200.29 137.62,201.46 135.96,201.32 135.33,202.21 Z M 135.33,202.21" />
        <path id="skull21-skullbezier221" fill-rule="evenodd" stroke="none" fill="rgb(192, 192, 192)" d="M 129.09,205.81 C 129.89,205.25 129.4,202.13 131.01,203.17 129.24,202.92 130.4,205.6 129.09,205.81 Z M 129.09,205.81" />
        <path id="skull21-skullbezier222" fill-rule="evenodd" stroke="none" fill="rgb(192, 192, 192)" d="M 125.01,207.97 C 125.77,207.61 126.8,207.52 127.41,207.01 126.95,207.67 126.21,208.05 125.01,207.97 Z M 125.01,207.97" />
        <path id="skull21-skullbezier223" fill-rule="evenodd" stroke="none" fill="rgb(255, 255, 255)" d="M 108.21,202.93 C 108.56,203.79 108.9,204.65 108.93,205.81 108.26,206.02 107.95,206.59 107.01,206.53 106.69,206.77 106.29,206.93 106.05,207.25 103.4,206.64 102.03,200.52 105.57,199.81 106.08,201.22 106.93,202.3 108.21,202.93 Z M 108.21,202.93" />
        <path id="skull21-skullbezier224" fill-rule="evenodd" stroke="none" fill="rgb(192, 192, 192)" d="M 101.49,202.69 C 101.45,201.13 101.63,199.79 101.97,198.61 106.13,197.98 106.07,201.56 108.21,202.93 106.93,202.3 106.08,201.22 105.57,199.81 102.03,200.52 103.4,206.64 106.05,207.25 106.29,206.93 106.69,206.77 107.01,206.53 105.81,207.19 105.92,208.7 107.01,209.41 106.27,209.63 105.9,210.22 105.09,210.37 104.56,207.92 101.15,205.82 98.85,207.97 97.68,207.95 97.51,206.92 96.93,206.29 L 96.93,206.05 C 98.45,206.44 100.03,206.33 101.01,205.57 101.58,206.81 103.25,208.09 104.85,207.49 103.8,206.07 101.54,204.57 101.49,202.93 L 101.49,203.17 C 102.03,203.07 102.35,202.75 102.45,202.21 101.7,201.94 101.87,202.59 101.49,202.69 Z M 101.49,202.69" />
        <path id="skull21-skullbezier225" fill-rule="evenodd" stroke="none" fill="rgb(192, 192, 192)" d="M 84.69,200.05 C 85.69,200.74 86.35,201.76 87.33,202.45 89.61,201.77 89.89,203.07 91.17,203.89 90.13,203.82 89.8,203.03 89.25,202.45 86.83,203.42 85.8,201.19 84.69,200.05 Z M 84.69,200.05" />
        <path id="skull21-skullbezier226" fill-rule="evenodd" stroke="none" fill="rgb(255, 255, 255)" d="M 79.41,192.37 C 79.67,193.32 79.99,194.19 80.61,194.77 81.39,194.72 81.63,195.2 82.53,195.01 83.12,196.83 84.2,198.14 84.69,200.05 85.8,201.19 86.83,203.42 89.25,202.45 89.8,203.03 90.13,203.82 91.17,203.89 94.01,203.7 95.01,205.34 96.93,206.05 L 96.93,206.29 C 97.51,206.92 97.68,207.95 98.85,207.97 101.15,205.82 104.56,207.92 105.09,210.37 105.9,210.22 106.27,209.63 107.01,209.41 L 108.45,209.41 C 115.02,209.56 109.43,220.33 104.61,215.89 101.34,220.05 93.29,216.86 93.81,211.33 91.43,211.4 91.22,209.29 89.97,208.21 89.32,208.39 89.49,207.74 89.01,207.73 88.34,206.19 85.64,204.85 86.37,203.41 83.98,201.91 78.65,198.58 78.21,195.25 78.1,194.37 77.97,192.65 79.41,192.37 Z M 79.41,192.37" />
        <path id="skull21-skullbezier227" fill-rule="evenodd" stroke="none" fill="rgb(192, 192, 192)" d="M 79.41,192.37 C 77.97,192.65 78.1,194.37 78.21,195.25 78.65,198.58 83.98,201.91 86.37,203.41 85.64,204.85 88.34,206.19 89.01,207.73 87.64,207.23 87.85,206.11 87.09,205.33 85.63,203.82 83.9,203.99 81.81,203.17 79.66,202.34 78.13,200.12 75.81,199.09 73.28,197.97 70.49,198.1 68.85,195.97 66.59,196.32 66.19,194.79 64.53,194.53 64.04,192.87 63.15,191.6 62.61,189.97 62.66,187.85 60.84,185.51 59.73,183.73 58.81,182.66 58.44,181.03 57.81,179.65 58.08,178.48 58.83,177.79 59.25,176.77 59.34,174.39 56.42,169.17 59.25,168.37 62.09,167.58 61.75,172.04 62.37,174.61 63.33,178.52 65.5,182.74 67.17,184.45 67.23,183.5 66.3,181.64 66.93,179.89 68.71,181.25 68.01,184.02 68.37,186.13 68.87,189.06 70.67,191.09 72.21,192.61 76.84,193.16 78.12,190.36 77.73,185.89 79.78,186.41 79.95,190.07 79.41,192.37 Z M 79.41,192.37" />
        <path id="skull21-skullbezier228" fill-rule="evenodd" stroke="none" fill="rgb(192, 192, 192)" d="M 157.89,177.01 C 157.75,178.31 158.28,180.28 157.41,180.85 157.99,179.99 157.28,177.84 157.89,177.01 Z M 157.89,177.01" />
        <path id="skull21-skullbezier229" fill-rule="evenodd" stroke="none" fill="rgb(255, 255, 255)" d="M 157.89,177.01 C 157.99,175.84 158.47,175.42 158.13,174.37 157.62,174.17 157.32,173.75 156.46,173.89 154.89,174.62 155.92,173.15 155.73,171.97 157.36,171.6 157.92,170.16 159.09,169.33 161.75,171.48 159.88,176.8 159.09,179.65 158.96,179.31 159.37,178.41 158.85,178.45 158.17,179.83 158.34,181.41 157.89,182.53 157.58,182.53 157.67,182.11 157.41,182.05 L 157.41,180.85 C 158.28,180.28 157.75,178.31 157.89,177.01 Z M 157.89,177.01" />
        <path id="skull21-skullbezier230" fill-rule="evenodd" stroke="none" fill="rgb(255, 255, 255)" d="M 142.29,173.41 L 142.29,173.65 C 141.94,174.42 141.41,175.01 141.33,176.05 141.44,176.56 141.17,176.69 141.09,177.01 140.57,177.46 140.59,178.43 140.61,179.41 140.81,181.13 139.77,181.61 138.69,182.05 138.51,180.52 138.55,178.48 138.21,176.53 138.2,175.31 138.69,174.66 137.97,173.89 136.66,173.39 136.67,174.92 136.05,174.37 L 135.81,174.37 C 135.05,171.66 140.41,173.4 142.29,173.41 Z M 142.29,173.41" />
        <path id="skull21-skullbezier231" fill-rule="evenodd" stroke="none" fill="rgb(192, 192, 192)" d="M 151.17,192.13 C 150.84,192.83 150.58,193.32 151.17,193.81 151.61,193.84 151.68,193.52 152.13,193.57 151.17,194.93 149.72,192.73 151.17,192.13 Z M 151.17,192.13" />
        <path id="skull21-skullbezier232" fill-rule="evenodd" stroke="none" fill="rgb(192, 192, 192)" d="M 152.13,189.01 C 151.98,189.9 151.89,190.85 151.41,191.41 151.57,190.53 151.66,189.58 152.13,189.01 Z M 152.13,189.01" />
        <path id="skull21-skullbezier233" fill-rule="evenodd" stroke="none" fill="rgb(255, 255, 255)" d="M 144.69,201.25 C 141.37,201.31 137.74,206.19 141.09,208.45 142.87,207.02 147.69,203.63 144.69,201.25 Z M 153.81,180.85 C 153.72,184.04 152.79,186.39 152.13,189.01 151.66,189.58 151.57,190.53 151.41,191.41 151.48,191.8 151.19,191.83 151.17,192.13 149.72,192.73 151.17,194.93 152.13,193.57 152.36,192.44 152.95,191.67 154.05,191.41 153.78,192.5 153.13,193.21 153.09,194.53 148.41,198.65 150.06,209.1 142.53,210.37 140.83,213.82 137.53,210.02 138.93,207.49 137.79,207.48 136.16,208.23 135.57,207.97 135.54,207.69 135.62,207.29 135.33,207.25 L 135.33,207.01 C 134.54,203.2 128.97,205.2 128.85,208.21 128.73,209.73 128.16,210.54 128.61,212.05 128.62,212.77 129.24,212.87 129.33,213.49 128.21,214.41 126.45,214.23 125.01,213.73 124.5,216.04 122.7,216.89 121.17,216.61 116.82,215.82 119.87,207.86 123.57,210.61 123.42,209.26 124.1,208.74 124.53,207.97 L 125.01,207.97 C 126.21,208.05 126.95,207.67 127.41,207.01 128.01,206.65 128.84,206.52 129.09,205.81 130.39,205.6 129.24,202.92 131.01,203.17 132.52,203.71 134.89,203.5 135.33,202.21 135.96,201.32 137.62,201.46 137.97,200.29 137.82,199.42 138.49,199.37 138.45,198.61 140.32,198.8 141.65,198.45 142.77,197.89 145.05,197.2 147.91,195.04 148.53,191.89 148.88,192.22 150.43,192.38 150.45,191.65 L 150.69,191.65 C 151.92,190.99 149.42,190.75 149.73,189.49 150.59,187.87 151.38,186.18 151.41,183.73 151.21,183.06 151.75,183.11 151.65,182.53 152.17,179.05 152.89,175.77 155.49,174.37 155.44,174.72 155.1,174.78 155.01,175.09 155.08,175.96 154.57,176.25 154.53,177.01 154.28,178.28 153.97,179.49 153.81,180.85 Z M 153.81,180.85" />
        <path id="skull21-skullbezier234" fill-rule="evenodd" stroke="none" fill="rgb(192, 192, 192)" d="M 154.53,177.01 C 154.7,178.7 154.23,179.75 153.81,180.85 153.97,179.49 154.28,178.28 154.53,177.01 Z M 154.53,177.01" />
        <path id="skull21-skullbezier235" fill-rule="evenodd" stroke="none" fill="rgb(192, 192, 192)" d="M 128.85,208.21 C 128.97,205.2 134.54,203.2 135.33,207.01 134.17,203.58 129.35,205.55 128.85,208.21 Z M 128.85,208.21" />
        <path id="skull21-skullbezier236" fill-rule="evenodd" stroke="none" fill="rgb(192, 192, 192)" d="M 106.05,193.81 C 105.32,195.1 103.92,194.56 102.21,194.53 102.06,189.5 102.15,183.07 105.81,181.09 102.55,182.7 101.97,191.93 105.09,194.29 105.45,194.17 105.7,193.94 106.05,193.81 Z M 106.05,193.81" />
        <path id="skull21-skullbezier237" fill-rule="evenodd" stroke="none" fill="rgb(255, 255, 255)" d="M 105.81,181.09 C 106.67,180.41 106.88,181.98 107.25,182.53 105.32,183.61 105.53,187.77 106.77,189.49 106.68,191.08 105.73,191.81 106.05,193.81 105.7,193.94 105.45,194.17 105.09,194.29 101.97,191.93 102.55,182.7 105.81,181.09 Z M 105.81,181.09" />
        <path id="skull21-skullbezier238" fill-rule="evenodd" stroke="none" fill="rgb(255, 255, 255)" d="M 84.45,192.61 C 84.76,192.2 84.95,191.67 85.65,191.65 85.83,191.88 86.09,192.02 86.37,192.13 86.57,192.81 86.04,192.76 86.13,193.33 86.2,193.72 85.91,193.75 85.89,194.05 85.69,194.01 85.67,194.15 85.65,194.29 84.92,194.07 85.06,192.96 84.45,192.61 Z M 84.45,192.61" />
        <path id="skull21-skullbezier239" fill-rule="evenodd" stroke="none" fill="rgb(192, 192, 192)" d="M 84.45,192.61 C 85.06,192.96 84.92,194.07 85.65,194.29 85.67,194.15 85.69,194.01 85.89,194.05 L 85.89,194.77 C 85.01,194.46 84.75,193.51 84.45,192.61 Z M 84.45,192.61" />
        <path id="skull21-skullbezier240" fill-rule="evenodd" stroke="none" fill="rgb(192, 192, 192)" d="M 85.65,191.65 C 86.25,191.62 86.4,192.03 86.85,192.13 86.57,192.49 86.56,193.12 86.13,193.33 86.04,192.76 86.57,192.81 86.37,192.13 86.09,192.02 85.83,191.88 85.65,191.65 Z M 85.65,191.65" />
        <path id="skull21-skullbezier241" fill-rule="evenodd" stroke="none" fill="rgb(192, 192, 192)" d="M 136.53,196.21 C 136.96,196.83 137.58,197.25 137.97,197.89 136.85,199.54 134.05,201.35 131.73,200.29 132.36,197.93 132.1,196.02 131.49,193.81 131.94,193.62 132.37,193.41 132.93,193.33 130.75,198.05 134.86,202.07 137.01,197.17 137.01,196.7 136.36,196.87 136.53,196.21 Z M 136.53,196.21" />
        <path id="skull21-skullbezier242" fill-rule="evenodd" stroke="none" fill="rgb(255, 255, 255)" d="M 132.93,193.33 C 133.8,193.08 134.57,192.73 135.57,192.61 135.99,193.72 136.83,194.4 136.53,196.21 136.36,196.87 137.01,196.7 137.01,197.17 134.86,202.07 130.75,198.05 132.93,193.33 Z M 132.93,193.33" />
        <path id="skull21-skullbezier243" fill-rule="evenodd" stroke="none" fill="rgb(192, 192, 192)" d="M 90.45,198.85 C 91.28,199.31 91.67,200.19 92.13,201.01 93.65,200.85 94.51,201.36 95.25,201.97 94.2,201.74 93.68,200.99 92.13,201.25 91.6,200.43 91.05,199.62 90.45,198.85 Z M 90.45,198.85" />
        <path id="skull21-skullbezier244" fill-rule="evenodd" stroke="none" fill="rgb(192, 192, 192)" d="M 112.05,205.09 C 111.88,206.39 112.32,207.07 113.01,207.49 112.42,207.53 112.27,207.12 111.81,207.01 111.96,206.44 111.51,205.27 112.05,205.09 Z M 112.05,205.09" />
        <path id="skull21-skullbezier245" fill-rule="evenodd" stroke="none" fill="rgb(192, 192, 192)" d="M 114.69,207.73 C 116.57,206.8 118.09,202.25 116.37,200.05 116.83,199.63 117.63,199.55 118.29,199.33 119.51,201.86 116.59,203.47 117.09,206.77 116.24,206.89 115.08,207.95 114.69,207.73 Z M 114.69,207.73" />
        <path id="skull21-skullbezier246" fill-rule="evenodd" stroke="none" fill="rgb(192, 192, 192)" d="M 141.09,208.45 C 142.64,206.71 147.16,203.94 144.69,201.25 147.69,203.63 142.87,207.02 141.09,208.45 Z M 141.09,208.45" />
        <path id="skull21-skullbezier247" fill-rule="evenodd" stroke="none" fill="rgb(255, 255, 255)" d="M 50.37,49.33 C 50.28,50.94 50.89,51.86 50.85,53.41 51.01,54.3 50.54,55.81 51.09,56.29 51.25,57.18 51.56,57.91 51.57,58.93 51.72,61.08 50.9,62.26 51.09,64.45 L 51.09,64.93 C 51,67.01 51.69,67.2 51.09,68.77 50.84,70.36 50.29,71.65 49.41,72.61 49.75,74.38 52.22,77.05 49.41,77.89 48.16,78.48 48.89,81.05 48.69,82.69 L 48.69,83.17 C 48.17,83.77 48.52,85.24 47.73,85.57 L 47.49,85.57 C 46.37,85.34 45.61,86.71 45.09,86.29 45.58,81.19 46.01,76.01 45.81,70.21 40.03,68.92 40.62,59.44 42.45,54.37 42.37,53.49 42.72,53.04 42.93,52.45 43.4,51.65 43.65,50.61 43.89,49.57 44.09,48.41 44.56,47.52 45.09,46.69 46.36,45.88 46.28,43.72 47.73,43.09 48.29,44.3 48.54,45.81 49.41,46.69 L 49.65,46.69 C 49.53,47.94 50.69,47.9 50.37,49.33 Z M 50.37,49.33" />
        <path id="skull21-skullbezier248" fill-rule="evenodd" stroke="none" fill="rgb(255, 255, 255)" d="M 58.53,87.01 C 58.61,85.05 59.23,83.32 58.77,81.49 58.29,79.58 57.5,77.97 57.33,75.73 57,75.43 57.1,74.69 57.09,74.05 57.26,72.05 56.39,71.08 55.41,70.21 55.09,69.02 54.97,67.61 53.97,67.09 53.72,68.33 53.11,70.72 52.77,72.61 52.12,72.44 52.95,73.75 52.29,73.57 52.24,73.39 52.29,73.1 52.05,73.09 52.17,67.88 52.87,65.95 52.05,60.61 L 52.05,60.37 C 53.72,59.56 53.27,56.63 53.73,54.61 54.49,53.79 53.44,52.46 54.45,53.41 55.67,54.56 58.38,56.22 59.01,56.77 58.31,57.4 57.42,56.35 56.85,57.01 59.49,58.04 60.89,62.09 61.65,66.61 62.24,70.09 63.26,73.83 63.81,77.17 64.2,79.55 64.77,82.89 64.77,84.37 64.77,87.43 61.85,90.95 59.97,92.29 58.36,93.45 57.46,93.96 57.81,91.81 L 57.81,91.33 C 58.17,90.01 58.27,88.43 58.53,87.01 Z M 58.53,87.01" />
        <path id="skull21-skullbezier249" fill-rule="evenodd" stroke="none" fill="rgb(255, 255, 255)" d="M 146.37,96.13 C 143.88,95.94 141.92,97.09 139.89,96.61 133.47,97.49 137.51,92.52 141.57,92.29 144.64,92.12 147.25,93.79 146.37,96.13 Z M 146.37,96.13" />
        <path id="skull21-skullbezier250" fill-rule="evenodd" stroke="none" fill="rgb(255, 255, 255)" d="M 163.65,127.33 L 163.65,127.81 162.69,127.81 162.69,126.37 C 163.3,126.4 163.62,126.72 163.65,127.33 Z M 163.65,127.33" />
        <path id="skull21-skullbezier251" fill-rule="evenodd" stroke="none" fill="rgb(0, 0, 0)" d="M 116.37,200.05 C 115.02,200.38 113.9,200.94 112.53,201.25 112.37,202.53 111.87,203.47 112.05,205.09 111.51,205.27 111.96,206.44 111.81,207.01 112.27,207.12 112.42,207.53 113.01,207.49 113.77,207.38 113.86,207.93 114.69,207.73 115.08,207.95 116.24,206.89 117.09,206.77 116.6,203.47 119.51,201.86 118.29,199.33 117.63,199.55 116.83,199.63 116.37,200.05 Z M 90.45,198.61 L 90.45,198.85 C 91.05,199.62 91.6,200.43 92.13,201.25 93.68,200.99 94.2,201.74 95.25,201.97 95.83,202.28 96.71,202.28 97.17,202.69 97.36,200.75 96.83,199.52 96.93,197.65 97.88,196.46 94.96,197.08 94.05,196.93 93.08,196.3 92.3,195.49 90.45,195.73 L 90.45,198.61 Z M 122.85,204.37 C 125.28,205.9 127.29,203.56 128.13,201.97 126.81,200.1 128.1,196.94 127.17,194.53 123.66,195.74 123.74,200.54 122.85,204.37 Z M 136.53,196.21 C 136.83,194.4 135.99,193.72 135.57,192.61 134.57,192.73 133.8,193.08 132.93,193.33 132.37,193.41 131.94,193.62 131.49,193.81 132.1,196.02 132.36,197.93 131.73,200.29 134.05,201.35 136.85,199.54 137.97,197.89 137.58,197.25 136.96,196.83 136.53,196.21 Z M 85.65,191.65 C 84.95,191.67 84.76,192.2 84.45,192.61 84.75,193.51 85.01,194.46 85.89,194.77 L 85.89,194.05 C 85.91,193.75 86.2,193.72 86.13,193.33 86.56,193.12 86.57,192.49 86.85,192.13 86.4,192.03 86.25,191.62 85.65,191.65 Z M 106.05,193.81 C 105.73,191.81 106.68,191.08 106.77,189.49 105.53,187.77 105.32,183.61 107.25,182.53 106.88,181.98 106.67,180.41 105.81,181.09 102.15,183.07 102.06,189.5 102.21,194.53 103.92,194.56 105.32,195.1 106.05,193.81 Z M 162.69,184.45 C 164.4,182.58 163.62,179.68 164.13,176.77 162.09,173.8 164.95,168.67 163.17,165.73 162.38,166.38 160.75,166.19 159.33,166.21 159.61,169.45 157.63,170.43 155.97,171.73 154.66,171.2 155.29,168.74 154.05,168.13 152.59,168.52 153.07,169.79 152.85,171.25 152.57,173.21 151.16,175.31 150.93,176.77 150.63,178.77 151.69,180.47 151.65,182.53 151.75,183.11 151.22,183.06 151.41,183.73 150.96,186.48 148.25,189.47 150.69,191.65 L 150.45,191.65 C 148.94,192.56 147.11,191.07 148.05,189.49 144.02,190.4 144.49,184.67 142.29,186.61 140.81,187.93 139.16,188.36 138.69,189.97 140.04,191.27 140.61,193.34 140.85,195.73 142.41,195.13 143.21,193.77 144.21,192.61 145.11,194.02 144.45,197.51 142.77,197.89 141.65,198.45 140.32,198.8 138.45,198.61 138.49,199.37 137.82,199.42 137.97,200.29 137.17,201.01 135.81,201.17 135.33,202.21 134.89,203.5 132.52,203.71 131.01,203.17 129.4,202.13 129.89,205.25 129.09,205.81 128.84,206.52 128.01,206.65 127.41,207.01 126.8,207.52 125.77,207.61 125.01,207.97 L 124.53,207.97 C 122.17,208.02 121.99,205.88 119.97,205.57 119.23,207.55 117.08,208.12 115.65,209.41 L 115.41,209.41 C 113.28,209.54 112.13,208.7 111.09,207.73 110.42,208.51 109.39,208.91 108.45,209.41 L 107.01,209.41 C 105.92,208.7 105.81,207.19 107.01,206.53 107.95,206.59 108.26,206.02 108.93,205.81 108.9,204.65 108.56,203.79 108.21,202.93 106.07,201.56 106.13,197.98 101.97,198.61 101.63,199.79 101.45,201.13 101.49,202.69 L 101.49,202.93 C 101.54,204.57 103.8,206.07 104.85,207.49 103.25,208.09 101.58,206.81 101.01,205.57 100.03,206.33 98.45,206.44 96.93,206.05 95.01,205.34 94.01,203.7 91.17,203.89 89.89,203.07 89.61,201.77 87.33,202.45 86.35,201.76 85.69,200.74 84.69,200.05 84.2,198.14 83.12,196.83 82.53,195.01 81.63,195.2 81.39,194.72 80.61,194.77 79.99,194.19 79.67,193.32 79.41,192.37 79.95,190.07 79.78,186.41 77.73,185.89 78.12,190.36 76.84,193.16 72.21,192.61 70.67,191.09 68.87,189.06 68.37,186.13 68.01,184.02 68.71,181.25 66.93,179.89 66.3,181.64 67.23,183.5 67.17,184.45 65.5,182.74 63.33,178.52 62.37,174.61 61.75,172.04 62.09,167.58 59.25,168.37 56.42,169.17 59.34,174.39 59.25,176.77 58.83,177.79 58.08,178.48 57.81,179.65 58.44,181.03 58.81,182.66 59.73,183.73 60.56,185.95 61.4,188.15 62.61,189.97 63.15,191.6 64.04,192.87 64.53,194.53 66.19,194.79 66.59,196.32 68.85,195.97 70.49,198.1 73.28,197.97 75.81,199.09 78.13,200.12 79.66,202.34 81.81,203.17 83.9,203.99 85.63,203.82 87.09,205.33 87.85,206.11 87.64,207.23 89.01,207.73 89.49,207.74 89.32,208.39 89.97,208.21 90.69,210.47 93.76,211.61 92.85,214.69 90.28,213.87 88.08,214.88 86.37,213.73 84.9,212.75 85.29,209.36 82.53,209.65 82.78,210.93 83.28,211.95 83.25,213.49 84.89,214.7 86.26,216.6 88.05,218.29 89.29,219.47 91.76,222.3 93.33,222.61 95.5,223.04 97.63,221.04 100.53,222.13 105.98,218.42 112.78,217.07 119.73,219.25 121.1,219.68 122.18,220.91 123.57,221.17 124.16,221.29 124.82,220.92 125.49,220.93 126.9,220.96 128.25,221.99 129.57,222.13 131.75,222.37 134.08,221.57 136.05,220.93 136.77,221.28 135.42,222.19 136.53,222.13 137.73,222.29 139.67,221.12 141.81,221.41 142.77,219.49 144.39,218.23 145.89,216.85 148.27,211.47 148.71,204.15 153.81,201.49 154.43,201.68 154.65,202.26 154.53,203.17 155.38,203.22 155.32,202.36 155.97,202.21 155.11,196 160.22,191.79 161.73,186.37 162.04,185.72 162.48,185.2 162.69,184.45 Z M 147.09,139.33 C 145.56,139.19 144.16,138.91 142.53,138.85 142.76,140.52 146.39,140.79 147.09,139.33 Z M 133.89,137.41 C 134.05,138.7 136.61,140.31 137.49,138.61 136.99,137.61 134.63,135.22 133.89,137.41 Z M 162.69,126.37 L 162.69,127.81 163.65,127.81 163.65,127.33 C 163.6,126.62 165.21,122.63 162.93,122.53 161.69,123.27 162.64,124.77 162.45,126.37 L 162.69,126.37 Z M 127.65,129.97 C 125.26,126.45 124.66,120 123.57,115.09 122.95,112.27 121.45,109.6 122.13,106.69 L 121.41,106.69 C 121.13,107.05 121.12,107.68 120.69,107.89 122.68,119.59 121.89,134.06 132.93,136.69 132.84,133.26 129.47,132.65 127.65,129.97 Z M 166.53,73.81 C 167.28,76.99 166.71,81.48 168.69,83.41 170.32,76.4 170.98,68.42 172.53,61.33 170.2,54.54 167.76,47.87 166.77,39.73 162.56,34.83 158.73,29.54 157.41,21.73 152.67,16.77 145.75,13.29 137.97,11.41 130.66,9.65 124.37,7.07 116.61,6.13 110.32,5.37 104.6,4.81 97.89,5.41 89.38,6.18 81.31,10.4 75.33,13.81 70.51,16.57 66.5,17.74 62.85,21.01 57.79,25.56 54.51,30.83 51.57,37.09 53.85,39.93 54.9,44.01 57.33,46.69 L 57.57,46.69 C 61.25,51.67 66.9,53.29 71.73,57.25 75.5,60.34 77.55,65.25 81.33,68.77 82.6,69.96 84.54,70.61 86.13,71.89 87.78,73.22 88.73,75.48 90.21,76.69 93.31,79.24 97.85,81.27 101.49,83.89 103.19,85.12 104.74,87.08 106.77,88.93 108.33,90.35 112.87,93.55 113.49,92.29 113.4,91.72 113.93,91.77 113.73,91.09 L 113.97,91.09 C 114.51,89.15 115.72,87.88 117.09,86.77 117.66,86.85 117.63,87.52 118.05,87.73 118.57,89.98 118.06,92.07 117.81,94.21 117.62,95.13 119.22,96.32 119.97,97.09 121.74,96.9 123.29,96.76 125.01,97.09 L 128.13,97.09 C 132.37,97.25 135.47,96.27 139.89,96.61 141.92,97.09 143.88,95.94 146.37,96.13 148.1,97.12 151.43,96.52 152.37,98.29 150.77,99.89 146.93,99.25 145.17,100.69 148.57,102.21 152.25,101.53 155.97,102.37 157.3,102.68 158.61,103.77 160.05,104.29 163.57,105.57 167.39,105.63 169.17,108.13 171.02,107.97 171.89,108.78 173.73,108.61 170.96,106.11 168.65,103.14 168.69,97.81 167.21,96.28 167.23,94.34 166.53,92.05 165.34,88.12 162.4,84.76 163.17,80.53 164.5,77.3 162.79,71.03 166.05,69.73 166.04,70.06 166.17,70.26 166.29,70.45 166.44,71.18 165.99,72.52 166.53,72.85 L 166.53,73.81 Z M 166.53,154.45 C 167.06,154.1 167.83,153.99 168.21,153.49 L 166.77,153.49 C 165.92,154 163.9,154.62 162.69,153.97 163.19,153.83 164.27,154.27 164.37,153.73 164.94,153.66 165.37,153.45 165.81,153.25 167.03,152.79 168.44,152.52 169.41,151.81 170.68,151.4 171.71,150.75 172.77,150.13 176.65,149.21 177.02,144.78 180.21,143.17 180.51,141.71 181.34,140.78 181.65,139.33 181.82,138.74 181.89,138.35 181.41,137.89 181.36,137.14 181.58,136.13 181.17,135.73 180.12,130.95 175.75,129.48 173.97,125.41 L 170.37,125.41 C 168.29,129.17 166.6,133.32 164.13,136.69 164.12,137 163.83,137.03 163.89,137.41 161.51,141.27 158.44,144.44 153.81,146.05 151.94,146.34 150.64,147.2 149.25,147.97 148.63,148.47 146.93,147.89 146.37,148.45 L 141.33,148.45 C 137.16,147.83 134.42,145.77 131.01,144.37 130.51,144.24 130.33,143.78 129.57,143.89 128.99,143.12 128.11,142.64 127.41,141.97 L 127.17,141.97 C 121.72,136.51 117.37,129.23 117.81,119.17 116.51,114.16 116.12,108.23 115.65,102.37 114.13,100.46 112.02,99.13 109.41,98.29 109.1,97.92 107.79,96.41 107.73,97.33 107.81,100.13 107.62,102.66 105.33,103.09 105.88,104.19 105.52,105.62 104.37,105.73 103.9,105.49 103.35,105.32 103.17,104.77 102.96,103.68 103.57,103.41 103.65,102.61 101.34,101.64 102.44,98.62 101.73,96.37 101.35,95.14 100.16,93.72 99.09,92.29 96.28,88.51 93.95,86.42 89.73,83.65 85.33,80.77 83.22,78.51 77.73,77.65 76.18,77.41 70.75,76.13 71.25,73.81 71.6,72.22 74.02,72.86 75.33,72.37 70.17,63.7 61.67,58.36 53.73,52.45 L 53.73,54.61 C 53.27,56.63 53.72,59.56 52.05,60.37 51.58,60.21 52.11,59.04 51.57,58.93 51.56,57.91 51.25,57.18 51.09,56.29 50.94,55.41 51.4,53.9 50.85,53.41 50.89,51.86 50.28,50.94 50.37,49.33 51.14,48.4 49.93,47.39 49.65,46.69 L 49.41,46.69 C 48.94,45.32 48.35,44.07 47.73,42.85 46.2,43.48 46.08,45.52 45.09,46.69 44.56,47.52 44.09,48.41 43.89,49.57 43.25,50.22 43.14,51.38 42.93,52.45 42.72,53.04 42.37,53.49 42.45,54.37 41.37,56.15 40.98,57.59 40.77,59.65 40.72,60.22 40.08,60.74 40.05,61.09 39.99,62.11 40.47,63.38 40.53,64.69 40.68,67.54 39.9,70.81 40.05,72.85 40.15,74.14 40.97,75.34 41.25,76.69 41.63,78.47 41.22,80.39 41.49,81.97 41.85,84.09 43.53,85.84 42.93,87.97 44.56,87.28 45.88,86.29 47.49,85.57 L 47.73,85.57 C 48.78,85.5 48.57,84.17 48.69,83.17 L 48.69,82.69 C 49.38,81.54 48.42,78.74 49.41,77.89 52.22,77.05 49.75,74.38 49.41,72.61 50.29,71.65 50.84,70.36 51.09,68.77 52.06,67.62 51.44,66.49 51.09,64.93 L 51.09,64.45 C 51.65,63.41 51.14,61.3 52.05,60.61 52.87,65.95 52.17,67.88 52.05,73.09 52.15,73.55 52.14,74.13 52.77,74.05 L 52.77,72.61 C 53.11,70.72 53.72,68.33 53.97,67.09 54.97,67.61 55.09,69.02 55.41,70.21 56.27,71.2 56.82,72.48 57.09,74.05 57.1,74.69 57,75.43 57.33,75.73 57.09,78.38 58.06,79.8 58.77,81.49 59.23,83.32 58.61,85.05 58.53,87.01 57.98,88.14 57.76,89.6 57.81,91.33 L 57.81,91.81 C 57.2,97.22 54.81,101.87 52.05,105.25 50.52,107.13 48.15,110.06 47.97,113.17 47.88,114.87 48.88,116.37 48.69,117.97 48.65,118.39 48.15,118.66 47.97,119.17 47.49,120.56 47.67,122.75 47.25,124.21 46.81,125.75 46.4,126.73 46.05,128.77 45.75,130.59 44.69,132.18 44.61,133.81 44.51,136 45.1,138.16 44.61,140.29 44.31,141.61 43.58,142.63 44.37,143.89 44.26,144.66 43.46,144.74 43.41,145.57 44.76,149.83 48.52,151.66 51.57,154.21 52.54,153.67 54.66,153.52 55.89,153.97 L 56.13,153.97 C 59.49,154.89 62.45,152.18 66.21,153.49 66.8,153.71 67.25,154.05 68.13,153.97 68.95,154.75 70.55,154.76 72.21,154.69 72.54,154.77 72.67,155.04 73.17,154.93 75.35,156.04 79.34,158.04 79.17,160.45 78.97,163.42 75.1,162.42 72.45,161.41 73.54,163.07 75.14,164.49 76.05,166.69 76.52,167.8 76.35,169.17 76.77,170.29 77.06,171.05 77.8,171.41 77.97,172.21 78.43,174.32 77.56,176.6 79.41,177.97 79.09,174.39 84.87,170.74 85.41,174.85 85.69,176.94 82.77,180.31 83.25,183.01 84.84,183.67 85.16,185.59 86.13,186.85 87.14,186.73 87.76,186.99 88.29,187.33 88.6,186.44 89.06,185.7 89.25,184.69 L 89.25,184.21 C 89.89,183.81 89.12,182 89.73,181.57 91.78,180.36 89.99,177.17 89.73,175.33 89.69,174.06 89.23,173.26 90.45,172.93 91,173.18 91.12,173.87 91.65,174.13 92.56,174.51 93.2,175.15 93.57,176.05 94.07,178.22 96.06,180.1 96.45,181.57 95.77,181.32 95.45,181.32 94.77,181.57 94.89,182.82 93.55,183.59 94.29,184.69 94.36,187.64 94.01,189.66 95.97,191.41 96.79,191.48 97.92,191.23 98.37,191.65 98.56,191.12 98.88,190.72 98.85,189.97 L 98.85,189.49 C 99.41,188.93 98.94,187.34 99.09,186.37 99.5,185.42 99.3,183.86 100.29,183.49 103.35,182.75 102.56,178.36 105.81,178.93 106.7,179.09 106.88,180.32 107.73,180.61 108.94,181.03 109.05,180.51 110.61,180.13 111.37,180.58 112.82,180.33 113.25,181.09 112.4,181.68 111.95,182.67 110.61,182.77 110.51,186.26 109.51,188.31 110.61,191.41 110.56,192.9 110.6,194.31 111.09,195.25 112.27,195.6 113.26,196.13 114.93,195.97 114.95,194.3 116.89,193.3 116.61,192.13 116.72,191.15 116.39,190.6 116.13,189.97 L 116.13,186.85 116.13,186.61 C 116.61,186.21 116.52,185.24 117.09,184.93 116.75,184.08 116.15,183.48 115.89,182.53 L 115.89,181.81 C 117.24,180.42 118.26,182.35 119.01,183.01 119.44,181.93 120.28,181.24 120.93,180.37 121.11,179.83 121.66,179.66 122.13,179.41 122.66,179.29 123.69,178.83 123.81,179.65 123.09,180.37 122.79,181.51 122.37,182.53 122.12,183.72 121.83,184.87 121.65,186.13 121.26,186.63 121.26,188.76 121.65,189.25 L 121.65,189.49 C 121.49,190.46 121.88,190.86 121.89,191.65 123.23,191.87 123.61,191.13 124.29,190.69 L 124.29,187.33 124.29,183.97 C 124.49,181.93 126.41,181.61 126.45,179.41 L 127.41,179.41 C 127.56,178.52 127.99,177.91 128.13,177.01 L 128.13,176.77 128.37,176.77 C 128.63,175.83 129.36,175.36 130.53,175.33 130.63,176.48 130.19,177.07 130.05,177.97 129.39,179.16 129.08,180.77 130.05,181.81 130.2,182.54 129.75,183.88 130.29,184.21 130.15,184.99 130.46,185.33 130.53,185.89 130.58,186.65 130.37,187.66 130.77,188.05 L 132.21,188.05 C 133.16,187.01 132.82,185.67 132.45,184.21 L 132.45,182.29 C 132.79,181.43 132.95,180.39 133.17,179.41 133.58,179.02 133.36,178.01 133.41,177.25 L 133.65,177.25 C 134.94,176.37 133.62,174.35 135.81,174.37 L 136.05,174.37 C 136.56,175.58 136.66,173.56 137.97,174.13 138.61,174.87 137.5,175.87 138.21,176.53 138.55,178.48 138.51,180.52 138.69,182.05 139.77,181.61 140.81,181.13 140.61,179.41 141.05,178.89 140.82,177.7 141.09,177.01 141.17,176.69 141.44,176.56 141.33,176.05 141.69,175.29 142.22,174.7 142.29,173.65 L 142.29,173.41 C 142.54,170.22 142.41,166.65 144.69,165.49 144.98,163.22 145.56,161.24 147.57,160.69 148.81,160.33 149.11,159.03 149.97,158.29 151.5,157.74 152.82,156.98 154.53,156.61 159.4,156.93 164.32,157.31 166.53,154.45 Z M 114.69,230.77 C 113.61,232.39 113.61,234.24 112.05,235.09 110.82,235.78 108.47,235.64 106.29,236.05 103.89,236.51 102.3,237.42 99.57,236.77 98.16,236.44 96.9,235.16 95.49,234.85 94.57,234.66 93.5,234.95 92.61,234.85 86.06,234.13 81.71,229.31 77.97,227.17 76.03,221.32 72.7,216.46 68.85,211.57 66.18,208.18 61.85,204.79 60.45,201.01 59.36,198.06 59.66,194.91 57.33,192.37 57.93,188.51 55.26,184.77 54.45,180.85 53.57,176.55 53.43,172.43 51.33,169.33 50.47,168.05 48.63,167.26 48.21,165.73 47.09,165.14 46.04,166.07 45.33,165.73 45.19,164.16 43.48,163 44.37,161.17 42.65,157.88 37.65,155.19 35.97,151.33 34.46,147.86 35.66,143.21 37.41,140.05 36.24,135.47 35.92,132.22 37.41,127.81 38.3,125.22 40.56,123.49 40.77,121.33 40.94,119.63 39.85,117.93 39.33,116.05 38.92,114.54 39.14,112.99 38.85,111.49 38.45,109.42 37.07,107.46 36.69,105.01 35.82,99.27 35.9,92.59 35.01,86.29 34.66,83.78 34.51,79.06 34.05,75.73 33.9,74.59 33.24,73.65 33.09,72.61 32.81,70.51 33.24,67.18 33.57,64.69 34.29,59.4 37.45,54.41 39.33,49.33 40.28,46.79 41.39,44.31 42.45,41.89 43.5,39.53 45.09,37.7 46.29,35.41 48.16,31.89 49.24,27.75 51.09,24.13 53.5,19.43 58.69,13.91 63.33,11.41 65.13,10.45 67.3,9.77 69.33,8.77 71.22,7.85 73.37,5.97 75.33,5.41 86.44,2.26 98.3,-0.27 112.29,0.61 119.29,1.06 128.3,2.16 135.57,3.01 138.85,3.4 142.3,3.39 144.93,3.97 147.84,4.62 152.04,6.59 154.53,7.81 156.78,8.92 159.45,11.03 161.49,12.85 163.7,14.82 166.35,16.89 167.25,18.85 168.39,21.3 168.45,23.91 169.89,26.05 171.32,28.17 173.01,29.69 174.21,31.81 177.86,38.23 179.87,45.98 181.17,55.09 181.77,59.29 183.71,63.59 183.33,68.53 182.85,74.94 181.68,80.78 182.85,87.49 186.05,89.86 185.95,95.38 186.21,102.13 186.44,107.86 185.02,114.28 184.77,119.41 184.68,121.39 185.63,123.65 183.57,125.17 184.51,127.67 187.1,130.54 187.41,133.33 187.53,134.34 186.99,135.41 186.93,136.69 186.89,137.89 187.36,138.97 187.17,140.05 187.04,140.85 186.24,141.99 185.73,143.17 184.41,146.31 182.61,149.23 181.41,152.29 180.77,153.95 180.85,155.72 180.21,157.09 179.7,158.21 177.93,159.3 176.61,161.17 175.9,162.2 175.77,163.61 175.17,164.29 173.59,166.13 171.71,165.9 171.09,168.85 170.7,170.77 171.33,172.62 171.33,174.13 171.33,176.34 171.25,179.07 170.61,181.09 170.33,181.99 169.47,182.6 169.17,183.49 168.72,184.85 168.9,186.57 168.45,188.05 167.55,191.05 165.42,194.12 164.13,197.17 162.77,200.42 161.8,203.8 160.29,206.53 158.11,210.49 153.69,214.02 151.89,218.77 151.53,219.74 151.58,221.04 151.17,221.89 150.51,223.29 147.97,224.77 146.61,226.21 145.46,227.45 143.53,230.03 142.29,230.77 141.72,231.12 140.23,231.08 139.17,231.73 137.03,233.06 137.53,234.33 134.85,234.61 128.36,235.3 121.18,230.94 114.69,230.77 Z M 114.69,230.77" />
        <path id="skull21-skullbezier252" fill-rule="evenodd" stroke="none" fill="rgb(255, 255, 255)" d="M 93.33,164.05 C 93.49,164.94 93.8,165.67 93.81,166.69 94.33,168.66 96.33,169.14 97.89,170.05 L 98.13,170.05 C 98.31,170.62 100.1,170.79 100.53,170.29 L 100.77,170.29 C 101.91,169.9 102.96,170.05 103.65,169.57 105.71,168.16 106.09,161.28 109.17,161.41 110.53,161.48 111.69,163.24 111.57,165.25 111.41,168.1 108.22,173.49 105.09,174.37 103.6,174.8 101.15,174.65 99.57,174.37 95.76,173.71 90.49,172.06 91.17,165.49 91.77,164.89 92.08,164 93.33,164.05 Z M 93.33,164.05" />
        <path id="skull21-skullbezier253" fill-rule="evenodd" stroke="none" fill="rgb(255, 255, 255)" d="M 133.41,177.25 C 133.36,178.01 133.58,179.02 133.17,179.41 132.68,180.13 132.32,180.96 132.45,182.29 L 132.45,184.21 132.21,184.21 C 132.14,185.3 130.85,187.23 130.53,185.89 130.46,185.33 130.15,184.99 130.29,184.21 130.14,183.48 130.6,182.15 130.05,181.81 129.08,180.77 129.39,179.16 130.05,177.97 130.81,177.53 130.47,175.99 131.01,175.33 132.19,175.59 133.02,176.21 133.41,177.25 Z M 133.41,177.25" />
        <path id="skull21-skullbezier254" fill-rule="evenodd" stroke="none" fill="rgb(255, 255, 255)" d="M 124.29,183.97 L 124.29,187.33 C 123.82,188.46 123.33,189.57 121.65,189.49 L 121.65,189.25 121.65,186.13 C 121.83,184.87 122.12,183.72 122.37,182.53 123.16,181.72 123.36,180.33 124.05,179.41 123.69,178.89 122.47,178.71 122.13,179.41 121.66,179.66 121.11,179.83 120.93,180.37 120.35,180.45 119.87,181.85 119.49,181.33 119.55,177.58 125.17,177.51 125.97,180.61 125.42,181.74 124.12,182.12 124.29,183.97 Z M 124.29,183.97" />
        <path id="skull21-skullbezier255" fill-rule="evenodd" stroke="none" fill="rgb(255, 255, 255)" d="M 96.93,197.65 C 96.83,199.52 97.36,200.75 97.17,202.69 96.71,202.28 95.83,202.28 95.25,201.97 94.51,201.36 93.66,200.85 92.13,201.01 91.67,200.19 91.28,199.31 90.46,198.85 L 90.46,198.61 C 91.68,198.59 92.32,200.16 93.57,199.33 94.29,199.01 93.67,197.35 94.53,197.17 95.26,197.4 96.97,196.66 96.93,197.65 Z M 96.93,197.65" />
        <path id="skull21-skullbezier256" fill-rule="evenodd" stroke="none" fill="rgb(255, 255, 255)" d="M 112.05,205.09 C 111.87,203.47 112.37,202.53 112.53,201.25 113.9,200.94 115.02,200.38 116.37,200.05 118.09,202.25 116.57,206.8 114.69,207.73 113.86,207.93 113.77,207.38 113.01,207.49 112.32,207.07 111.88,206.39 112.05,205.09 Z M 112.05,205.09" />
    </g>
</svg>
